<svg width="16" height="16" viewBox="0 0 16 16" fill="none" xmlns="http://www.w3.org/2000/svg">
    <mask id="mask0_159:68457" style="mask-type:alpha" maskUnits="userSpaceOnUse" x="0" y="0" width="16" height="16">
        <path d="M7.99999 14.4143C7.58576 14.4143 7.25003 14.0696 7.24996 13.6444L7.24999 8.74924L2.35478 8.74927C1.92965 8.74925 1.58497 8.41348 1.58498 7.99927C1.58499 7.58505 1.92968 7.24922 2.35481 7.24924L7.24999 7.24924L7.24999 2.35407C7.24999 1.92892 7.58577 1.58427 7.99998 1.58427C8.4142 1.58427 8.74999 1.92892 8.74999 2.35407L8.74999 7.24924L13.6452 7.24923C14.0704 7.24928 14.415 7.58504 14.415 7.99925C14.415 8.41348 14.0703 8.74924 13.6452 8.74926L8.74999 8.74924L8.75002 13.6444C8.74994 14.0696 8.41421 14.4143 7.99999 14.4143Z" fill="black"/>
    </mask>
    <g mask="url(#mask0_159:68457)">
        <path d="M0 3C0 1.34315 1.34315 0 3 0H13C14.6569 0 16 1.34315 16 3V13C16 14.6569 14.6569 16 13 16H3C1.34315 16 0 14.6569 0 13V3Z" />
    </g>
</svg>