<svg width="16" height="16" viewBox="0 0 16 16" fill="none" xmlns="http://www.w3.org/2000/svg">
    <mask id="mask0_3883_181207" style="mask-type:alpha" maskUnits="userSpaceOnUse" x="0" y="0" width="16" height="16">
        <path fill-rule="evenodd" clip-rule="evenodd" d="M1.75 11.75C1.75 10.6306 2.48572 9.68302 3.5 9.36445V6.63555C2.48572 6.31698 1.75 5.36941 1.75 4.25C1.75 2.86929 2.86929 1.75 4.25 1.75C5.63071 1.75 6.75 2.86929 6.75 4.25C6.75 5.36941 6.01428 6.31698 5 6.63555V7.37684C5.24114 7.29211 5.49527 7.24912 5.75144 7.25L10.3345 7.24998C10.4327 7.25039 10.53 7.23136 10.6208 7.19397C10.7116 7.15658 10.7941 7.10159 10.8635 7.03215C10.933 6.96272 10.988 6.88022 11.0253 6.78942C11.0432 6.74601 11.0569 6.70112 11.0663 6.65535C10.0179 6.35793 9.25 5.39364 9.25 4.25C9.25 2.86929 10.3693 1.75 11.75 1.75C13.1307 1.75 14.25 2.86929 14.25 4.25C14.25 5.34014 13.5523 6.26731 12.579 6.60928C12.5671 6.86714 12.5109 7.12132 12.4124 7.36054C12.2996 7.63446 12.1337 7.88334 11.9242 8.09281C11.7147 8.30228 11.4658 8.4682 11.1919 8.58099C10.9185 8.69356 10.6256 8.75099 10.3299 8.74998L5.74687 8.75C5.64867 8.74958 5.55137 8.76861 5.46057 8.806C5.36977 8.84339 5.28727 8.89839 5.21784 8.96782C5.1484 9.03726 5.09341 9.11975 5.05602 9.21055C5.03513 9.26128 5.01997 9.31404 5.01073 9.36785C6.01946 9.68971 6.75 10.6345 6.75 11.75C6.75 13.1307 5.63071 14.25 4.25 14.25C2.86929 14.25 1.75 13.1307 1.75 11.75ZM4.25 10.75C3.69772 10.75 3.25 11.1977 3.25 11.75C3.25 12.3023 3.69772 12.75 4.25 12.75C4.80228 12.75 5.25 12.3023 5.25 11.75C5.25 11.1977 4.80228 10.75 4.25 10.75ZM5.25 4.25C5.25 4.80228 4.80228 5.25 4.25 5.25C3.69772 5.25 3.25 4.80228 3.25 4.25C3.25 3.69772 3.69772 3.25 4.25 3.25C4.80228 3.25 5.25 3.69772 5.25 4.25ZM11.75 3.25C11.1977 3.25 10.75 3.69772 10.75 4.25C10.75 4.80228 11.1977 5.25 11.75 5.25C12.3023 5.25 12.75 4.80228 12.75 4.25C12.75 3.69772 12.3023 3.25 11.75 3.25Z" fill="black"/>
    </mask>
    <g mask="url(#mask0_3883_181207)">
        <path d="M0 3C0 1.34315 1.34315 0 3 0H13C14.6569 0 16 1.34315 16 3V13C16 14.6569 14.6569 16 13 16H3C1.34315 16 0 14.6569 0 13V3Z"/>
    </g>
</svg>