<svg width="16" height="16" viewBox="0 0 16 16" fill="none" xmlns="http://www.w3.org/2000/svg">
<path d="M8 3.61591H6.25V5.36591H8V3.61591Z" fill="#585874"/>
<path d="M8 5.36591H9.75V7.11591H8L8 5.36591Z" fill="#585874"/>
<path d="M8 7.12506H6.25V8.87506H8V10.6251H9.75V8.87506H8V7.12506Z" fill="#585874"/>
<path d="M8 10.6341H6.25V12.3841H8V10.6341Z" fill="#585874"/>
<path fill-rule="evenodd" clip-rule="evenodd" d="M2.75 2.75C2.75 2.19772 3.19772 1.75 3.75 1.75H12.25C12.8023 1.75 13.25 2.19772 13.25 2.75V13.25C13.25 13.8023 12.8023 14.25 12.25 14.25H3.75C3.19772 14.25 2.75 13.8023 2.75 13.25V2.75ZM4.25 12.75V3.25H11.75V12.75H4.25Z" fill="#585874"/>
</svg>
