<svg width="16" height="16" viewBox="0 0 16 16" fill="none" xmlns="http://www.w3.org/2000/svg">
    <mask id="mask0_143:77456" style="mask-type:alpha" maskUnits="userSpaceOnUse" x="0" y="0" width="16" height="16">
        <path d="M13.4348 2.75C13.885 2.75 14.25 3.08579 14.25 3.5C14.25 3.91421 13.885 4.25 13.4348 4.25H2.56522C2.11499 4.25 1.75 3.91421 1.75 3.5C1.75 3.08579 2.11499 2.75 2.56522 2.75H13.4348Z" fill="black"/>
        <path d="M13.4348 7.25C13.885 7.25 14.25 7.58579 14.25 8C14.25 8.41421 13.885 8.75 13.4348 8.75H2.56522C2.11499 8.75 1.75 8.41421 1.75 8C1.75 7.58579 2.11499 7.25 2.56522 7.25H13.4348Z" fill="black"/>
        <path d="M13.4348 11.75C13.885 11.75 14.25 12.0858 14.25 12.5C14.25 12.9142 13.885 13.25 13.4348 13.25H2.56522C2.11499 13.25 1.75 12.9142 1.75 12.5C1.75 12.0858 2.11499 11.75 2.56522 11.75H13.4348Z" fill="black"/>
    </mask>
    <g mask="url(#mask0_143:77456)">
        <path d="M0 3C0 1.34315 1.34315 0 3 0H13C14.6569 0 16 1.34315 16 3V13C16 14.6569 14.6569 16 13 16H3C1.34315 16 0 14.6569 0 13V3Z" fill="#585874"/>
    </g>
</svg>