<svg width="16" height="16" viewBox="0 0 16 16" fill="none" xmlns="http://www.w3.org/2000/svg">
<path d="M12.5361 12.5361C12.2432 12.829 11.7621 12.8227 11.4614 12.5221L8 9.06068L4.53858 12.5221C4.23796 12.8227 3.75681 12.829 3.46392 12.5361C3.17103 12.2432 3.1773 11.762 3.47792 11.4614L6.93934 8.00002L3.47793 4.53861C3.1773 4.23798 3.17103 3.75684 3.46392 3.46395C3.75682 3.17105 4.23796 3.17732 4.53859 3.47795L8 6.93936L11.4614 3.47793C11.7621 3.1773 12.2432 3.17103 12.5361 3.46392C12.829 3.75682 12.8227 4.23796 12.5221 4.53859L9.06066 8.00002L12.5221 11.4614C12.8227 11.7621 12.829 12.2432 12.5361 12.5361Z"/>
</svg>
