<svg width="32" height="32" viewBox="0 0 32 32" fill="none" xmlns="http://www.w3.org/2000/svg">
    <g clip-path="url(#clip0_3001_316491)">
        <path fill-rule="evenodd" clip-rule="evenodd" d="M7.13112 5.47718C10.8068 -1.82573 21.1907 -1.82573 24.8664 5.47718L30.9259 17.517C34.1894 24.0016 29.6353 31.9997 22.0582 31.9997H9.93936C2.37385 31.9997 -2.19859 24.0122 1.07147 17.5187C1.07192 17.5178 1.07237 17.5169 1.07281 17.516C1.07331 17.5151 1.07381 17.5141 1.07431 17.5131L7.13112 5.47718ZM18.6138 8.62429C17.5237 6.45857 14.4738 6.45857 13.3838 8.62429L7.32437 20.6653C6.32502 22.6468 7.74484 24.9997 9.93936 24.9997H22.0582C24.2527 24.9997 25.6711 22.6468 24.6732 20.6639L18.6138 8.62429Z" fill="#FFF7E0"/>
        <path d="M12.9387 8.39953L12.9387 8.3995C14.2134 5.86683 17.7872 5.86683 19.0619 8.3995L19.0619 8.39951L25.1213 20.4391L24.6747 20.6639L25.1213 20.4391C26.281 22.7435 24.6387 25.4997 22.0597 25.4997H9.94088C7.36271 25.4997 5.71772 22.7443 6.87926 20.4406L12.9387 8.39953ZM12.9387 8.39953L6.87946 20.4402L12.9387 8.39953Z" fill="white" stroke="#C99A2E"/>
        <path d="M16 20C16.5523 20 17 20.4477 17 21C17 21.5523 16.5523 22 16 22C15.4477 22 15 21.5523 15 21C15 20.4477 15.4477 20 16 20ZM16 12C16.5523 12 17 12.4477 17 13V17C17 17.5523 16.5523 18 16 18C15.4477 18 15 17.5523 15 17V13C15 12.4477 15.4477 12 16 12Z" fill="#7C5E10"/>
    </g>
    <defs>
        <clipPath id="clip0_3001_316491">
            <rect width="32" height="32" fill="white"/>
        </clipPath>
    </defs>
</svg>