<svg width="18" height="18" viewBox="0 0 18 18" fill="none" xmlns="http://www.w3.org/2000/svg">
    <mask id="mask0_143:77487" style="mask-type:alpha" maskUnits="userSpaceOnUse" x="0" y="0" width="18" height="18">
        <path d="M13.5359 13.5359C13.243 13.8288 12.7619 13.8225 12.4612 13.5219L8.99976 10.0604L5.53834 13.5219C5.23772 13.8225 4.75657 13.8288 4.46368 13.5359C4.17079 13.243 4.17706 12.7618 4.47768 12.4612L7.9391 8.99978L4.47769 5.53837C4.17706 5.23774 4.17079 4.7566 4.46368 4.46371C4.75658 4.17081 5.23772 4.17708 5.53835 4.47771L8.99976 7.93912L12.4612 4.47769C12.7619 4.17706 13.243 4.17079 13.5359 4.46368C13.8288 4.75658 13.8225 5.23772 13.5219 5.53835L10.0604 8.99978L13.5219 12.4612C13.8225 12.7619 13.8288 13.243 13.5359 13.5359Z" fill="black"/>
    </mask>
    <g mask="url(#mask0_143:77487)">
        <path d="M1 4C1 2.34315 2.34315 1 4 1H14C15.6569 1 17 2.34315 17 4V14C17 15.6569 15.6569 17 14 17H4C2.34315 17 1 15.6569 1 14V4Z" fill="#585874"/>
    </g>
</svg>