<svg width="16" height="16" viewBox="0 0 16 16" fill="none" xmlns="http://www.w3.org/2000/svg">
<path d="M12.5359 12.5359C12.243 12.8288 11.7619 12.8225 11.4612 12.5219L7.99976 9.06044L4.53834 12.5219C4.23772 12.8225 3.75657 12.8288 3.46368 12.5359C3.17079 12.243 3.17706 11.7618 3.47768 11.4612L6.9391 7.99978L3.47769 4.53837C3.17706 4.23774 3.17079 3.7566 3.46368 3.46371C3.75658 3.17081 4.23772 3.17708 4.53835 3.47771L7.99976 6.93912L11.4612 3.47769C11.7619 3.17706 12.243 3.17079 12.5359 3.46368C12.8288 3.75658 12.8225 4.23772 12.5219 4.53835L9.06042 7.99978L12.5219 11.4612C12.8225 11.7619 12.8288 12.243 12.5359 12.5359Z" fill="#585874"/>
</svg>