<svg width="14" height="14" viewBox="0 0 14 14" fill="none" xmlns="http://www.w3.org/2000/svg">
<rect x="0.5" y="0.5" width="13" height="13" rx="2.5" stroke="#B9B9CB"/>
<path fill-rule="evenodd" clip-rule="evenodd" d="M7 6.249C7.41421 6.249 8.16985 6.25 7.75 6.24999L7.749 6.24999H10.25C10.6642 6.24999 11 6.58578 11 6.99999C11 7.41421 10.6642 7.74999 10.25 7.74999H7.749H7.75C8.21094 7.74999 7.41421 7.74999 7 7.74999C6.58579 7.74999 5.72266 7.7492 6.25 7.74999L6.249 7.74899L3.75 7.74999C3.33579 7.74999 3 7.41421 3 6.99999C3 6.58578 3.33579 6.24999 3.75 6.24999L6.249 6.24899L6.25 6.24999C5.8674 6.24915 6.58579 6.249 7 6.249Z" fill="#7A7A94"/>
</svg>
