<svg width="14" height="14" viewBox="0 0 14 14" fill="none" xmlns="http://www.w3.org/2000/svg">
<rect x="0.5" y="0.5" width="13" height="13" rx="2.5" stroke="#B9B9CB"/>
<path fill-rule="evenodd" clip-rule="evenodd" d="M7 3C7.41421 3 7.75 3.33579 7.75 3.75L7.749 6.25H10.25C10.6642 6.25 11 6.58579 11 7C11 7.41421 10.6642 7.75 10.25 7.75H7.749L7.75 10.25C7.75 10.6642 7.41421 11 7 11C6.58579 11 6.25 10.6642 6.25 10.25L6.249 7.749L3.75 7.75C3.33579 7.75 3 7.41421 3 7C3 6.58579 3.33579 6.25 3.75 6.25L6.249 6.249L6.25 3.75C6.25 3.33579 6.58579 3 7 3Z" fill="#7A7A94"/>
</svg>
