<svg width="16" height="16" viewBox="0 0 16 16" fill="none" xmlns="http://www.w3.org/2000/svg">
    <mask id="mask0_236:17943" style="mask-type:alpha" maskUnits="userSpaceOnUse" x="0" y="0" width="16" height="16">
        <path fill-rule="evenodd" clip-rule="evenodd" d="M14.2523 11.7492C14.2523 10.3685 13.133 9.24919 11.7523 9.24919C11.4615 9.24919 11.1823 9.29884 10.9227 9.39012L8.94025 6.75932L11.8112 2.94946C12.0605 2.61866 11.9944 2.14841 11.6636 1.89913C11.3328 1.64985 10.8625 1.71594 10.6132 2.04674L8.00115 5.51309L5.38906 2.04673C5.13978 1.71592 4.66953 1.64983 4.33872 1.89911C4.00791 2.14839 3.94182 2.61865 4.1911 2.94945L7.06205 6.75932L5.07959 9.39014C4.82 9.29885 4.5408 9.2492 4.25 9.2492C2.86929 9.2492 1.75 10.3685 1.75 11.7492C1.75 13.1299 2.86929 14.2492 4.25 14.2492C5.63071 14.2492 6.75 13.1299 6.75 11.7492C6.75 11.2044 6.57575 10.7004 6.27995 10.2897L8.00115 8.00555L9.72234 10.2897C9.42654 10.7003 9.25229 11.2044 9.25229 11.7492C9.25229 13.1299 10.3716 14.2492 11.7523 14.2492C13.133 14.2492 14.2523 13.1299 14.2523 11.7492ZM11.7523 10.7492C11.2 10.7492 10.7523 11.1969 10.7523 11.7492C10.7523 12.3015 11.2 12.7492 11.7523 12.7492C12.3046 12.7492 12.7523 12.3015 12.7523 11.7492C12.7523 11.1969 12.3046 10.7492 11.7523 10.7492ZM4.25 10.7492C4.80228 10.7492 5.25 11.1969 5.25 11.7492C5.25 12.3015 4.80228 12.7492 4.25 12.7492C3.69771 12.7492 3.25 12.3015 3.25 11.7492C3.25 11.1969 3.69771 10.7492 4.25 10.7492Z" fill="black"/>
    </mask>
    <g mask="url(#mask0_236:17943)">
        <path d="M0 3C0 1.34315 1.34315 0 3 0H13C14.6569 0 16 1.34315 16 3V13C16 14.6569 14.6569 16 13 16H3C1.34315 16 0 14.6569 0 13V3Z"/>
    </g>
</svg>