<svg width="16" height="16" viewBox="0 0 16 16" fill="none" xmlns="http://www.w3.org/2000/svg">
    <path fill-rule="evenodd" clip-rule="evenodd" d="M11.5 14.25C11.9142 14.25 12.25 13.9142 12.25 13.5V5.75H13C13.4142 5.75 13.75 5.41421 13.75 5C13.75 4.58579 13.4142 4.25 13 4.25H10.75V2.5C10.75 2.08579 10.4142 1.75 10 1.75H6C5.58579 1.75 5.25 2.08579 5.25 2.5V4.25H3C2.58579 4.25 2.25 4.58579 2.25 5C2.25 5.41421 2.58579 5.75 3 5.75H3.75V13.5C3.75 13.9142 4.08579 14.25 4.5 14.25H11.5ZM5.25 5.75V12.75H10.75V5.75H5.25ZM9.25 3.25H6.75V4.25H9.25V3.25Z" />
</svg>
