<svg width="32" height="32" viewBox="0 0 32 32" fill="none" xmlns="http://www.w3.org/2000/svg">
  <path d="M16 28.5C22.9036 28.5 28.5 22.9036 28.5 16C28.5 9.09644 22.9036 3.5 16 3.5C9.09644 3.5 3.5 9.09644 3.5 16C3.5 22.9036 9.09644 28.5 16 28.5Z" stroke="#FFE3E3" stroke-width="7"/>
  <path d="M16 25.5C21.2467 25.5 25.5 21.2467 25.5 16C25.5 10.7533 21.2467 6.5 16 6.5C10.7533 6.5 6.5 10.7533 6.5 16C6.5 21.2467 10.7533 25.5 16 25.5Z" stroke="#F86A6A"/>
  <path fill-rule="evenodd" clip-rule="evenodd" d="M16 19C16.5523 19 17 19.4477 17 20C17 20.5523 16.5523 21 16 21C15.4477 21 15 20.5523 15 20C15 19.4477 15.4477 19 16 19ZM16 11C16.5523 11 17 11.4477 17 12V16C17 16.5523 16.5523 17 16 17C15.4477 17 15 16.5523 15 16V12C15 11.4477 15.4477 11 16 11Z" fill="#CF1124"/>
</svg>
