<svg width="16" height="16" viewBox="0 0 16 16" fill="none" xmlns="http://www.w3.org/2000/svg">
    <mask id="mask0_3365_510895" style="mask-type:alpha" maskUnits="userSpaceOnUse" x="0" y="0" width="16" height="16">
        <path d="M7.85251 2.46967C8.14541 2.17678 8.62021 2.17678 8.91311 2.46967C9.20601 2.76256 9.20601 3.23744 8.91311 3.53033L4.44347 8L8.91311 12.4697C9.20601 12.7626 9.20601 13.2374 8.91311 13.5303C8.62021 13.8232 8.14541 13.8232 7.85251 13.5303L2.85248 8.53033C2.55959 8.23744 2.55959 7.76256 2.85248 7.46967L7.85251 2.46967Z" fill="black"/>
        <path d="M12.0926 2.46967C12.3855 2.17678 12.8603 2.17678 13.1532 2.46967C13.4461 2.76256 13.4461 3.23744 13.1532 3.53033L8.68358 8L13.1532 12.4697C13.4461 12.7626 13.4461 13.2374 13.1532 13.5303C12.8603 13.8232 12.3855 13.8232 12.0926 13.5303L7.09259 8.53033C6.7997 8.23744 6.7997 7.76256 7.09259 7.46967L12.0926 2.46967Z" fill="black"/>
    </mask>
    <g mask="url(#mask0_3365_510895)">
        <path d="M0 3C0 1.34315 1.34315 0 3 0H13C14.6569 0 16 1.34315 16 3V13C16 14.6569 14.6569 16 13 16H3C1.34315 16 0 14.6569 0 13V3Z" fill="#585874"/>
    </g>
</svg>