<svg width="16" height="16" viewBox="0 0 16 16" fill="none" xmlns="http://www.w3.org/2000/svg">
    <mask id="mask0_259:18253" style="mask-type:alpha" maskUnits="userSpaceOnUse" x="0" y="0" width="16" height="16">
        <path fill-rule="evenodd" clip-rule="evenodd" d="M13 12.75C13.4142 12.75 13.75 13.0858 13.75 13.5C13.75 13.9142 13.4142 14.25 13 14.25H3C2.58579 14.25 2.25 13.9142 2.25 13.5C2.25 13.0858 2.58579 12.75 3 12.75H13ZM7.99999 1.75C8.4142 1.75 8.74999 2.08579 8.74999 2.5V8.68934L10.2426 7.1967C10.5355 6.90381 11.0104 6.90381 11.3033 7.1967C11.5962 7.48959 11.5962 7.96447 11.3033 8.25736L8.53032 11.0303C8.23743 11.3232 7.76255 11.3232 7.46966 11.0303L4.69669 8.25736C4.4038 7.96447 4.4038 7.48959 4.69669 7.1967C4.98958 6.90381 5.46446 6.90381 5.75735 7.1967L7.24999 8.68934V2.5C7.24999 2.08579 7.58578 1.75 7.99999 1.75Z" fill="black"/>
    </mask>
    <g mask="url(#mask0_259:18253)">
        <path d="M0 3C0 1.34315 1.34315 0 3 0H13C14.6569 0 16 1.34315 16 3V13C16 14.6569 14.6569 16 13 16H3C1.34315 16 0 14.6569 0 13V3Z" fill="#585874"/>
    </g>
</svg>