<svg width="16" height="16" viewBox="0 0 16 16" fill="none" xmlns="http://www.w3.org/2000/svg">
    <mask id="mask0_1432_35754" style="mask-type:alpha" maskUnits="userSpaceOnUse" x="0" y="0" width="16" height="16">
        <path d="M7.25 3.25C7.25 4.07843 6.57843 4.75 5.75 4.75C4.92157 4.75 4.25 4.07843 4.25 3.25C4.25 2.42157 4.92157 1.75 5.75 1.75C6.57843 1.75 7.25 2.42157 7.25 3.25Z" fill="black"/>
        <path d="M7.25 12.75C7.25 13.5784 6.57843 14.25 5.75 14.25C4.92157 14.25 4.25 13.5784 4.25 12.75C4.25 11.9216 4.92157 11.25 5.75 11.25C6.57843 11.25 7.25 11.9216 7.25 12.75Z" fill="black"/>
        <path d="M7.25 8C7.25 8.82843 6.57843 9.5 5.75 9.5C4.92157 9.5 4.25 8.82843 4.25 8C4.25 7.17157 4.92157 6.5 5.75 6.5C6.57843 6.5 7.25 7.17157 7.25 8Z" fill="black"/>
        <path d="M11.75 3.25C11.75 4.07843 11.0784 4.75 10.25 4.75C9.42157 4.75 8.75 4.07843 8.75 3.25C8.75 2.42157 9.42157 1.75 10.25 1.75C11.0784 1.75 11.75 2.42157 11.75 3.25Z" fill="black"/>
        <path d="M11.75 12.75C11.75 13.5784 11.0784 14.25 10.25 14.25C9.42157 14.25 8.75 13.5784 8.75 12.75C8.75 11.9216 9.42157 11.25 10.25 11.25C11.0784 11.25 11.75 11.9216 11.75 12.75Z" fill="black"/>
        <path d="M11.75 8C11.75 8.82843 11.0784 9.5 10.25 9.5C9.42157 9.5 8.75 8.82843 8.75 8C8.75 7.17157 9.42157 6.5 10.25 6.5C11.0784 6.5 11.75 7.17157 11.75 8Z" fill="black"/>
    </mask>
    <g mask="url(#mask0_1432_35754)">
        <path d="M0 3C0 1.34315 1.34315 0 3 0H13C14.6569 0 16 1.34315 16 3V13C16 14.6569 14.6569 16 13 16H3C1.34315 16 0 14.6569 0 13V3Z"/>
    </g>
</svg>