<svg width="16" height="16" viewBox="0 0 16 16" fill="none" xmlns="http://www.w3.org/2000/svg">
    <mask id="mask0_1432_37067" style="mask-type:alpha" maskUnits="userSpaceOnUse" x="0" y="0" width="16" height="16">
        <path fill-rule="evenodd" clip-rule="evenodd" d="M9.75 4.75158C10.3023 4.75158 10.75 5.1993 10.75 5.75158V13.2516C10.75 13.8039 10.3023 14.2516 9.75 14.2516H3.25C2.69772 14.2516 2.25 13.8039 2.25 13.2516V5.75158C2.25 5.1993 2.69772 4.75158 3.25 4.75158H9.75ZM9.25 6.25158H3.75V12.7516H9.25V6.25158ZM13.001 1.75C13.4146 1.75 13.75 2.0909 13.75 2.51143V9.48856C13.75 9.90909 13.4146 10.25 13.001 10.25C12.5873 10.25 12.252 9.90909 12.252 9.48856V3.27287H6.99902C6.58535 3.27287 6.25 2.93196 6.25 2.51143C6.25 2.0909 6.58535 1.75 6.99902 1.75H13.001Z" fill="black"/>
    </mask>
    <g mask="url(#mask0_1432_37067)">
        <path d="M0 3C0 1.34315 1.34315 0 3 0H13C14.6569 0 16 1.34315 16 3V13C16 14.6569 14.6569 16 13 16H3C1.34315 16 0 14.6569 0 13V3Z"/>
    </g>
</svg>