<svg width="16" height="16" viewBox="0 0 16 16" xmlns="http://www.w3.org/2000/svg">
    <mask id="mask0_1366_164974" style="mask-type:alpha" maskUnits="userSpaceOnUse" x="0" y="0" width="16" height="16">
        <path fill-rule="evenodd" clip-rule="evenodd" d="M8.96967 2.46967C9.26256 2.17678 9.73744 2.17678 10.0303 2.46967L13.5303 5.96967C13.8232 6.26256 13.8232 6.73744 13.5303 7.03033L7.03033 13.5303C6.88968 13.671 6.69891 13.75 6.5 13.75H3C2.58579 13.75 2.25 13.4142 2.25 13V9.5C2.25 9.30109 2.32902 9.11032 2.46967 8.96967L8.96967 2.46967ZM6.5 11.9393L4.06066 9.5L9.5 4.06066L11.9393 6.5L6.5 11.9393Z"/>
    </mask>
    <g mask="url(#mask0_1366_164974)">
        <path d="M0 3C0 1.34315 1.34315 0 3 0H13C14.6569 0 16 1.34315 16 3V13C16 14.6569 14.6569 16 13 16H3C1.34315 16 0 14.6569 0 13V3Z"/>
    </g>
</svg>