<svg width="16" height="16" viewBox="0 0 16 16" fill="none" xmlns="http://www.w3.org/2000/svg">
<path d="M5 3.25C5 4.07843 4.32843 4.75 3.5 4.75C2.67157 4.75 2 4.07843 2 3.25C2 2.42157 2.67157 1.75 3.5 1.75C4.32843 1.75 5 2.42157 5 3.25Z" fill="#585874"/>
<path d="M5 12.75C5 13.5784 4.32843 14.25 3.5 14.25C2.67157 14.25 2 13.5784 2 12.75C2 11.9216 2.67157 11.25 3.5 11.25C4.32843 11.25 5 11.9216 5 12.75Z" fill="#585874"/>
<path d="M5 8C5 8.82843 4.32843 9.5 3.5 9.5C2.67157 9.5 2 8.82843 2 8C2 7.17157 2.67157 6.5 3.5 6.5C4.32843 6.5 5 7.17157 5 8Z" fill="#585874"/>
<path d="M9.5 3.25C9.5 4.07843 8.82843 4.75 8 4.75C7.17157 4.75 6.5 4.07843 6.5 3.25C6.5 2.42157 7.17157 1.75 8 1.75C8.82843 1.75 9.5 2.42157 9.5 3.25Z" fill="#585874"/>
<path d="M9.5 12.75C9.5 13.5784 8.82843 14.25 8 14.25C7.17157 14.25 6.5 13.5784 6.5 12.75C6.5 11.9216 7.17157 11.25 8 11.25C8.82843 11.25 9.5 11.9216 9.5 12.75Z" fill="#585874"/>
<path d="M9.5 8C9.5 8.82843 8.82843 9.5 8 9.5C7.17157 9.5 6.5 8.82843 6.5 8C6.5 7.17157 7.17157 6.5 8 6.5C8.82843 6.5 9.5 7.17157 9.5 8Z" fill="#585874"/>
<path d="M14 3.25C14 4.07843 13.3284 4.75 12.5 4.75C11.6716 4.75 11 4.07843 11 3.25C11 2.42157 11.6716 1.75 12.5 1.75C13.3284 1.75 14 2.42157 14 3.25Z" fill="#585874"/>
<path d="M14 12.75C14 13.5784 13.3284 14.25 12.5 14.25C11.6716 14.25 11 13.5784 11 12.75C11 11.9216 11.6716 11.25 12.5 11.25C13.3284 11.25 14 11.9216 14 12.75Z" fill="#585874"/>
<path d="M14 8C14 8.82843 13.3284 9.5 12.5 9.5C11.6716 9.5 11 8.82843 11 8C11 7.17157 11.6716 6.5 12.5 6.5C13.3284 6.5 14 7.17157 14 8Z" fill="#585874"/>
</svg>
