<svg width="16" height="16" viewBox="0 0 16 16" fill="none" xmlns="http://www.w3.org/2000/svg">
  <path fill-rule="evenodd" clip-rule="evenodd" d="M14.25 4.85699C14.25 4.44278 13.9142 4.10699 13.5 4.10699L4.31064 4.10699L5.38728 3.03037C5.68017 2.73747 5.68017 2.26257 5.38728 1.96967C5.09439 1.67677 4.61951 1.67678 4.32662 1.96968L1.96967 4.32666C1.67677 4.61955 1.67678 5.09443 1.96968 5.38732L4.33124 7.7489C4.62413 8.04179 5.09901 8.04179 5.3919 7.7489C5.68479 7.45601 5.68479 6.98113 5.3919 6.68824L4.31064 5.60699L13.5 5.60699C13.9142 5.60699 14.25 5.2712 14.25 4.85699Z" />
  <path fill-rule="evenodd" clip-rule="evenodd" d="M1.75 11.1384C1.75 10.7242 2.08579 10.3884 2.5 10.3884H11.6894L10.6127 9.3118C10.3198 9.0189 10.3198 8.544 10.6127 8.2511C10.9056 7.9582 11.3805 7.9582 11.6734 8.2511L14.0303 10.6081C14.3232 10.901 14.3232 11.3759 14.0303 11.6687L11.6688 14.0303C11.3759 14.3232 10.901 14.3232 10.6081 14.0303C10.3152 13.7374 10.3152 13.2626 10.6081 12.9697L11.6894 11.8884H2.5C2.08579 11.8884 1.75 11.5526 1.75 11.1384Z" />
</svg>
