<svg width="16" height="16" viewBox="0 0 16 16" fill="none" xmlns="http://www.w3.org/2000/svg">
    <mask id="mask0_1555_158254" style="mask-type:alpha" maskUnits="userSpaceOnUse" x="0" y="0" width="16" height="16">
        <path fill-rule="evenodd" clip-rule="evenodd" d="M4.75002 8.0002C4.75002 8.41441 5.08581 8.7502 5.50002 8.7502L11.6894 8.7502L10.1967 10.2428C9.90384 10.5357 9.90384 11.0106 10.1967 11.3035C10.4896 11.5964 10.9645 11.5964 11.2574 11.3035L14.0303 8.53053C14.3232 8.23764 14.3232 7.76276 14.0303 7.46987L11.2574 4.6969C10.9645 4.40401 10.4896 4.40401 10.1967 4.6969C9.90384 4.98979 9.90384 5.46467 10.1967 5.75756L11.6894 7.2502L5.50002 7.2502C5.08581 7.2502 4.75002 7.58599 4.75002 8.0002Z" fill="black"/>
        <path fill-rule="evenodd" clip-rule="evenodd" d="M1.75 2.75391C1.75 2.20162 2.19772 1.75391 2.75 1.75391H7C7.41421 1.75391 7.75 2.08969 7.75 2.50391C7.75 2.91812 7.41421 3.25391 7 3.25391H3.25V12.7513H7C7.41421 12.7513 7.75 13.0871 7.75 13.5013C7.75 13.9156 7.41421 14.2513 7 14.2513H2.75C2.19772 14.2513 1.75 13.8036 1.75 13.2513V2.75391Z" fill="black"/>
    </mask>
    <g mask="url(#mask0_1555_158254)">
        <path d="M0 3C0 1.34315 1.34315 0 3 0H13C14.6569 0 16 1.34315 16 3V13C16 14.6569 14.6569 16 13 16H3C1.34315 16 0 14.6569 0 13V3Z" fill="#585874"/>
    </g>
</svg>