<svg width="16" height="16" viewBox="0 0 16 16" fill="none" xmlns="http://www.w3.org/2000/svg">
    <path fill-rule="evenodd" clip-rule="evenodd" d="M11.1975 6.08404C12.001 6.71352 12.6701 7.44126 13.1296 8C12.6701 8.55874 12.001 9.28648 11.1975 9.91596C10.1735 10.7182 9.0733 11.25 8 11.25C6.9267 11.25 5.82652 10.7182 4.80253 9.91596C3.999 9.28648 3.32986 8.55874 2.87035 8C3.32986 7.44126 3.999 6.71352 4.80253 6.08404C5.82652 5.28185 6.9267 4.75 8 4.75C9.0733 4.75 10.1735 5.28185 11.1975 6.08404ZM14.5653 7.45572C14.8116 7.77812 14.8116 8.22188 14.5653 8.54428C13.6124 9.79159 11.0328 12.75 8 12.75C4.96719 12.75 2.38756 9.79159 1.43471 8.54428C1.18843 8.22188 1.18843 7.77813 1.43471 7.45572C2.38756 6.20841 4.96719 3.25 8 3.25C11.0328 3.25 13.6124 6.20841 14.5653 7.45572ZM8 10C9.10457 10 10 9.10457 10 8C10 6.89543 9.10457 6 8 6C6.89543 6 6 6.89543 6 8C6 9.10457 6.89543 10 8 10Z" />
</svg>
