<svg width="101" height="100" viewBox="0 0 101 100" fill="none" xmlns="http://www.w3.org/2000/svg">
    <path fill-rule="evenodd" clip-rule="evenodd" d="M59.5278 0C60.7249 0 61.8732 0.478909 62.7195 1.33132L89.8029 28.604C90.6492 29.4565 91.125 30.6126 91.125 31.8182V86.3636C91.125 89.9805 89.6982 93.4486 87.1586 96.0059C84.6191 98.5632 81.175 100 77.5833 100H23.4167C19.8252 100 16.3808 98.5632 13.8413 96.0059C11.3017 93.4486 9.875 89.9805 9.875 86.3636V13.6364C9.875 10.0198 11.3017 6.55132 13.8413 3.994C16.3808 1.43668 19.8252 0 23.4167 0H59.5278ZM57.6581 9.09091H23.4167C22.2195 9.09091 21.0714 9.56982 20.2249 10.4222C19.3784 11.2747 18.9028 12.4308 18.9028 13.6364V86.3636C18.9028 87.5691 19.3784 88.7255 20.2249 89.5777C21.0714 90.43 22.2195 90.9091 23.4167 90.9091H77.5833C78.7804 90.9091 79.9287 90.43 80.7751 89.5777C81.6215 88.7255 82.0972 87.5691 82.0972 86.3636V33.701L57.6581 9.09091ZM68.5556 68.1818C71.0486 68.1818 73.0694 70.2168 73.0694 72.7273C73.0694 75.2377 71.0486 77.2727 68.5556 77.2727H32.4444C29.9515 77.2727 27.9306 75.2377 27.9306 72.7273C27.9306 70.2168 29.9515 68.1818 32.4444 68.1818H68.5556ZM68.5556 50C71.0486 50 73.0694 52.035 73.0694 54.5455C73.0694 57.0559 71.0486 59.0909 68.5556 59.0909H32.4444C29.9515 59.0909 27.9306 57.0559 27.9306 54.5455C27.9306 52.035 29.9515 50 32.4444 50H68.5556ZM41.4722 31.8182C43.9652 31.8182 45.9861 33.8533 45.9861 36.3636C45.9861 38.874 43.9652 40.9091 41.4722 40.9091H32.4444C29.9515 40.9091 27.9306 38.874 27.9306 36.3636C27.9306 33.8533 29.9515 31.8182 32.4444 31.8182H41.4722Z" fill="#DBDBE5"/>
</svg>