<svg width="16" height="16" viewBox="0 0 16 16" fill="none" xmlns="http://www.w3.org/2000/svg">
    <path fill-rule="evenodd" clip-rule="evenodd" d="M2.75 2.75C2.75 2.19772 3.19772 1.75 3.75 1.75H8.33579C8.601 1.75 8.85536 1.85536 9.04289 2.04289L12.9571 5.95711C13.1446 6.14464 13.25 6.399 13.25 6.66421V13.25C13.25 13.8023 12.8023 14.25 12.25 14.25H3.75C3.19772 14.25 2.75 13.8023 2.75 13.25V2.75Z" fill="#F0F0F5"/>
    <path fill-rule="evenodd" clip-rule="evenodd" d="M2.75 2.75C2.75 2.19772 3.19772 1.75 3.75 1.75H8.33579C8.601 1.75 8.85536 1.85536 9.04289 2.04289L12.9571 5.95711C13.1446 6.14464 13.25 6.399 13.25 6.66421V13.25C13.25 13.8023 12.8023 14.25 12.25 14.25H3.75C3.19772 14.25 2.75 13.8023 2.75 13.25V2.75ZM4.25 3.25V12.75H11.75V7.25H8.75C8.19772 7.25 7.75 6.80228 7.75 6.25V3.25H4.25Z" fill="#9999AD"/>
</svg>