<svg width="16" height="16" viewBox="0 0 16 16" fill="none" xmlns="http://www.w3.org/2000/svg">
    <path d="M15.5 8C15.5 12.1421 12.1421 15.5 8 15.5C3.85786 15.5 0.5 12.1421 0.5 8C0.5 3.85786 3.85786 0.5 8 0.5C12.1421 0.5 15.5 3.85786 15.5 8Z" fill="#EBEDFF" stroke="#7981FC"/>
    <path d="M7 4C7 3.44772 7.4477 3 8 3C8.5523 3 9 3.44772 9 4L9 9.5858L10.2929 8.2929C10.6834 7.9024 11.3166 7.9024 11.7071 8.2929C12.0976 8.6834 12.0976 9.3166 11.7071 9.7071L8.7071 12.7071C8.3166 13.0976 7.6834 13.0976 7.2929 12.7071L4.2929 9.7071C3.9024 9.3166 3.9024 8.6834 4.2929 8.2929C4.6834 7.9024 5.3166 7.9024 5.7071 8.2929L7 9.5858L7 4Z" fill="#4E4EE4"/>
</svg>