<svg width="24" height="24" viewBox="0 0 24 24" fill="none" xmlns="http://www.w3.org/2000/svg">
    <mask id="mask0_1654_178122" style="mask-type:alpha" maskUnits="userSpaceOnUse" x="0" y="0" width="24" height="24">
        <path d="M12.0012 1.25C5.92303 1.24753 1 6.18706 1 12.2837C1 17.1048 4.07966 21.203 8.36856 22.7081C8.94615 22.8536 8.85767 22.4416 8.85767 22.1603V20.2482C5.5224 20.6405 5.38722 18.4248 5.16356 18.0547C4.71132 17.28 3.64216 17.0826 3.96168 16.7125C4.72115 16.3202 5.49536 16.8112 6.39247 18.1411C7.04134 19.1058 8.30712 18.943 8.94861 18.7826C9.08871 18.2028 9.38856 17.6846 9.80148 17.2825C6.34577 16.6607 4.90549 14.5438 4.90549 12.0271C4.90549 10.8058 5.30611 9.68321 6.09262 8.77771C5.59122 7.285 6.13931 6.00694 6.21305 5.81696C7.64105 5.68866 9.12557 6.84336 9.24109 6.93465C10.0522 6.71506 10.9788 6.59909 12.016 6.59909C13.0581 6.59909 13.9872 6.71999 14.8056 6.94205C15.0833 6.72986 16.4597 5.73801 17.787 5.85891C17.8582 6.04889 18.394 7.29734 17.9221 8.77031C18.7185 9.67828 19.124 10.8108 19.124 12.0345C19.124 14.5561 17.6739 16.6755 14.2084 17.2874C14.5052 17.5804 14.7409 17.9299 14.9017 18.3154C15.0624 18.7009 15.1451 19.1147 15.1448 19.5326V22.3084C15.1645 22.5304 15.1448 22.75 15.5135 22.75C19.8663 21.277 23 17.1492 23 12.2862C23 6.18706 18.0745 1.25 12.0012 1.25Z" fill="black"/>
    </mask>
    <g mask="url(#mask0_1654_178122)">
        <path d="M0 3C0 1.34315 1.34315 0 3 0H21C22.6569 0 24 1.34315 24 3V21C24 22.6569 22.6569 24 21 24H3C1.34315 24 0 22.6569 0 21V3Z"/>
    </g>
</svg>