<svg width="16" height="16" viewBox="0 0 16 16" fill="none" xmlns="http://www.w3.org/2000/svg">
    <mask id="mask0_3596_220690" style="mask-type:alpha" maskUnits="userSpaceOnUse" x="0" y="0" width="16" height="16">
        <path d="M6.5002 3.7002C6.9002 3.7002 7.2002 3.9002 7.2002 4.4002C7.2002 4.9002 6.8002 5.2002 6.4002 5.2002H3.2002V12.7002H10.7002V9.5002C10.7002 9.0002 11.1002 8.7002 11.5002 8.7002C11.9002 8.7002 12.2002 9.1002 12.3002 9.5002V13.5002C12.3002 14.0002 11.9002 14.3002 11.5002 14.3002H2.5002C2.0002 14.3002 1.7002 13.9002 1.7002 13.5002V4.5002C1.7002 4.0002 2.1002 3.7002 2.5002 3.7002H6.5002ZM13.5002 1.7002C13.6002 1.7002 13.7002 1.8002 13.8002 1.8002C14.0002 1.9002 14.1002 2.0002 14.2002 2.2002C14.2002 2.3002 14.2002 2.4002 14.3002 2.5002V6.5002C14.3002 7.0002 14.0002 7.3002 13.5002 7.3002C13.0002 7.3002 12.7002 6.9002 12.7002 6.5002V4.3002L7.0002 10.0002C6.9002 10.2002 6.7002 10.2002 6.5002 10.2002C6.3002 10.2002 6.1002 10.1002 6.0002 10.0002C5.7002 9.7002 5.7002 9.3002 6.0002 9.0002L11.7002 3.3002H9.5002C9.0002 3.3002 8.7002 3.0002 8.7002 2.5002C8.7002 2.0002 9.1002 1.7002 9.5002 1.7002H13.5002Z" fill="black"/>
    </mask>
    <g mask="url(#mask0_3596_220690)">
        <path d="M0 3C0 1.34315 1.34315 0 3 0H13C14.6569 0 16 1.34315 16 3V13C16 14.6569 14.6569 16 13 16H3C1.34315 16 0 14.6569 0 13V3Z"/>
    </g>
</svg>