<svg width="24" height="24" viewBox="0 0 24 24" fill="none" xmlns="http://www.w3.org/2000/svg">
  <path d="M12 21.5C17.2467 21.5 21.5 17.2467 21.5 12C21.5 6.7533 17.2467 2.5 12 2.5C6.7533 2.5 2.5 6.7533 2.5 12C2.5 17.2467 6.7533 21.5 12 21.5Z" fill="#EBEDFF" stroke="#7981FC"/>
  <path fill-rule="evenodd" clip-rule="evenodd" d="M12 15C12.5523 15 13 15.4477 13 16C13 16.5523 12.5523 17 12 17C11.4477 17 11 16.5523 11 16C11 15.4477 11.4477 15 12 15ZM12 7C12.5523 7 13 7.44772 13 8V12C13 12.5523 12.5523 13 12 13C11.4477 13 11 12.5523 11 12V8C11 7.44772 11.4477 7 12 7Z" fill="#4E4EE4"/>
</svg>