<svg width="16" height="16" viewBox="0 0 16 16" fill="none" xmlns="http://www.w3.org/2000/svg">
<path fill-rule="evenodd" clip-rule="evenodd" d="M7.25 8.25C7.25 7.83579 7.54381 7.5 7.90625 7.5H13.5938C13.9562 7.5 14.25 7.83579 14.25 8.25C14.25 8.66421 13.9562 9 13.5938 9H7.90625C7.54381 9 7.25 8.66421 7.25 8.25Z" fill="#585874"/>
<path fill-rule="evenodd" clip-rule="evenodd" d="M7.25 4.25C7.25 3.83579 7.54381 3.5 7.90625 3.5H13.5938C13.9562 3.5 14.25 3.83579 14.25 4.25C14.25 4.66421 13.9562 5 13.5938 5H7.90625C7.54381 5 7.25 4.66421 7.25 4.25Z" fill="#585874"/>
<path fill-rule="evenodd" clip-rule="evenodd" d="M1.75 12.25C1.75 11.8358 2.08579 11.5 2.5 11.5H13.5C13.9142 11.5 14.25 11.8358 14.25 12.25C14.25 12.6642 13.9142 13 13.5 13H2.5C2.08579 13 1.75 12.6642 1.75 12.25Z" fill="#585874"/>
<path fill-rule="evenodd" clip-rule="evenodd" d="M5.53033 3.21967C5.23744 2.92678 4.76256 2.92678 4.46967 3.21967L1.96967 5.71967C1.67678 6.01256 1.67678 6.48744 1.96967 6.78033L4.46967 9.28033C4.76256 9.57322 5.23744 9.57322 5.53033 9.28033C5.82322 8.98744 5.82322 8.51256 5.53033 8.21967L3.56066 6.25L5.53033 4.28033C5.82322 3.98744 5.82322 3.51256 5.53033 3.21967Z" fill="#585874"/>
</svg>