<svg width="16" height="16" viewBox="0 0 16 16" fill="none" xmlns="http://www.w3.org/2000/svg">
<path d="M13.5 9.5C13.0858 9.5 12.75 9.83579 12.75 10.25V11.75C12.75 12.3023 12.3023 12.75 11.75 12.75L10.2499 12.75C9.83572 12.75 9.49994 13.0858 9.49994 13.5C9.49994 13.9142 9.83572 14.25 10.2499 14.25L13.25 14.25C13.8023 14.25 14.25 13.8023 14.25 13.25L14.25 10.25C14.25 9.83579 13.9142 9.5 13.5 9.5Z" fill="#585874"/>
<path d="M13.5 9.5C13.0858 9.5 12.75 9.83579 12.75 10.25V11.75C12.75 12.3023 12.3023 12.75 11.75 12.75L10.2499 12.75C9.83572 12.75 9.49994 13.0858 9.49994 13.5C9.49994 13.9142 9.83572 14.25 10.2499 14.25L13.25 14.25C13.8023 14.25 14.25 13.8023 14.25 13.25L14.25 10.25C14.25 9.83579 13.9142 9.5 13.5 9.5Z" fill="#585874"/>
<path d="M13.5 6.5C13.0858 6.5 12.75 6.16421 12.75 5.74999V4.25C12.75 3.69772 12.3023 3.25 11.75 3.25L10.25 3.25C9.83577 3.25 9.49998 2.91421 9.49998 2.5C9.49998 2.08579 9.83577 1.75 10.25 1.75L13.25 1.75C13.8023 1.75 14.25 2.19772 14.25 2.75L14.25 5.74999C14.25 6.16421 13.9142 6.5 13.5 6.5Z" fill="#585874"/>
<path d="M13.5 6.5C13.0858 6.5 12.75 6.16421 12.75 5.74999V4.25C12.75 3.69772 12.3023 3.25 11.75 3.25L10.25 3.25C9.83577 3.25 9.49998 2.91421 9.49998 2.5C9.49998 2.08579 9.83577 1.75 10.25 1.75L13.25 1.75C13.8023 1.75 14.25 2.19772 14.25 2.75L14.25 5.74999C14.25 6.16421 13.9142 6.5 13.5 6.5Z" fill="#585874"/>
<path d="M2.50003 9.5C2.91425 9.5 3.25004 9.83579 3.25004 10.25V11.75C3.25004 12.3023 3.69775 12.75 4.25003 12.75L5.75007 12.75C6.16428 12.75 6.50007 13.0858 6.50007 13.5C6.50007 13.9142 6.16428 14.25 5.75007 14.25L2.75003 14.25C2.19775 14.25 1.75003 13.8023 1.75003 13.25L1.75002 10.25C1.75002 9.83579 2.08581 9.5 2.50003 9.5Z" fill="#585874"/>
<path d="M2.50001 6.5C2.91422 6.5 3.25001 6.16421 3.25001 5.74999V4.25C3.25001 3.69772 3.69773 3.25 4.25001 3.25L5.75004 3.25C6.16426 3.25 6.50004 2.91421 6.50004 2.5C6.50004 2.08579 6.16426 1.75 5.75004 1.75L2.75001 1.75C2.19772 1.75 1.75001 2.19772 1.75001 2.75L1.75 5.74999C1.75 6.16421 2.08579 6.5 2.50001 6.5Z" fill="#585874"/>
</svg>