<svg width="16" height="16" viewBox="0 0 16 16" fill="none" xmlns="http://www.w3.org/2000/svg">
<path d="M4.25 8.5003C4.25 6.43955 5.94827 4.7503 8.06641 4.7503C9.06651 4.7503 9.97456 5.12745 10.6543 5.74408L8.9931 5.73896C8.57889 5.73769 8.24207 6.07244 8.24079 6.48665C8.23951 6.90086 8.57427 7.23768 8.98848 7.23896L12.4885 7.24974C12.9027 7.25101 13.2395 6.91626 13.2408 6.50205L13.2516 3.00207C13.2529 2.58785 12.9181 2.25103 12.5039 2.24976C12.0897 2.24848 11.7529 2.58323 11.7516 2.99745L11.7463 4.71119C10.7907 3.80606 9.49297 3.2503 8.06641 3.2503C5.14063 3.2503 2.75 5.59048 2.75 8.5003C2.75 11.4101 5.14063 13.7503 8.06641 13.7503C8.48062 13.7503 8.81641 13.4145 8.81641 13.0003C8.81641 12.5861 8.48062 12.2503 8.06641 12.2503C5.94827 12.2503 4.25 10.561 4.25 8.5003Z" fill="#585874"/>
</svg>