<svg width="16" height="16" viewBox="0 0 16 16" fill="none" xmlns="http://www.w3.org/2000/svg">
<path fill-rule="evenodd" clip-rule="evenodd" d="M8 12.7499C9.933 12.7499 11.5 11.1829 11.5 9.24992C11.5 8.29422 10.8775 7.03614 9.87574 5.72816C9.24213 4.90085 8.54658 4.16786 8.00049 3.63455C7.45423 4.16537 6.75885 4.89509 6.12543 5.72014C5.12433 7.0241 4.50002 8.28393 4.5 9.24995C4.49996 11.1829 6.06697 12.7499 8 12.7499ZM8 14.2499C10.7614 14.2499 13 12.0113 13 9.24992C13 6.28504 9.40619 2.84979 8.31432 1.87451C8.13526 1.71457 7.87121 1.71414 7.69166 1.87354C6.59774 2.84467 3.00007 6.26536 3 9.24992C2.99994 12.0113 5.23858 14.2499 8 14.2499Z" fill="#585874"/>
</svg>