<svg width="16" height="16" viewBox="0 0 16 16" fill="none" xmlns="http://www.w3.org/2000/svg">
<path fill-rule="evenodd" clip-rule="evenodd" d="M6.24821 3.5C6.24722 3.08579 6.5822 2.7492 6.99642 2.74821L13.4964 2.7327C13.9106 2.73171 14.2472 3.06669 14.2482 3.4809C14.2492 3.89512 13.9142 4.2317 13.5 4.23269L7 4.24821C6.58579 4.2492 6.2492 3.91421 6.24821 3.5Z" fill="#585874"/>
<path d="M4.75 3.5C4.75 4.32843 4.07843 5 3.25 5C2.42157 5 1.75 4.32843 1.75 3.5C1.75 2.67157 2.42157 2 3.25 2C4.07843 2 4.75 2.67157 4.75 3.5Z" fill="#585874"/>
<path fill-rule="evenodd" clip-rule="evenodd" d="M6.24821 8C6.24722 7.58579 6.5822 7.2492 6.99642 7.24821L13.4964 7.2327C13.9106 7.23171 14.2472 7.56669 14.2482 7.9809C14.2492 8.39512 13.9142 8.7317 13.5 8.73269L7 8.74821C6.58579 8.7492 6.2492 8.41421 6.24821 8Z" fill="#585874"/>
<path d="M4.75 8C4.75 8.82843 4.07843 9.5 3.25 9.5C2.42157 9.5 1.75 8.82843 1.75 8C1.75 7.17157 2.42157 6.5 3.25 6.5C4.07843 6.5 4.75 7.17157 4.75 8Z" fill="#585874"/>
<path fill-rule="evenodd" clip-rule="evenodd" d="M6.24821 12.5C6.24722 12.0858 6.5822 11.7492 6.99642 11.7482L13.4964 11.7327C13.9106 11.7317 14.2472 12.0667 14.2482 12.4809C14.2492 12.8951 13.9142 13.2317 13.5 13.2327L7 13.2482C6.58579 13.2492 6.2492 12.9142 6.24821 12.5Z" fill="#585874"/>
<path d="M4.75 12.5C4.75 13.3284 4.07843 14 3.25 14C2.42157 14 1.75 13.3284 1.75 12.5C1.75 11.6716 2.42157 11 3.25 11C4.07843 11 4.75 11.6716 4.75 12.5Z" fill="#585874"/>
</svg>