<svg width="16" height="16" viewBox="0 0 16 16" fill="none" xmlns="http://www.w3.org/2000/svg">
<path fill-rule="evenodd" clip-rule="evenodd" d="M9.75 4.75085C10.3023 4.75085 10.75 5.19857 10.75 5.75085V13.2508C10.75 13.8032 10.3023 14.2508 9.75 14.2508H3.25C2.69772 14.2508 2.25 13.8032 2.25 13.2508V5.75085C2.25 5.19857 2.69772 4.75085 3.25 4.75085H9.75ZM9.25 6.25085H3.75V12.7508H9.25V6.25085ZM13.001 1.74927C13.4146 1.74927 13.75 2.09017 13.75 2.5107V9.48783C13.75 9.90836 13.4146 10.2493 13.001 10.2493C12.5873 10.2493 12.252 9.90836 12.252 9.48783V3.27214H6.99902C6.58535 3.27214 6.25 2.93123 6.25 2.5107C6.25 2.09017 6.58535 1.74927 6.99902 1.74927H13.001Z" fill="#585874"/>
</svg>