<svg width="16" height="16" viewBox="0 0 16 16" fill="none" xmlns="http://www.w3.org/2000/svg">
<path fill-rule="evenodd" clip-rule="evenodd" d="M1.75 3.5C1.75 3.08579 2.08579 2.75 2.5 2.75H13.5C13.9142 2.75 14.25 3.08579 14.25 3.5C14.25 3.91421 13.9142 4.25 13.5 4.25H2.5C2.08579 4.25 1.75 3.91421 1.75 3.5Z" fill="#585874"/>
<path fill-rule="evenodd" clip-rule="evenodd" d="M1.75 6.5C1.75 6.08579 2.08579 5.75 2.5 5.75H10.5C10.9142 5.75 11.25 6.08579 11.25 6.5C11.25 6.91421 10.9142 7.25 10.5 7.25H2.5C2.08579 7.25 1.75 6.91421 1.75 6.5Z" fill="#585874"/>
<path fill-rule="evenodd" clip-rule="evenodd" d="M1.75 9.5C1.75 9.08579 2.08579 8.75 2.5 8.75H13.5C13.9142 8.75 14.25 9.08579 14.25 9.5C14.25 9.91421 13.9142 10.25 13.5 10.25H2.5C2.08579 10.25 1.75 9.91421 1.75 9.5Z" fill="#585874"/>
<path fill-rule="evenodd" clip-rule="evenodd" d="M1.75 12.5C1.75 12.0858 2.08579 11.75 2.5 11.75H10.5C10.9142 11.75 11.25 12.0858 11.25 12.5C11.25 12.9142 10.9142 13.25 10.5 13.25H2.5C2.08579 13.25 1.75 12.9142 1.75 12.5Z" fill="#585874"/>
</svg>