<svg width="16" height="16" viewBox="0 0 16 16" fill="none" xmlns="http://www.w3.org/2000/svg">
<path fill-rule="evenodd" clip-rule="evenodd" d="M1.75 3.5C1.75 3.08579 2.08579 2.75 2.5 2.75H13.5C13.9142 2.75 14.25 3.08579 14.25 3.5C14.25 3.91421 13.9142 4.25 13.5 4.25H2.5C2.08579 4.25 1.75 3.91421 1.75 3.5Z" fill="#585874"/>
<path fill-rule="evenodd" clip-rule="evenodd" d="M3.25 6.5C3.25 6.08579 3.58579 5.75 4 5.75H12C12.4142 5.75 12.75 6.08579 12.75 6.5C12.75 6.91421 12.4142 7.25 12 7.25H4C3.58579 7.25 3.25 6.91421 3.25 6.5Z" fill="#585874"/>
<path fill-rule="evenodd" clip-rule="evenodd" d="M1.75 9.5C1.75 9.08579 2.08579 8.75 2.5 8.75H13.5C13.9142 8.75 14.25 9.08579 14.25 9.5C14.25 9.91421 13.9142 10.25 13.5 10.25H2.5C2.08579 10.25 1.75 9.91421 1.75 9.5Z" fill="#585874"/>
<path fill-rule="evenodd" clip-rule="evenodd" d="M3.25 12.5C3.25 12.0858 3.58579 11.75 4 11.75H12C12.4142 11.75 12.75 12.0858 12.75 12.5C12.75 12.9142 12.4142 13.25 12 13.25H4C3.58579 13.25 3.25 12.9142 3.25 12.5Z" fill="#585874"/>
</svg>