<svg width="16" height="16" viewBox="0 0 16 16" fill="none" xmlns="http://www.w3.org/2000/svg">
<path d="M11.8372 12.6009C12.031 12.967 12.4848 13.1066 12.8509 12.9128C13.217 12.719 13.3566 12.2652 13.1628 11.8991L11.8372 12.6009ZM8 3.75L8.66284 3.39908C8.53286 3.15356 8.27781 3 8 3C7.72219 3 7.46714 3.15356 7.33716 3.39908L8 3.75ZM2.83716 11.8991C2.64335 12.2652 2.78301 12.719 3.14908 12.9128C3.51516 13.1066 3.96904 12.967 4.16284 12.6009L2.83716 11.8991ZM11.175 10.5C11.5892 10.5 11.925 10.1642 11.925 9.75C11.925 9.33579 11.5892 9 11.175 9V10.5ZM4.825 9C4.41079 9 4.075 9.33579 4.075 9.75C4.075 10.1642 4.41079 10.5 4.825 10.5V9ZM13.1628 11.8991L8.66284 3.39908L7.33716 4.10092L11.8372 12.6009L13.1628 11.8991ZM7.33716 3.39908L2.83716 11.8991L4.16284 12.6009L8.66284 4.10092L7.33716 3.39908ZM11.175 9H4.825V10.5H11.175V9Z" fill="#585874"/>
</svg>