<svg width="10" height="12" viewBox="0 0 10 12" fill="none" xmlns="http://www.w3.org/2000/svg">
<path fill-rule="evenodd" clip-rule="evenodd" d="M0.25 1C0.25 0.585786 0.585786 0.25 1 0.25H5.75C6.54565 0.25 7.30871 0.566071 7.87132 1.12868C8.43393 1.69129 8.75 2.45435 8.75 3.25C8.75 3.94722 8.50729 4.61941 8.06867 5.15363C8.33407 5.29988 8.57999 5.48379 8.7981 5.7019C9.40759 6.3114 9.75 7.13805 9.75 8C9.75 8.86195 9.40759 9.6886 8.7981 10.2981C8.1886 10.9076 7.36195 11.25 6.5 11.25H1C0.585786 11.25 0.25 10.9142 0.25 10.5V1ZM1.75 6.25V9.75H6.5C6.96413 9.75 7.40925 9.56563 7.73744 9.23744C8.06563 8.90925 8.25 8.46413 8.25 8C8.25 7.53587 8.06563 7.09075 7.73744 6.76256C7.40925 6.43437 6.96413 6.25 6.5 6.25H1.75ZM5.75 4.75H1.75V1.75H5.75C6.14782 1.75 6.52936 1.90804 6.81066 2.18934C7.09196 2.47064 7.25 2.85218 7.25 3.25C7.25 3.64782 7.09196 4.02936 6.81066 4.31066C6.52936 4.59196 6.14782 4.75 5.75 4.75Z" fill="#585874"/>
</svg>
