<svg width="16" height="16" viewBox="0 0 16 16" fill="none" xmlns="http://www.w3.org/2000/svg">
<path fill-rule="evenodd" clip-rule="evenodd" d="M6.5 8C6.5 7.58579 6.80616 7.25 7.18382 7.25H13.5662C13.9438 7.25 14.25 7.58579 14.25 8C14.25 8.41421 13.9438 8.75 13.5662 8.75H7.18382C6.80616 8.75 6.5 8.41421 6.5 8Z" fill="#585874"/>
<path fill-rule="evenodd" clip-rule="evenodd" d="M6.5 4C6.5 3.58579 6.80616 3.25 7.18382 3.25H13.5662C13.9438 3.25 14.25 3.58579 14.25 4C14.25 4.41421 13.9438 4.75 13.5662 4.75H7.18382C6.80616 4.75 6.5 4.41421 6.5 4Z" fill="#585874"/>
<path fill-rule="evenodd" clip-rule="evenodd" d="M6.5 12C6.5 11.5858 6.80616 11.25 7.18382 11.25H13.5662C13.9438 11.25 14.25 11.5858 14.25 12C14.25 12.4142 13.9438 12.75 13.5662 12.75H7.18382C6.80616 12.75 6.5 12.4142 6.5 12Z" fill="#585874"/>
<path fill-rule="evenodd" clip-rule="evenodd" d="M4.08733 1.86201C4.30845 1.99867 4.44304 2.24007 4.44304 2.5V6C4.44304 6.41421 4.10725 6.75 3.69304 6.75C3.27882 6.75 2.94304 6.41421 2.94304 6V3.70719C2.59124 3.83205 2.19343 3.67783 2.02221 3.33541C1.83697 2.96493 1.98714 2.51442 2.35763 2.32918L3.35763 1.82918C3.59012 1.71293 3.86622 1.72536 4.08733 1.86201Z" fill="#585874"/>
<path fill-rule="evenodd" clip-rule="evenodd" d="M3.38932 10.7405C3.37179 10.7392 3.35418 10.7416 3.33765 10.7476C3.32112 10.7536 3.30603 10.7629 3.29337 10.7751C3.28071 10.7873 3.27077 10.8021 3.26418 10.8184C3.10907 11.2024 2.67198 11.388 2.2879 11.2329C1.90383 11.0778 1.71821 10.6407 1.87332 10.2566C1.95889 10.0448 2.08818 9.85333 2.25274 9.69481C2.41731 9.53629 2.61346 9.41426 2.82839 9.33668C3.04331 9.2591 3.27218 9.22773 3.50006 9.2446C3.72794 9.26146 3.94969 9.3262 4.15085 9.43458C4.35201 9.54296 4.52805 9.69255 4.66748 9.87357C4.80691 10.0546 4.9066 10.263 4.96003 10.4852C5.01347 10.7073 5.01945 10.9383 4.97758 11.1629C4.93572 11.3875 4.84695 11.6008 4.71707 11.7888C4.71167 11.7966 4.70612 11.8043 4.70043 11.8119L3.99825 12.75H4.25C4.66422 12.75 5 13.0858 5 13.5C5 13.9142 4.66422 14.25 4.25 14.25H2.5C2.21605 14.25 1.95645 14.0896 1.82934 13.8357C1.70223 13.5818 1.72942 13.2779 1.89958 13.0506L3.48718 10.9296C3.49487 10.9169 3.50023 10.9028 3.50297 10.8881C3.50619 10.8708 3.50573 10.853 3.50162 10.8359C3.49751 10.8188 3.48984 10.8028 3.47912 10.7889C3.46839 10.775 3.45485 10.7635 3.43938 10.7551C3.4239 10.7468 3.40684 10.7418 3.38932 10.7405Z" fill="#585874"/>
</svg>