<svg width="10" height="12" viewBox="0 0 10 12" fill="none" xmlns="http://www.w3.org/2000/svg">
<path fill-rule="evenodd" clip-rule="evenodd" d="M5.45943 2.24996L2.95943 9.74996H1C0.585786 9.74996 0.25 10.0857 0.25 10.5C0.25 10.9142 0.585786 11.25 1 11.25H3.4827C3.49433 11.2502 3.50594 11.2502 3.51751 11.25H6C6.41421 11.25 6.75 10.9142 6.75 10.5C6.75 10.0857 6.41421 9.74996 6 9.74996H4.54057L7.04057 2.24996H9C9.41421 2.24996 9.75 1.91417 9.75 1.49996C9.75 1.08575 9.41421 0.749959 9 0.749959H6.51729C6.50567 0.749687 6.49406 0.749689 6.48249 0.749959H4C3.58579 0.749959 3.25 1.08575 3.25 1.49996C3.25 1.91417 3.58579 2.24996 4 2.24996H5.45943Z" fill="#585874"/>
</svg>
