<svg width="16" height="16" viewBox="0 0 16 16" fill="none" xmlns="http://www.w3.org/2000/svg">
<path fill-rule="evenodd" clip-rule="evenodd" d="M7 1.75012C9.8995 1.75012 12.25 4.10063 12.25 7.00012C12.25 8.17967 11.861 9.26836 11.2043 10.1449L14.0289 12.9695C14.3218 13.2624 14.3218 13.7373 14.0289 14.0302C13.736 14.3231 13.2612 14.3231 12.9683 14.0302L10.1435 11.2054C9.26715 11.8615 8.17896 12.2501 7 12.2501C4.10051 12.2501 1.75 9.89962 1.75 7.00012C1.75 4.10063 4.10051 1.75012 7 1.75012ZM7 10.7501C9.07107 10.7501 10.75 9.07119 10.75 7.00012C10.75 4.92905 9.07107 3.25012 7 3.25012C4.92893 3.25012 3.25 4.92905 3.25 7.00012C3.25 9.07119 4.92893 10.7501 7 10.7501Z" fill="#585874"/>
</svg>