<svg width="16" height="16" viewBox="0 0 16 16" fill="none" xmlns="http://www.w3.org/2000/svg">
  <path d="M11.7516 8.5003C11.7516 6.43955 10.0533 4.7503 7.93515 4.7503C6.93505 4.7503 6.02702 5.12745 5.34731 5.74408L7.00846 5.73896C7.42267 5.73769 7.75949 6.07244 7.76077 6.48665C7.76205 6.90086 7.42729 7.23768 7.01308 7.23896L3.5131 7.24974C3.09889 7.25101 2.76207 6.91626 2.76079 6.50205L2.75 3.00207C2.74874 2.58785 3.08349 2.25103 3.4977 2.24976C3.91191 2.24848 4.24873 2.58323 4.25 2.99745L4.25529 4.71119C5.21089 3.80606 6.50859 3.2503 7.93515 3.2503C10.8609 3.2503 13.2516 5.59048 13.2516 8.5003C13.2516 11.4101 10.8609 13.7503 7.93515 13.7503C7.52094 13.7503 7.18515 13.4145 7.18515 13.0003C7.18515 12.5861 7.52094 12.2503 7.93515 12.2503C10.0533 12.2503 11.7516 10.561 11.7516 8.5003Z" fill="#585874"/>
</svg>