<svg width="16" height="16" viewBox="0 0 16 16" fill="none" xmlns="http://www.w3.org/2000/svg">
<path fill-rule="evenodd" clip-rule="evenodd" d="M8.97554 12.3783H13.4987C13.9129 12.3783 14.2487 12.7141 14.2487 13.1283C14.2487 13.5426 13.9129 13.8783 13.4987 13.8783H4.91603C4.71711 13.8783 4.52635 13.7993 4.3857 13.6587L2.24476 11.5177L2.24328 11.5163C2.08723 11.3614 1.96331 11.1772 1.87865 10.9743C1.79373 10.7707 1.75 10.5524 1.75 10.3318C1.75 10.1112 1.79373 9.89285 1.87865 9.68929C1.9633 9.4864 2.0872 9.30224 2.24322 9.14739L8.77581 2.61481C8.93066 2.45878 9.11482 2.33488 9.31771 2.25023C9.52127 2.16531 9.73965 2.12158 9.96021 2.12158C10.1808 2.12158 10.3992 2.16531 10.6027 2.25023C10.8055 2.33483 10.9895 2.45863 11.1443 2.61452L11.1461 2.61635L13.7657 5.23013C14.0753 5.5454 14.2487 5.9696 14.2487 6.41143C14.2487 6.85326 14.0753 7.27743 13.7657 7.59269L8.97554 12.3783ZM9.89526 3.63459C9.91584 3.626 9.93791 3.62158 9.96021 3.62158C9.98251 3.62158 10.0046 3.626 10.0252 3.63459C10.0457 3.64317 10.0644 3.65575 10.0801 3.6716L10.0834 3.67489L12.697 6.28277C12.7302 6.31737 12.7487 6.36346 12.7487 6.41143C12.7487 6.45945 12.7301 6.50558 12.6969 6.54019L9.95376 9.28075L7.09247 6.41946L9.83763 3.6743L9.84032 3.6716C9.85601 3.65575 9.87468 3.64317 9.89526 3.63459ZM3.26301 10.2668C3.27159 10.2463 3.28418 10.2276 3.30003 10.2119L6.03181 7.48012L8.89259 10.3409L6.85321 12.3783H5.22669L3.30273 10.4544L3.30002 10.4517C3.28417 10.436 3.27159 10.4173 3.26301 10.3967C3.25442 10.3762 3.25 10.3541 3.25 10.3318C3.25 10.3095 3.25442 10.2874 3.26301 10.2668Z" fill="#585874"/>
</svg>