<svg width="16" height="16" viewBox="0 0 16 16" fill="none" xmlns="http://www.w3.org/2000/svg">
<path fill-rule="evenodd" clip-rule="evenodd" d="M8.46285 8.54926C8.08798 8.37307 7.64126 8.53413 7.46506 8.909C7.28887 9.28387 7.44993 9.7306 7.8248 9.90679C9.42247 10.6577 11.4389 10.2174 12.8174 8.83881C14.501 7.15524 14.8018 4.45921 13.171 2.8284C11.5402 1.1976 8.84416 1.49839 7.16059 3.18196C6.8677 3.47485 6.8677 3.94972 7.16059 4.24262C7.45348 4.53551 7.92836 4.53551 8.22125 4.24262C9.46661 2.99726 11.2027 2.98146 12.1103 3.88906C13.0179 4.79667 13.0021 6.53279 11.7568 7.77815C10.758 8.77693 9.40672 8.99288 8.46285 8.54926ZM7.5363 7.45069C7.91117 7.62689 8.35791 7.46583 8.5341 7.09095C8.71029 6.71608 8.54922 6.26936 8.17436 6.09316C6.57669 5.34225 4.56028 5.78257 3.18171 7.16114C1.49814 8.84471 1.19735 11.5408 2.82815 13.1716C4.45896 14.8024 7.15499 14.5016 8.83856 12.818C9.13146 12.5251 9.13145 12.0503 8.83856 11.7574C8.54567 11.4645 8.0708 11.4645 7.7779 11.7574C6.53255 13.0027 4.79642 13.0185 3.88881 12.1109C2.98121 11.2033 2.99701 9.46716 4.24237 8.2218C5.24114 7.22303 6.59244 7.00707 7.5363 7.45069Z" fill="#585874"/>
</svg>