<svg width="14" height="14" viewBox="0 0 14 14" fill="none" xmlns="http://www.w3.org/2000/svg">
<path d="M9.24991 13.25C9.66413 13.25 9.99992 12.9142 9.99992 12.5V11C9.99992 10.4477 10.4476 10 10.9999 10L12.5 10C12.9142 10 13.25 9.66421 13.25 9.25C13.25 8.83578 12.9142 8.5 12.5 8.5L9.49992 8.5C8.94763 8.5 8.49992 8.94772 8.49992 9.5L8.49991 12.5C8.49991 12.9142 8.8357 13.25 9.24991 13.25Z" fill="black"/>
<path d="M9.24991 13.25C9.66413 13.25 9.99992 12.9142 9.99992 12.5V11C9.99992 10.4477 10.4476 10 10.9999 10L12.5 10C12.9142 10 13.25 9.66421 13.25 9.25C13.25 8.83578 12.9142 8.5 12.5 8.5L9.49992 8.5C8.94763 8.5 8.49992 8.94772 8.49992 9.5L8.49991 12.5C8.49991 12.9142 8.8357 13.25 9.24991 13.25Z" fill="black"/>
<path d="M9.24996 0.75C9.66418 0.75 9.99997 1.08579 9.99997 1.50001V3C9.99997 3.55228 10.4477 4 11 4L12.5 4C12.9142 4 13.25 4.33579 13.25 4.75C13.25 5.16421 12.9142 5.5 12.5 5.5L9.49996 5.5C8.94768 5.5 8.49997 5.05228 8.49996 4.5L8.49996 1.50001C8.49995 1.08579 8.83574 0.75 9.24996 0.75Z" fill="black"/>
<path d="M9.24996 0.75C9.66418 0.75 9.99997 1.08579 9.99997 1.50001V3C9.99997 3.55228 10.4477 4 11 4L12.5 4C12.9142 4 13.25 4.33579 13.25 4.75C13.25 5.16421 12.9142 5.5 12.5 5.5L9.49996 5.5C8.94768 5.5 8.49997 5.05228 8.49996 4.5L8.49996 1.50001C8.49995 1.08579 8.83574 0.75 9.24996 0.75Z" fill="black"/>
<path d="M4.75012 13.25C4.33591 13.25 4.00012 12.9142 4.00012 12.5V11C4.00012 10.4477 3.55241 10 3.00012 10L1.50009 10C1.08587 10 0.750086 9.66421 0.750086 9.25C0.750086 8.83578 1.08587 8.5 1.50009 8.5L4.50012 8.5C5.05241 8.5 5.50012 8.94772 5.50012 9.5L5.50013 12.5C5.50013 12.9142 5.16434 13.25 4.75012 13.25Z" fill="black"/>
<path d="M4.7501 0.75C4.33588 0.75 4.00009 1.08579 4.00009 1.50001V3C4.00009 3.55228 3.55238 4 3.0001 4L1.50006 4C1.08585 4 0.750061 4.33579 0.750061 4.75C0.750061 5.16421 1.08585 5.5 1.50006 5.5L4.5001 5.5C5.05238 5.5 5.5001 5.05228 5.5001 4.5L5.50011 1.50001C5.50011 1.08579 5.16432 0.75 4.7501 0.75Z" fill="black"/>
</svg>