<svg width="14" height="13" viewBox="0 0 14 13" fill="none" xmlns="http://www.w3.org/2000/svg">
<path fill-rule="evenodd" clip-rule="evenodd" d="M3.75 1.5C3.75 1.08579 3.41421 0.75 3 0.75C2.58579 0.75 2.25 1.08579 2.25 1.5V5.5C2.25 6.75978 2.75044 7.96796 3.64124 8.85876C4.53204 9.74956 5.74022 10.25 7 10.25C8.25978 10.25 9.46796 9.74956 10.3588 8.85876C11.2496 7.96796 11.75 6.75978 11.75 5.5V1.5C11.75 1.08579 11.4142 0.75 11 0.75C10.5858 0.75 10.25 1.08579 10.25 1.5V5.5C10.25 6.36195 9.90759 7.1886 9.2981 7.7981C8.6886 8.40759 7.86195 8.75 7 8.75C6.13805 8.75 5.3114 8.40759 4.7019 7.7981C4.09241 7.1886 3.75 6.36195 3.75 5.5V1.5ZM1.5 10.75C1.08579 10.75 0.75 11.0858 0.75 11.5C0.75 11.9142 1.08579 12.25 1.5 12.25H12.5C12.9142 12.25 13.25 11.9142 13.25 11.5C13.25 11.0858 12.9142 10.75 12.5 10.75H1.5Z" fill="#585874"/>
</svg>