<svg width="16" height="16" viewBox="0 0 16 16" fill="none" xmlns="http://www.w3.org/2000/svg">
<path fill-rule="evenodd" clip-rule="evenodd" d="M14.2523 11.7499C14.2523 10.3692 13.133 9.24992 11.7523 9.24992C11.4615 9.24992 11.1823 9.29957 10.9227 9.39086L8.94025 6.76006L11.8112 2.9502C12.0605 2.61939 11.9944 2.14914 11.6636 1.89986C11.3328 1.65058 10.8625 1.71667 10.6132 2.04747L8.00115 5.51383L5.38906 2.04746C5.13978 1.71666 4.66953 1.65057 4.33872 1.89985C4.00791 2.14913 3.94182 2.61938 4.1911 2.95018L7.06205 6.76006L5.07959 9.39087C4.82 9.29958 4.5408 9.24993 4.25 9.24993C2.86929 9.24993 1.75 10.3692 1.75 11.7499C1.75 13.1306 2.86929 14.2499 4.25 14.2499C5.63071 14.2499 6.75 13.1306 6.75 11.7499C6.75 11.2052 6.57575 10.7011 6.27995 10.2904L8.00115 8.00629L9.72234 10.2904C9.42654 10.7011 9.25229 11.2051 9.25229 11.7499C9.25229 13.1306 10.3716 14.2499 11.7523 14.2499C13.133 14.2499 14.2523 13.1306 14.2523 11.7499ZM11.7523 10.7499C11.2 10.7499 10.7523 11.1976 10.7523 11.7499C10.7523 12.3022 11.2 12.7499 11.7523 12.7499C12.3046 12.7499 12.7523 12.3022 12.7523 11.7499C12.7523 11.1976 12.3046 10.7499 11.7523 10.7499ZM4.25 10.7499C4.80228 10.7499 5.25 11.1977 5.25 11.7499C5.25 12.3022 4.80228 12.7499 4.25 12.7499C3.69771 12.7499 3.25 12.3022 3.25 11.7499C3.25 11.1977 3.69771 10.7499 4.25 10.7499Z" fill="#585874"/>
</svg>