<svg width="14" height="12" viewBox="0 0 14 12" fill="none" xmlns="http://www.w3.org/2000/svg">
<path fill-rule="evenodd" clip-rule="evenodd" d="M7.00167 1.75C5.29362 1.75 4.44542 2.70109 4.44542 3.5V3.50875C4.44438 3.59791 4.45764 3.68666 4.4848 3.7716C4.61094 4.16614 4.39336 4.58823 3.99882 4.71437C3.60428 4.84052 3.18219 4.62294 3.05604 4.2284C2.98034 3.99163 2.943 3.74429 2.94542 3.49574C2.94817 1.53455 4.84878 0.25 7.00167 0.25C8.68673 0.25 10.1606 1.00477 10.7707 2.26744C10.9509 2.64039 10.7947 3.08882 10.4217 3.26904C10.0488 3.44926 9.60035 3.29302 9.42013 2.92006C9.13028 2.32023 8.29161 1.75 7.00167 1.75ZM0.75 6C0.75 5.58579 1.08579 5.25 1.5 5.25H7.63262C7.64395 5.24974 7.65531 5.24974 7.66671 5.25H12.5C12.9142 5.25 13.25 5.58579 13.25 6C13.25 6.41421 12.9142 6.75 12.5 6.75H10.6225C11.0065 7.20128 11.25 7.77611 11.25 8.5C11.25 9.49595 10.6832 10.3264 9.91001 10.8784C9.13538 11.4314 8.10395 11.75 7 11.75C5.89605 11.75 4.86462 11.4314 4.08999 10.8784C3.31684 10.3264 2.75 9.49595 2.75 8.5C2.75 8.08579 3.08579 7.75 3.5 7.75C3.91421 7.75 4.25 8.08579 4.25 8.5C4.25 8.8853 4.46754 9.30486 4.96157 9.65757C5.45413 10.0092 6.1727 10.25 7 10.25C7.8273 10.25 8.54587 10.0092 9.03843 9.65757C9.53246 9.30486 9.75 8.8853 9.75 8.5C9.75 8.03617 9.56199 7.73049 9.19445 7.4614C8.80359 7.17523 8.23997 6.95812 7.54176 6.75H1.5C1.08579 6.75 0.75 6.41421 0.75 6Z" fill="#585874"/>
</svg>