<svg width="16" height="16" viewBox="0 0 16 16" fill="none" xmlns="http://www.w3.org/2000/svg">
    <mask id="mask0_3008_308789" style="mask-type:alpha" maskUnits="userSpaceOnUse" x="0" y="0" width="16" height="16">
        <path fill-rule="evenodd" clip-rule="evenodd" d="M8.46285 8.54901C8.08798 8.37282 7.64126 8.53388 7.46506 8.90875C7.28887 9.28362 7.44993 9.73036 7.8248 9.90655C9.42247 10.6574 11.4389 10.2171 12.8174 8.83856C14.501 7.15499 14.8018 4.45896 13.171 2.82815C11.5402 1.19735 8.84416 1.49814 7.16059 3.18171C6.8677 3.4746 6.8677 3.94947 7.16059 4.24237C7.45348 4.53526 7.92836 4.53526 8.22125 4.24237C9.46661 2.99701 11.2027 2.98121 12.1103 3.88881C13.0179 4.79642 13.0021 6.53255 11.7568 7.7779C10.758 8.77668 9.40672 8.99263 8.46285 8.54901ZM7.5363 7.45044C7.91117 7.62664 8.35791 7.46558 8.5341 7.0907C8.71029 6.71583 8.54922 6.26911 8.17436 6.09291C6.57669 5.342 4.56028 5.78232 3.18171 7.16089C1.49814 8.84446 1.19735 11.5405 2.82815 13.1713C4.45896 14.8021 7.15499 14.5013 8.83856 12.8177C9.13146 12.5248 9.13145 12.05 8.83856 11.7571C8.54567 11.4642 8.0708 11.4642 7.7779 11.7571C6.53255 13.0024 4.79642 13.0182 3.88881 12.1106C2.98121 11.203 2.99701 9.46691 4.24237 8.22155C5.24114 7.22278 6.59244 7.00682 7.5363 7.45044Z" fill="black"/>
    </mask>
    <g mask="url(#mask0_3008_308789)">
        <path d="M0 3C0 1.34315 1.34315 0 3 0H13C14.6569 0 16 1.34315 16 3V13C16 14.6569 14.6569 16 13 16H3C1.34315 16 0 14.6569 0 13V3Z" fill="#585874"/>
    </g>
</svg>
