<svg width="16" height="16" viewBox="0 0 16 16" fill="none" xmlns="http://www.w3.org/2000/svg">
<path d="M6.5002 3.69922C6.9002 3.69922 7.2002 3.89922 7.2002 4.39922C7.2002 4.89922 6.8002 5.19922 6.4002 5.19922H3.2002V12.6992H10.7002V9.49922C10.7002 8.99922 11.1002 8.69922 11.5002 8.69922C11.9002 8.69922 12.2002 9.09922 12.3002 9.49922V13.4992C12.3002 13.9992 11.9002 14.2992 11.5002 14.2992H2.5002C2.0002 14.2992 1.7002 13.8992 1.7002 13.4992V4.49922C1.7002 3.99922 2.1002 3.69922 2.5002 3.69922H6.5002ZM13.5002 1.69922C13.6002 1.69922 13.7002 1.79922 13.8002 1.79922C14.0002 1.89922 14.1002 1.99922 14.2002 2.19922C14.2002 2.29922 14.2002 2.39922 14.3002 2.49922V6.49922C14.3002 6.99922 14.0002 7.29922 13.5002 7.29922C13.0002 7.29922 12.7002 6.89922 12.7002 6.49922V4.29922L7.0002 9.99922C6.9002 10.1992 6.7002 10.1992 6.5002 10.1992C6.3002 10.1992 6.1002 10.0992 6.0002 9.99922C5.7002 9.69922 5.7002 9.29922 6.0002 8.99922L11.7002 3.29922H9.5002C9.0002 3.29922 8.7002 2.99922 8.7002 2.49922C8.7002 1.99922 9.1002 1.69922 9.5002 1.69922H13.5002Z"/>
</svg>