<svg xmlns="http://www.w3.org/2000/svg" width="177" height="32" viewBox="0 0 177 32" fill="none">
	<g class="normal">
		<g clip-path="url(#clip0)">
			<path d="M9.49467 11.318L15.1515 8.05072C15.6639 7.75175 16.3043 7.75175 16.8166 8.05072L22.4734 11.318C22.847 11.5315 23.1245 11.8946 23.2419 12.3003C23.3487 11.9373 23.6262 11.6597 23.9997 11.4461L29.9448 8.01869C29.7633 7.70904 29.5072 7.45279 29.187 7.27127L17.0194 0.266934C16.7098 0.0960961 16.3576 0 15.9947 0C15.6318 0 15.2903 0.0960961 14.9701 0.277611L2.80248 7.28195C2.48228 7.46346 2.22612 7.7304 2.04468 8.02936L7.98973 11.4568C8.34195 11.6597 8.63013 11.8839 8.75821 12.2042C8.89696 11.8412 9.14245 11.5209 9.49467 11.318Z" fill="#B9B9CB" />
			<path d="M9.50533 20.7459C9.25984 20.6071 9.06772 20.4042 8.92897 20.18C8.80089 19.9665 8.72618 19.7209 8.69416 19.4646C8.67281 19.4112 8.67281 19.3579 8.67281 19.3258C8.67281 19.3258 8.67281 15.2684 8.67281 13.2291C8.67281 12.6632 8.2779 12.1079 7.78692 11.8303L1.85255 8.41357C1.80985 8.59509 1.77783 8.7766 1.77783 8.9688V22.9668C1.77783 23.7035 2.17275 24.3762 2.80247 24.7499L14.9701 31.7543C15.1515 31.861 15.3543 31.9251 15.5571 31.9678C15.6105 31.9785 15.6745 31.9785 15.7386 31.9891V24.1947C15.5464 24.1627 15.333 24.1093 15.1515 24.0025L9.50533 20.7459Z" fill="#B9B9CB" />
			<path d="M30.1476 8.41357L24.2239 11.8196C23.7329 12.0973 23.3167 12.6525 23.3167 13.2184C23.3167 14.1153 23.3167 15.3859 23.3167 16.5497V19.3045C23.3167 19.3151 23.3167 19.3258 23.3167 19.3258C23.3167 19.3579 23.306 19.4006 23.2953 19.4539C23.2633 19.7209 23.1886 19.9878 23.0392 20.212C22.9004 20.4256 22.719 20.6178 22.4842 20.7459L16.8273 24.0132C16.6458 24.1199 16.4644 24.1733 16.2616 24.1947V31.9891C16.3256 31.9785 16.379 31.9785 16.443 31.9678C16.6458 31.9251 16.838 31.861 17.0301 31.7543L29.1977 24.7499C29.8381 24.3869 30.2223 23.7035 30.2223 22.9668V8.9688C30.2223 8.7766 30.1903 8.59509 30.1476 8.41357Z" fill="#B9B9CB" />
			<path d="M18.4707 18.2403C17.2334 19.6013 15.1259 19.706 13.7628 18.4706C12.3998 17.2352 12.2949 15.1204 13.5217 13.7594C14.7589 12.3983 16.8664 12.2937 18.2295 13.529C19.603 14.7644 19.7079 16.8793 18.4707 18.2403Z" fill="#B9B9CB" /> </g>
		<path d="M44.464 10.8C46.0747 10.8 47.3067 11.0933 48.16 11.68C49.024 12.2667 49.456 13.184 49.456 14.432C49.456 15.0827 49.3387 15.6427 49.104 16.112C48.88 16.5707 48.5493 16.9493 48.112 17.248C47.6747 17.536 47.1413 17.7493 46.512 17.888C45.8827 18.0267 45.1627 18.096 44.352 18.096H43.344V22H41.328V11.072C41.7973 10.9653 42.3147 10.896 42.88 10.864C43.456 10.8213 43.984 10.8 44.464 10.8ZM44.608 12.544C44.096 12.544 43.6747 12.56 43.344 12.592V16.368H44.32C45.2907 16.368 46.0373 16.2347 46.56 15.968C47.0827 15.6907 47.344 15.1733 47.344 14.416C47.344 14.0533 47.2747 13.7493 47.136 13.504C46.9973 13.2587 46.8053 13.0667 46.56 12.928C46.3147 12.7893 46.0213 12.6933 45.68 12.64C45.3493 12.576 44.992 12.544 44.608 12.544ZM53.9847 22.16C53.4087 22.1493 52.9287 22.0853 52.5447 21.968C52.1714 21.8507 51.8727 21.6853 51.6487 21.472C51.4247 21.248 51.2647 20.976 51.1687 20.656C51.0834 20.3253 51.0407 19.952 51.0407 19.536V9.904L52.9767 9.584V19.168C52.9767 19.4027 52.9927 19.6 53.0247 19.76C53.0674 19.92 53.1367 20.0587 53.2327 20.176C53.3287 20.2827 53.4567 20.368 53.6168 20.432C53.7874 20.4853 54.0007 20.528 54.2568 20.56L53.9847 22.16ZM58.6388 20.64C59.2361 20.64 59.6894 20.608 59.9988 20.544V18.4C59.8921 18.368 59.7374 18.336 59.5348 18.304C59.3321 18.272 59.1081 18.256 58.8628 18.256C58.6494 18.256 58.4308 18.272 58.2068 18.304C57.9934 18.336 57.7961 18.3947 57.6148 18.48C57.4441 18.5653 57.3054 18.688 57.1988 18.848C57.0921 18.9973 57.0388 19.1893 57.0388 19.424C57.0388 19.8827 57.1828 20.2027 57.4708 20.384C57.7588 20.5547 58.1481 20.64 58.6388 20.64ZM58.4788 13.424C59.1188 13.424 59.6574 13.504 60.0948 13.664C60.5321 13.824 60.8788 14.048 61.1348 14.336C61.4014 14.624 61.5881 14.976 61.6948 15.392C61.8121 15.7973 61.8708 16.2453 61.8708 16.736V21.808C61.5721 21.872 61.1188 21.9467 60.5108 22.032C59.9134 22.128 59.2361 22.176 58.4788 22.176C57.9774 22.176 57.5188 22.128 57.1028 22.032C56.6868 21.936 56.3294 21.7813 56.0308 21.568C55.7428 21.3547 55.5134 21.0773 55.3428 20.736C55.1828 20.3947 55.1028 19.9733 55.1028 19.472C55.1028 18.992 55.1934 18.5867 55.3748 18.256C55.5668 17.9253 55.8228 17.6587 56.1428 17.456C56.4628 17.2427 56.8308 17.0933 57.2468 17.008C57.6734 16.912 58.1161 16.864 58.5748 16.864C58.7881 16.864 59.0121 16.88 59.2468 16.912C59.4814 16.9333 59.7321 16.976 59.9988 17.04V16.72C59.9988 16.496 59.9721 16.2827 59.9188 16.08C59.8654 15.8773 59.7694 15.7013 59.6308 15.552C59.5028 15.392 59.3268 15.2693 59.1028 15.184C58.8894 15.0987 58.6174 15.056 58.2868 15.056C57.8388 15.056 57.4281 15.088 57.0548 15.152C56.6814 15.216 56.3774 15.2907 56.1428 15.376L55.9028 13.808C56.1481 13.7227 56.5054 13.6373 56.9748 13.552C57.4441 13.4667 57.9454 13.424 58.4788 13.424ZM64.0176 11.424L65.9536 11.104V13.632H68.9296V15.248H65.9536V18.656C65.9536 19.328 66.0603 19.808 66.2736 20.096C66.487 20.384 66.8496 20.528 67.3616 20.528C67.7136 20.528 68.023 20.4907 68.2896 20.416C68.567 20.3413 68.7856 20.272 68.9456 20.208L69.2656 21.744C69.0416 21.84 68.7483 21.936 68.3856 22.032C68.023 22.1387 67.5963 22.192 67.1056 22.192C66.5083 22.192 66.007 22.112 65.6016 21.952C65.207 21.792 64.8923 21.5627 64.6576 21.264C64.423 20.9547 64.2576 20.5867 64.1616 20.16C64.0656 19.7227 64.0176 19.2267 64.0176 18.672V11.424ZM74.0811 9.584C74.5291 9.584 74.9238 9.62667 75.2651 9.712C75.6065 9.78667 75.8625 9.856 76.0331 9.92L75.6651 11.52C75.4838 11.4347 75.2705 11.3653 75.0251 11.312C74.7905 11.2587 74.5345 11.232 74.2571 11.232C73.9478 11.232 73.6865 11.28 73.4731 11.376C73.2598 11.4613 73.0891 11.584 72.9611 11.744C72.8331 11.904 72.7425 12.1013 72.6891 12.336C72.6358 12.56 72.6091 12.8053 72.6091 13.072V13.632H75.6491V15.248H72.6091V22H70.6731V13.04C70.6731 11.9627 70.9558 11.12 71.5211 10.512C72.0865 9.89333 72.9398 9.584 74.0811 9.584ZM84.3631 17.808C84.3631 18.4693 84.2671 19.072 84.0751 19.616C83.8831 20.16 83.6111 20.624 83.2591 21.008C82.9071 21.392 82.4805 21.6907 81.9791 21.904C81.4885 22.1173 80.9445 22.224 80.3471 22.224C79.7498 22.224 79.2058 22.1173 78.7151 21.904C78.2245 21.6907 77.8031 21.392 77.4511 21.008C77.0991 20.624 76.8218 20.16 76.6191 19.616C76.4271 19.072 76.3311 18.4693 76.3311 17.808C76.3311 17.1467 76.4271 16.5493 76.6191 16.016C76.8218 15.472 77.0991 15.008 77.4511 14.624C77.8138 14.24 78.2405 13.9467 78.7311 13.744C79.2218 13.5307 79.7605 13.424 80.3471 13.424C80.9338 13.424 81.4725 13.5307 81.9631 13.744C82.4645 13.9467 82.8911 14.24 83.2431 14.624C83.5951 15.008 83.8671 15.472 84.0591 16.016C84.2618 16.5493 84.3631 17.1467 84.3631 17.808ZM82.3791 17.808C82.3791 16.976 82.1978 16.32 81.8351 15.84C81.4831 15.3493 80.9871 15.104 80.3471 15.104C79.7071 15.104 79.2058 15.3493 78.8431 15.84C78.4911 16.32 78.3151 16.976 78.3151 17.808C78.3151 18.6507 78.4911 19.3173 78.8431 19.808C79.2058 20.2987 79.7071 20.544 80.3471 20.544C80.9871 20.544 81.4831 20.2987 81.8351 19.808C82.1978 19.3173 82.3791 18.6507 82.3791 17.808ZM90.9976 15.376C90.8376 15.3227 90.6136 15.2693 90.3256 15.216C90.0483 15.152 89.723 15.12 89.3496 15.12C89.1363 15.12 88.907 15.1413 88.6616 15.184C88.427 15.2267 88.2616 15.264 88.1656 15.296V22H86.2296V14.032C86.603 13.8933 87.067 13.7653 87.6216 13.648C88.187 13.52 88.811 13.456 89.4936 13.456C89.6216 13.456 89.771 13.4667 89.9416 13.488C90.1123 13.4987 90.283 13.52 90.4536 13.552C90.6243 13.5733 90.7896 13.6053 90.9496 13.648C91.1096 13.68 91.2376 13.712 91.3336 13.744L90.9976 15.376ZM97.3228 17.6C97.3228 16.7253 97.2108 16.096 96.9868 15.712C96.7734 15.3173 96.3681 15.12 95.7708 15.12C95.5574 15.12 95.3228 15.136 95.0668 15.168C94.8108 15.2 94.6188 15.2267 94.4908 15.248V22H92.5548V13.904C92.9281 13.7973 93.4134 13.696 94.0108 13.6C94.6188 13.504 95.2588 13.456 95.9308 13.456C96.5068 13.456 96.9761 13.5307 97.3388 13.68C97.7121 13.8293 98.0214 14.0267 98.2668 14.272C98.3841 14.1867 98.5334 14.096 98.7148 14C98.8961 13.904 99.0988 13.8187 99.3228 13.744C99.5468 13.6587 99.7814 13.5893 100.027 13.536C100.283 13.4827 100.539 13.456 100.795 13.456C101.445 13.456 101.979 13.552 102.395 13.744C102.821 13.9253 103.152 14.1867 103.387 14.528C103.632 14.8587 103.797 15.264 103.883 15.744C103.979 16.2133 104.027 16.7307 104.027 17.296V22H102.091V17.6C102.091 16.7253 101.984 16.096 101.771 15.712C101.557 15.3173 101.147 15.12 100.539 15.12C100.229 15.12 99.9361 15.1733 99.6588 15.28C99.3814 15.376 99.1734 15.472 99.0348 15.568C99.1201 15.8347 99.1788 16.1173 99.2108 16.416C99.2428 16.7147 99.2588 17.0347 99.2588 17.376V22H97.3228V17.6ZM111.989 20.336C112.106 20.3467 112.261 20.3573 112.453 20.368C112.645 20.368 112.906 20.368 113.237 20.368C114.592 20.368 115.6 20.0267 116.261 19.344C116.933 18.6507 117.269 17.6853 117.269 16.448C117.269 15.1893 116.944 14.224 116.293 13.552C115.642 12.88 114.634 12.544 113.269 12.544C112.672 12.544 112.245 12.56 111.989 12.592V20.336ZM119.381 16.448C119.381 17.408 119.232 18.2453 118.933 18.96C118.634 19.664 118.208 20.256 117.653 20.736C117.109 21.2053 116.448 21.5573 115.669 21.792C114.901 22.016 114.048 22.128 113.109 22.128C112.661 22.128 112.154 22.1067 111.589 22.064C111.024 22.032 110.485 21.9573 109.973 21.84V11.072C110.485 10.9547 111.029 10.88 111.605 10.848C112.181 10.816 112.693 10.8 113.141 10.8C114.069 10.8 114.917 10.912 115.685 11.136C116.453 11.3493 117.109 11.6907 117.653 12.16C118.208 12.6187 118.634 13.2053 118.933 13.92C119.232 14.624 119.381 15.4667 119.381 16.448ZM120.894 17.856C120.894 17.12 121.001 16.4747 121.214 15.92C121.438 15.3653 121.732 14.9067 122.094 14.544C122.457 14.1707 122.873 13.8933 123.342 13.712C123.812 13.52 124.292 13.424 124.782 13.424C125.934 13.424 126.83 13.7813 127.47 14.496C128.121 15.2107 128.446 16.2773 128.446 17.696C128.446 17.8027 128.441 17.9253 128.43 18.064C128.43 18.192 128.425 18.3093 128.414 18.416H122.894C122.948 19.088 123.182 19.6107 123.598 19.984C124.025 20.3467 124.638 20.528 125.438 20.528C125.908 20.528 126.334 20.4853 126.718 20.4C127.113 20.3147 127.422 20.224 127.646 20.128L127.902 21.712C127.796 21.7653 127.646 21.824 127.454 21.888C127.273 21.9413 127.06 21.9893 126.814 22.032C126.58 22.0853 126.324 22.128 126.046 22.16C125.769 22.192 125.486 22.208 125.198 22.208C124.462 22.208 123.822 22.1013 123.278 21.888C122.734 21.664 122.286 21.36 121.934 20.976C121.582 20.5813 121.321 20.1227 121.15 19.6C120.98 19.0667 120.894 18.4853 120.894 17.856ZM126.51 16.992C126.51 16.7253 126.473 16.4747 126.398 16.24C126.324 15.9947 126.212 15.7867 126.062 15.616C125.924 15.4347 125.748 15.296 125.534 15.2C125.332 15.0933 125.086 15.04 124.798 15.04C124.5 15.04 124.238 15.0987 124.014 15.216C123.79 15.3227 123.598 15.4667 123.438 15.648C123.289 15.8293 123.172 16.0373 123.086 16.272C123.001 16.5067 122.942 16.7467 122.91 16.992H126.51ZM132.515 22C131.982 20.9013 131.432 19.6427 130.867 18.224C130.312 16.7947 129.806 15.264 129.347 13.632H131.411C131.528 14.1013 131.662 14.608 131.811 15.152C131.971 15.6853 132.136 16.224 132.307 16.768C132.488 17.3013 132.67 17.824 132.851 18.336C133.043 18.8373 133.219 19.2907 133.379 19.696C133.539 19.2907 133.71 18.8373 133.891 18.336C134.072 17.824 134.248 17.3013 134.419 16.768C134.6 16.224 134.771 15.6853 134.931 15.152C135.091 14.608 135.23 14.1013 135.347 13.632H137.347C136.888 15.264 136.376 16.7947 135.811 18.224C135.256 19.6427 134.712 20.9013 134.179 22H132.515ZM146.489 10.912V12.656H143.081V22H141.049V12.656H137.641V10.912H146.489ZM154.495 17.808C154.495 18.4693 154.399 19.072 154.207 19.616C154.015 20.16 153.743 20.624 153.391 21.008C153.039 21.392 152.613 21.6907 152.111 21.904C151.621 22.1173 151.077 22.224 150.479 22.224C149.882 22.224 149.338 22.1173 148.847 21.904C148.357 21.6907 147.935 21.392 147.583 21.008C147.231 20.624 146.954 20.16 146.751 19.616C146.559 19.072 146.463 18.4693 146.463 17.808C146.463 17.1467 146.559 16.5493 146.751 16.016C146.954 15.472 147.231 15.008 147.583 14.624C147.946 14.24 148.373 13.9467 148.863 13.744C149.354 13.5307 149.893 13.424 150.479 13.424C151.066 13.424 151.605 13.5307 152.095 13.744C152.597 13.9467 153.023 14.24 153.375 14.624C153.727 15.008 153.999 15.472 154.191 16.016C154.394 16.5493 154.495 17.1467 154.495 17.808ZM152.511 17.808C152.511 16.976 152.33 16.32 151.967 15.84C151.615 15.3493 151.119 15.104 150.479 15.104C149.839 15.104 149.338 15.3493 148.975 15.84C148.623 16.32 148.447 16.976 148.447 17.808C148.447 18.6507 148.623 19.3173 148.975 19.808C149.338 20.2987 149.839 20.544 150.479 20.544C151.119 20.544 151.615 20.2987 151.967 19.808C152.33 19.3173 152.511 18.6507 152.511 17.808ZM163.93 17.808C163.93 18.4693 163.834 19.072 163.642 19.616C163.45 20.16 163.178 20.624 162.826 21.008C162.474 21.392 162.047 21.6907 161.546 21.904C161.055 22.1173 160.511 22.224 159.914 22.224C159.317 22.224 158.773 22.1173 158.282 21.904C157.791 21.6907 157.37 21.392 157.018 21.008C156.666 20.624 156.389 20.16 156.186 19.616C155.994 19.072 155.898 18.4693 155.898 17.808C155.898 17.1467 155.994 16.5493 156.186 16.016C156.389 15.472 156.666 15.008 157.018 14.624C157.381 14.24 157.807 13.9467 158.298 13.744C158.789 13.5307 159.327 13.424 159.914 13.424C160.501 13.424 161.039 13.5307 161.53 13.744C162.031 13.9467 162.458 14.24 162.81 14.624C163.162 15.008 163.434 15.472 163.626 16.016C163.829 16.5493 163.93 17.1467 163.93 17.808ZM161.946 17.808C161.946 16.976 161.765 16.32 161.402 15.84C161.05 15.3493 160.554 15.104 159.914 15.104C159.274 15.104 158.773 15.3493 158.41 15.84C158.058 16.32 157.882 16.976 157.882 17.808C157.882 18.6507 158.058 19.3173 158.41 19.808C158.773 20.2987 159.274 20.544 159.914 20.544C160.554 20.544 161.05 20.2987 161.402 19.808C161.765 19.3173 161.946 18.6507 161.946 17.808ZM168.708 22.16C168.132 22.1493 167.652 22.0853 167.268 21.968C166.895 21.8507 166.596 21.6853 166.372 21.472C166.148 21.248 165.988 20.976 165.892 20.656C165.807 20.3253 165.764 19.952 165.764 19.536V9.904L167.7 9.584V19.168C167.7 19.4027 167.716 19.6 167.748 19.76C167.791 19.92 167.86 20.0587 167.956 20.176C168.052 20.2827 168.18 20.368 168.34 20.432C168.511 20.4853 168.724 20.528 168.98 20.56L168.708 22.16ZM172.514 20.608C173.026 20.608 173.4 20.5493 173.634 20.432C173.869 20.304 173.986 20.0907 173.986 19.792C173.986 19.5147 173.858 19.2853 173.602 19.104C173.357 18.9227 172.946 18.7253 172.37 18.512C172.018 18.384 171.693 18.2507 171.394 18.112C171.106 17.9627 170.856 17.792 170.642 17.6C170.429 17.408 170.258 17.1787 170.13 16.912C170.013 16.6347 169.954 16.2987 169.954 15.904C169.954 15.136 170.237 14.5333 170.802 14.096C171.368 13.648 172.136 13.424 173.106 13.424C173.597 13.424 174.066 13.472 174.514 13.568C174.962 13.6533 175.298 13.7387 175.522 13.824L175.17 15.392C174.957 15.296 174.685 15.2107 174.354 15.136C174.024 15.0507 173.64 15.008 173.202 15.008C172.808 15.008 172.488 15.0773 172.242 15.216C171.997 15.344 171.874 15.5467 171.874 15.824C171.874 15.9627 171.896 16.0853 171.938 16.192C171.992 16.2987 172.077 16.4 172.194 16.496C172.312 16.5813 172.466 16.672 172.658 16.768C172.85 16.8533 173.085 16.944 173.362 17.04C173.821 17.2107 174.21 17.3813 174.53 17.552C174.85 17.712 175.112 17.8987 175.314 18.112C175.528 18.3147 175.682 18.5493 175.778 18.816C175.874 19.0827 175.922 19.4027 175.922 19.776C175.922 20.576 175.624 21.184 175.026 21.6C174.44 22.0053 173.597 22.208 172.498 22.208C171.762 22.208 171.17 22.144 170.722 22.016C170.274 21.8987 169.96 21.8027 169.778 21.728L170.114 20.112C170.402 20.2293 170.744 20.3413 171.138 20.448C171.544 20.5547 172.002 20.608 172.514 20.608Z" fill="#B9B9CB" />
		<defs>
			<clipPath id="clip0">
				<rect width="28.4444" height="32" fill="white" transform="translate(1.77783)" /> </clipPath>
		</defs>
	</g>
	<g class="hover">
        <g clip-path="url(#clip0)">
            <path d="M16.4299 24.1762H16.4372V24.1689L16.4299 24.1762Z" fill="#F4DAA8" />
            <path d="M8.73593 12.3531C8.8525 11.9467 9.12208 11.591 9.50095 11.3661L15.1622 8.11452C15.6795 7.81695 16.3133 7.81695 16.8306 8.11452L22.4918 11.3661C22.878 11.5838 23.1476 11.9467 23.2642 12.3604C23.3734 11.9612 23.6357 11.6201 24 11.4096L29.9454 7.9984V8.00565L29.9527 7.9984C29.7778 7.69357 29.5155 7.43228 29.1949 7.25083L17.0274 0.268753C16.3935 -0.0941415 15.6139 -0.0941415 14.9727 0.268753L2.80514 7.25083C2.48456 7.43228 2.22955 7.69357 2.05469 7.9984L8.00004 11.4096C8.36434 11.6201 8.62664 11.9612 8.73593 12.3531Z" fill="url(#paint0_linear)" />
            <path d="M15.1622 24.0094L9.50096 20.7579C8.98366 20.4603 8.67036 19.916 8.67036 19.3208V14.5234V12.8105C8.67036 12.6508 8.69222 12.4984 8.73594 12.3533C8.62665 11.9613 8.36435 11.6202 8.00005 11.4097L2.0547 7.99854C1.87255 8.30337 1.77783 8.659 1.77783 9.0219V22.9715C1.77783 23.7046 2.17127 24.3796 2.80515 24.7497L14.9727 31.7318C15.286 31.9133 15.6358 32.0004 15.9928 32.0004V24.2344C15.7086 24.2344 15.4172 24.1618 15.1622 24.0094Z" fill="url(#paint1_linear)" />
            <path d="M29.9527 8.00537C29.9454 8.00537 29.9454 8.00537 29.9527 8.00537L24.0001 11.4093C23.6358 11.6198 23.3735 11.9682 23.2642 12.3601C23.3079 12.5053 23.3298 12.6504 23.3298 12.8028V14.5157V19.3131C23.3298 19.9083 23.0092 20.4526 22.4992 20.7502L16.838 24.0017C16.583 24.1469 16.2988 24.2195 16.0146 24.2267V31.9927C16.3644 31.9927 16.7141 31.8983 17.0347 31.7241L29.2023 24.742C29.8361 24.3791 30.2296 23.6969 30.2296 22.9639V9.02147C30.2223 8.65858 30.1276 8.3102 29.9527 8.00537Z" fill="url(#paint2_linear)" />
            <path d="M18.4773 17.9633C17.2386 19.3278 15.133 19.4294 13.7705 18.1956C12.408 16.9617 12.2988 14.8569 13.5374 13.4925C14.776 12.128 16.8816 12.0264 18.2441 13.2602C19.6066 14.4941 19.7086 16.5988 18.4773 17.9633Z" fill="url(#paint3_radial)" /> </g>
        <path d="M44.464 10.8C46.0747 10.8 47.3067 11.0933 48.16 11.68C49.024 12.2667 49.456 13.184 49.456 14.432C49.456 15.0827 49.3387 15.6427 49.104 16.112C48.88 16.5707 48.5493 16.9493 48.112 17.248C47.6747 17.536 47.1413 17.7493 46.512 17.888C45.8827 18.0267 45.1627 18.096 44.352 18.096H43.344V22H41.328V11.072C41.7973 10.9653 42.3147 10.896 42.88 10.864C43.456 10.8213 43.984 10.8 44.464 10.8ZM44.608 12.544C44.096 12.544 43.6747 12.56 43.344 12.592V16.368H44.32C45.2907 16.368 46.0373 16.2347 46.56 15.968C47.0827 15.6907 47.344 15.1733 47.344 14.416C47.344 14.0533 47.2747 13.7493 47.136 13.504C46.9973 13.2587 46.8053 13.0667 46.56 12.928C46.3147 12.7893 46.0213 12.6933 45.68 12.64C45.3493 12.576 44.992 12.544 44.608 12.544ZM53.9847 22.16C53.4087 22.1493 52.9287 22.0853 52.5447 21.968C52.1714 21.8507 51.8727 21.6853 51.6487 21.472C51.4247 21.248 51.2647 20.976 51.1687 20.656C51.0834 20.3253 51.0407 19.952 51.0407 19.536V9.904L52.9767 9.584V19.168C52.9767 19.4027 52.9927 19.6 53.0247 19.76C53.0674 19.92 53.1367 20.0587 53.2327 20.176C53.3287 20.2827 53.4567 20.368 53.6168 20.432C53.7874 20.4853 54.0007 20.528 54.2568 20.56L53.9847 22.16ZM58.6388 20.64C59.2361 20.64 59.6894 20.608 59.9988 20.544V18.4C59.8921 18.368 59.7374 18.336 59.5348 18.304C59.3321 18.272 59.1081 18.256 58.8628 18.256C58.6494 18.256 58.4308 18.272 58.2068 18.304C57.9934 18.336 57.7961 18.3947 57.6148 18.48C57.4441 18.5653 57.3054 18.688 57.1988 18.848C57.0921 18.9973 57.0388 19.1893 57.0388 19.424C57.0388 19.8827 57.1828 20.2027 57.4708 20.384C57.7588 20.5547 58.1481 20.64 58.6388 20.64ZM58.4788 13.424C59.1188 13.424 59.6574 13.504 60.0948 13.664C60.5321 13.824 60.8788 14.048 61.1348 14.336C61.4014 14.624 61.5881 14.976 61.6948 15.392C61.8121 15.7973 61.8708 16.2453 61.8708 16.736V21.808C61.5721 21.872 61.1188 21.9467 60.5108 22.032C59.9134 22.128 59.2361 22.176 58.4788 22.176C57.9774 22.176 57.5188 22.128 57.1028 22.032C56.6868 21.936 56.3294 21.7813 56.0308 21.568C55.7428 21.3547 55.5134 21.0773 55.3428 20.736C55.1828 20.3947 55.1028 19.9733 55.1028 19.472C55.1028 18.992 55.1934 18.5867 55.3748 18.256C55.5668 17.9253 55.8228 17.6587 56.1428 17.456C56.4628 17.2427 56.8308 17.0933 57.2468 17.008C57.6734 16.912 58.1161 16.864 58.5748 16.864C58.7881 16.864 59.0121 16.88 59.2468 16.912C59.4814 16.9333 59.7321 16.976 59.9988 17.04V16.72C59.9988 16.496 59.9721 16.2827 59.9188 16.08C59.8654 15.8773 59.7694 15.7013 59.6308 15.552C59.5028 15.392 59.3268 15.2693 59.1028 15.184C58.8894 15.0987 58.6174 15.056 58.2868 15.056C57.8388 15.056 57.4281 15.088 57.0548 15.152C56.6814 15.216 56.3774 15.2907 56.1428 15.376L55.9028 13.808C56.1481 13.7227 56.5054 13.6373 56.9748 13.552C57.4441 13.4667 57.9454 13.424 58.4788 13.424ZM64.0176 11.424L65.9536 11.104V13.632H68.9296V15.248H65.9536V18.656C65.9536 19.328 66.0603 19.808 66.2736 20.096C66.487 20.384 66.8496 20.528 67.3616 20.528C67.7136 20.528 68.023 20.4907 68.2896 20.416C68.567 20.3413 68.7856 20.272 68.9456 20.208L69.2656 21.744C69.0416 21.84 68.7483 21.936 68.3856 22.032C68.023 22.1387 67.5963 22.192 67.1056 22.192C66.5083 22.192 66.007 22.112 65.6016 21.952C65.207 21.792 64.8923 21.5627 64.6576 21.264C64.423 20.9547 64.2576 20.5867 64.1616 20.16C64.0656 19.7227 64.0176 19.2267 64.0176 18.672V11.424ZM74.0811 9.584C74.5291 9.584 74.9238 9.62667 75.2651 9.712C75.6065 9.78667 75.8625 9.856 76.0331 9.92L75.6651 11.52C75.4838 11.4347 75.2705 11.3653 75.0251 11.312C74.7905 11.2587 74.5345 11.232 74.2571 11.232C73.9478 11.232 73.6865 11.28 73.4731 11.376C73.2598 11.4613 73.0891 11.584 72.9611 11.744C72.8331 11.904 72.7425 12.1013 72.6891 12.336C72.6358 12.56 72.6091 12.8053 72.6091 13.072V13.632H75.6491V15.248H72.6091V22H70.6731V13.04C70.6731 11.9627 70.9558 11.12 71.5211 10.512C72.0865 9.89333 72.9398 9.584 74.0811 9.584ZM84.3631 17.808C84.3631 18.4693 84.2671 19.072 84.0751 19.616C83.8831 20.16 83.6111 20.624 83.2591 21.008C82.9071 21.392 82.4805 21.6907 81.9791 21.904C81.4885 22.1173 80.9445 22.224 80.3471 22.224C79.7498 22.224 79.2058 22.1173 78.7151 21.904C78.2245 21.6907 77.8031 21.392 77.4511 21.008C77.0991 20.624 76.8218 20.16 76.6191 19.616C76.4271 19.072 76.3311 18.4693 76.3311 17.808C76.3311 17.1467 76.4271 16.5493 76.6191 16.016C76.8218 15.472 77.0991 15.008 77.4511 14.624C77.8138 14.24 78.2405 13.9467 78.7311 13.744C79.2218 13.5307 79.7605 13.424 80.3471 13.424C80.9338 13.424 81.4725 13.5307 81.9631 13.744C82.4645 13.9467 82.8911 14.24 83.2431 14.624C83.5951 15.008 83.8671 15.472 84.0591 16.016C84.2618 16.5493 84.3631 17.1467 84.3631 17.808ZM82.3791 17.808C82.3791 16.976 82.1978 16.32 81.8351 15.84C81.4831 15.3493 80.9871 15.104 80.3471 15.104C79.7071 15.104 79.2058 15.3493 78.8431 15.84C78.4911 16.32 78.3151 16.976 78.3151 17.808C78.3151 18.6507 78.4911 19.3173 78.8431 19.808C79.2058 20.2987 79.7071 20.544 80.3471 20.544C80.9871 20.544 81.4831 20.2987 81.8351 19.808C82.1978 19.3173 82.3791 18.6507 82.3791 17.808ZM90.9976 15.376C90.8376 15.3227 90.6136 15.2693 90.3256 15.216C90.0483 15.152 89.723 15.12 89.3496 15.12C89.1363 15.12 88.907 15.1413 88.6616 15.184C88.427 15.2267 88.2616 15.264 88.1656 15.296V22H86.2296V14.032C86.603 13.8933 87.067 13.7653 87.6216 13.648C88.187 13.52 88.811 13.456 89.4936 13.456C89.6216 13.456 89.771 13.4667 89.9416 13.488C90.1123 13.4987 90.283 13.52 90.4536 13.552C90.6243 13.5733 90.7896 13.6053 90.9496 13.648C91.1096 13.68 91.2376 13.712 91.3336 13.744L90.9976 15.376ZM97.3228 17.6C97.3228 16.7253 97.2108 16.096 96.9868 15.712C96.7734 15.3173 96.3681 15.12 95.7708 15.12C95.5574 15.12 95.3228 15.136 95.0668 15.168C94.8108 15.2 94.6188 15.2267 94.4908 15.248V22H92.5548V13.904C92.9281 13.7973 93.4134 13.696 94.0108 13.6C94.6188 13.504 95.2588 13.456 95.9308 13.456C96.5068 13.456 96.9761 13.5307 97.3388 13.68C97.7121 13.8293 98.0214 14.0267 98.2668 14.272C98.3841 14.1867 98.5334 14.096 98.7148 14C98.8961 13.904 99.0988 13.8187 99.3228 13.744C99.5468 13.6587 99.7814 13.5893 100.027 13.536C100.283 13.4827 100.539 13.456 100.795 13.456C101.445 13.456 101.979 13.552 102.395 13.744C102.821 13.9253 103.152 14.1867 103.387 14.528C103.632 14.8587 103.797 15.264 103.883 15.744C103.979 16.2133 104.027 16.7307 104.027 17.296V22H102.091V17.6C102.091 16.7253 101.984 16.096 101.771 15.712C101.557 15.3173 101.147 15.12 100.539 15.12C100.229 15.12 99.9361 15.1733 99.6588 15.28C99.3814 15.376 99.1734 15.472 99.0348 15.568C99.1201 15.8347 99.1788 16.1173 99.2108 16.416C99.2428 16.7147 99.2588 17.0347 99.2588 17.376V22H97.3228V17.6ZM111.989 20.336C112.106 20.3467 112.261 20.3573 112.453 20.368C112.645 20.368 112.906 20.368 113.237 20.368C114.592 20.368 115.6 20.0267 116.261 19.344C116.933 18.6507 117.269 17.6853 117.269 16.448C117.269 15.1893 116.944 14.224 116.293 13.552C115.642 12.88 114.634 12.544 113.269 12.544C112.672 12.544 112.245 12.56 111.989 12.592V20.336ZM119.381 16.448C119.381 17.408 119.232 18.2453 118.933 18.96C118.634 19.664 118.208 20.256 117.653 20.736C117.109 21.2053 116.448 21.5573 115.669 21.792C114.901 22.016 114.048 22.128 113.109 22.128C112.661 22.128 112.154 22.1067 111.589 22.064C111.024 22.032 110.485 21.9573 109.973 21.84V11.072C110.485 10.9547 111.029 10.88 111.605 10.848C112.181 10.816 112.693 10.8 113.141 10.8C114.069 10.8 114.917 10.912 115.685 11.136C116.453 11.3493 117.109 11.6907 117.653 12.16C118.208 12.6187 118.634 13.2053 118.933 13.92C119.232 14.624 119.381 15.4667 119.381 16.448ZM120.894 17.856C120.894 17.12 121.001 16.4747 121.214 15.92C121.438 15.3653 121.732 14.9067 122.094 14.544C122.457 14.1707 122.873 13.8933 123.342 13.712C123.812 13.52 124.292 13.424 124.782 13.424C125.934 13.424 126.83 13.7813 127.47 14.496C128.121 15.2107 128.446 16.2773 128.446 17.696C128.446 17.8027 128.441 17.9253 128.43 18.064C128.43 18.192 128.425 18.3093 128.414 18.416H122.894C122.948 19.088 123.182 19.6107 123.598 19.984C124.025 20.3467 124.638 20.528 125.438 20.528C125.908 20.528 126.334 20.4853 126.718 20.4C127.113 20.3147 127.422 20.224 127.646 20.128L127.902 21.712C127.796 21.7653 127.646 21.824 127.454 21.888C127.273 21.9413 127.06 21.9893 126.814 22.032C126.58 22.0853 126.324 22.128 126.046 22.16C125.769 22.192 125.486 22.208 125.198 22.208C124.462 22.208 123.822 22.1013 123.278 21.888C122.734 21.664 122.286 21.36 121.934 20.976C121.582 20.5813 121.321 20.1227 121.15 19.6C120.98 19.0667 120.894 18.4853 120.894 17.856ZM126.51 16.992C126.51 16.7253 126.473 16.4747 126.398 16.24C126.324 15.9947 126.212 15.7867 126.062 15.616C125.924 15.4347 125.748 15.296 125.534 15.2C125.332 15.0933 125.086 15.04 124.798 15.04C124.5 15.04 124.238 15.0987 124.014 15.216C123.79 15.3227 123.598 15.4667 123.438 15.648C123.289 15.8293 123.172 16.0373 123.086 16.272C123.001 16.5067 122.942 16.7467 122.91 16.992H126.51ZM132.515 22C131.982 20.9013 131.432 19.6427 130.867 18.224C130.312 16.7947 129.806 15.264 129.347 13.632H131.411C131.528 14.1013 131.662 14.608 131.811 15.152C131.971 15.6853 132.136 16.224 132.307 16.768C132.488 17.3013 132.67 17.824 132.851 18.336C133.043 18.8373 133.219 19.2907 133.379 19.696C133.539 19.2907 133.71 18.8373 133.891 18.336C134.072 17.824 134.248 17.3013 134.419 16.768C134.6 16.224 134.771 15.6853 134.931 15.152C135.091 14.608 135.23 14.1013 135.347 13.632H137.347C136.888 15.264 136.376 16.7947 135.811 18.224C135.256 19.6427 134.712 20.9013 134.179 22H132.515ZM146.489 10.912V12.656H143.081V22H141.049V12.656H137.641V10.912H146.489ZM154.495 17.808C154.495 18.4693 154.399 19.072 154.207 19.616C154.015 20.16 153.743 20.624 153.391 21.008C153.039 21.392 152.613 21.6907 152.111 21.904C151.621 22.1173 151.077 22.224 150.479 22.224C149.882 22.224 149.338 22.1173 148.847 21.904C148.357 21.6907 147.935 21.392 147.583 21.008C147.231 20.624 146.954 20.16 146.751 19.616C146.559 19.072 146.463 18.4693 146.463 17.808C146.463 17.1467 146.559 16.5493 146.751 16.016C146.954 15.472 147.231 15.008 147.583 14.624C147.946 14.24 148.373 13.9467 148.863 13.744C149.354 13.5307 149.893 13.424 150.479 13.424C151.066 13.424 151.605 13.5307 152.095 13.744C152.597 13.9467 153.023 14.24 153.375 14.624C153.727 15.008 153.999 15.472 154.191 16.016C154.394 16.5493 154.495 17.1467 154.495 17.808ZM152.511 17.808C152.511 16.976 152.33 16.32 151.967 15.84C151.615 15.3493 151.119 15.104 150.479 15.104C149.839 15.104 149.338 15.3493 148.975 15.84C148.623 16.32 148.447 16.976 148.447 17.808C148.447 18.6507 148.623 19.3173 148.975 19.808C149.338 20.2987 149.839 20.544 150.479 20.544C151.119 20.544 151.615 20.2987 151.967 19.808C152.33 19.3173 152.511 18.6507 152.511 17.808ZM163.93 17.808C163.93 18.4693 163.834 19.072 163.642 19.616C163.45 20.16 163.178 20.624 162.826 21.008C162.474 21.392 162.047 21.6907 161.546 21.904C161.055 22.1173 160.511 22.224 159.914 22.224C159.317 22.224 158.773 22.1173 158.282 21.904C157.791 21.6907 157.37 21.392 157.018 21.008C156.666 20.624 156.389 20.16 156.186 19.616C155.994 19.072 155.898 18.4693 155.898 17.808C155.898 17.1467 155.994 16.5493 156.186 16.016C156.389 15.472 156.666 15.008 157.018 14.624C157.381 14.24 157.807 13.9467 158.298 13.744C158.789 13.5307 159.327 13.424 159.914 13.424C160.501 13.424 161.039 13.5307 161.53 13.744C162.031 13.9467 162.458 14.24 162.81 14.624C163.162 15.008 163.434 15.472 163.626 16.016C163.829 16.5493 163.93 17.1467 163.93 17.808ZM161.946 17.808C161.946 16.976 161.765 16.32 161.402 15.84C161.05 15.3493 160.554 15.104 159.914 15.104C159.274 15.104 158.773 15.3493 158.41 15.84C158.058 16.32 157.882 16.976 157.882 17.808C157.882 18.6507 158.058 19.3173 158.41 19.808C158.773 20.2987 159.274 20.544 159.914 20.544C160.554 20.544 161.05 20.2987 161.402 19.808C161.765 19.3173 161.946 18.6507 161.946 17.808ZM168.708 22.16C168.132 22.1493 167.652 22.0853 167.268 21.968C166.895 21.8507 166.596 21.6853 166.372 21.472C166.148 21.248 165.988 20.976 165.892 20.656C165.807 20.3253 165.764 19.952 165.764 19.536V9.904L167.7 9.584V19.168C167.7 19.4027 167.716 19.6 167.748 19.76C167.791 19.92 167.86 20.0587 167.956 20.176C168.052 20.2827 168.18 20.368 168.34 20.432C168.511 20.4853 168.724 20.528 168.98 20.56L168.708 22.16ZM172.514 20.608C173.026 20.608 173.4 20.5493 173.634 20.432C173.869 20.304 173.986 20.0907 173.986 19.792C173.986 19.5147 173.858 19.2853 173.602 19.104C173.357 18.9227 172.946 18.7253 172.37 18.512C172.018 18.384 171.693 18.2507 171.394 18.112C171.106 17.9627 170.856 17.792 170.642 17.6C170.429 17.408 170.258 17.1787 170.13 16.912C170.013 16.6347 169.954 16.2987 169.954 15.904C169.954 15.136 170.237 14.5333 170.802 14.096C171.368 13.648 172.136 13.424 173.106 13.424C173.597 13.424 174.066 13.472 174.514 13.568C174.962 13.6533 175.298 13.7387 175.522 13.824L175.17 15.392C174.957 15.296 174.685 15.2107 174.354 15.136C174.024 15.0507 173.64 15.008 173.202 15.008C172.808 15.008 172.488 15.0773 172.242 15.216C171.997 15.344 171.874 15.5467 171.874 15.824C171.874 15.9627 171.896 16.0853 171.938 16.192C171.992 16.2987 172.077 16.4 172.194 16.496C172.312 16.5813 172.466 16.672 172.658 16.768C172.85 16.8533 173.085 16.944 173.362 17.04C173.821 17.2107 174.21 17.3813 174.53 17.552C174.85 17.712 175.112 17.8987 175.314 18.112C175.528 18.3147 175.682 18.5493 175.778 18.816C175.874 19.0827 175.922 19.4027 175.922 19.776C175.922 20.576 175.624 21.184 175.026 21.6C174.44 22.0053 173.597 22.208 172.498 22.208C171.762 22.208 171.17 22.144 170.722 22.016C170.274 21.8987 169.96 21.8027 169.778 21.728L170.114 20.112C170.402 20.2293 170.744 20.3413 171.138 20.448C171.544 20.5547 172.002 20.608 172.514 20.608Z" fill="#F0F0F5" />
        <defs>
            <linearGradient id="paint0_linear" x1="31.4887" y1="3.62806" x2="2.29894" y2="9.90719" gradientUnits="userSpaceOnUse">
                <stop offset="0.032" stop-color="#F9EFDC" />
                <stop offset="0.1034" stop-color="#F8EACE" />
                <stop offset="0.2378" stop-color="#F7DEAA" />
                <stop offset="0.4209" stop-color="#F5CB6F" />
                <stop offset="0.6434" stop-color="#F1B01F" />
                <stop offset="0.7232" stop-color="#F0A600" /> </linearGradient>
            <linearGradient id="paint1_linear" x1="-4.27448" y1="0.665387" x2="19.4214" y2="42.7722" gradientUnits="userSpaceOnUse">
                <stop offset="0.2542" stop-color="#F9EFDC" />
                <stop offset="0.2925" stop-color="#F8EACE" />
                <stop offset="0.3646" stop-color="#F7DEAA" />
                <stop offset="0.4627" stop-color="#F5CB6F" />
                <stop offset="0.582" stop-color="#F1B01F" />
                <stop offset="0.6248" stop-color="#F0A600" /> </linearGradient>
            <linearGradient id="paint2_linear" x1="18.6805" y1="33.5899" x2="30.8984" y2="6.46508" gradientUnits="userSpaceOnUse">
                <stop offset="0.064" stop-color="#F9EFDC" />
                <stop offset="0.3742" stop-color="#F5CB6E" />
                <stop offset="0.6154" stop-color="#F1B01F" />
                <stop offset="0.7254" stop-color="#F0A600" /> </linearGradient>
            <radialGradient id="paint3_radial" cx="0" cy="0" r="1" gradientUnits="userSpaceOnUse" gradientTransform="translate(14.9387 13.8745) rotate(0.0548796) scale(4.68993 4.68532)">
                <stop stop-color="#298DD1" />
                <stop offset="1" stop-color="#1A1872" /> </radialGradient>
            <clipPath id="clip0">
                <rect width="28.4444" height="32" fill="white" transform="translate(1.77783)" /> </clipPath>
        </defs>
    </g>
</svg>