<svg xmlns="http://www.w3.org/2000/svg" width="24" height="24" viewBox="0 0 24 24" fill="none">
  <g className="short">
    <mask id="mask0_684:497" style="mask-type:alpha" maskUnits="userSpaceOnUse" x="0" y="0" width="24" height="24">
      <path d="M21 2C21.5523 2 22 2.44772 22 3V21C22 21.5523 21.5523 22 21 22H3C2.44772 22 2 21.5523 2 21V3C2 2.44772 2.44772 2 3 2H21ZM8 4H4V20H8V4Z" fill="black"/>
    </mask>
    <g mask="url(#mask0_684:497)">
      <path d="M0 3C0 1.34315 1.34315 0 3 0H21C22.6569 0 24 1.34315 24 3V21C24 22.6569 22.6569 24 21 24H3C1.34315 24 0 22.6569 0 21V3Z" fill="#9999AD"/>
    </g>
  </g>
  <g className="normal">
  <mask id="mask0_684:564" style="mask-type:alpha" maskUnits="userSpaceOnUse" x="0" y="0" width="24" height="24">
      <path d="M21 2C21.5523 2 22 2.44772 22 3V21C22 21.5523 21.5523 22 21 22H3C2.44772 22 2 21.5523 2 21V3C2 2.44772 2.44772 2 3 2H21ZM12 4H4V20H12V4Z" fill="black"/>
    </mask>
    <g mask="url(#mask0_684:564)">
      <path d="M0 3C0 1.34315 1.34315 0 3 0H21C22.6569 0 24 1.34315 24 3V21C24 22.6569 22.6569 24 21 24H3C1.34315 24 0 22.6569 0 21V3Z" fill="#9999AD"/>
    </g>
  </g>
</svg>