<svg width="18" height="18" viewBox="0 0 18 18" fill="none" xmlns="http://www.w3.org/2000/svg">
    <mask id="mask0_967_16154" style="mask-type:alpha" maskUnits="userSpaceOnUse" x="1" y="1" width="16" height="16">
        <path fill-rule="evenodd" clip-rule="evenodd" d="M8 2.75C10.8995 2.75 13.25 5.10051 13.25 8C13.25 9.17955 12.861 10.2682 12.2043 11.1448L15.0289 13.9694C15.3218 14.2623 15.3218 14.7372 15.0289 15.0301C14.736 15.323 14.2612 15.323 13.9683 15.0301L11.1435 12.2053C10.2671 12.8614 9.17896 13.25 8 13.25C5.10051 13.25 2.75 10.8995 2.75 8C2.75 5.10051 5.10051 2.75 8 2.75ZM8 11.75C10.0711 11.75 11.75 10.0711 11.75 8C11.75 5.92893 10.0711 4.25 8 4.25C5.92893 4.25 4.25 5.92893 4.25 8C4.25 10.0711 5.92893 11.75 8 11.75Z" fill="black"/>
    </mask>
    <g mask="url(#mask0_967_16154)">
        <path d="M1 4C1 2.34315 2.34315 1 4 1H14C15.6569 1 17 2.34315 17 4V14C17 15.6569 15.6569 17 14 17H4C2.34315 17 1 15.6569 1 14V4Z" fill="#B9B9CB"/>
    </g>
</svg>