<svg width="24" height="24" viewBox="0 0 24 24" fill="none" xmlns="http://www.w3.org/2000/svg">
<mask id="mask0_316:35387" style="mask-type:alpha" maskUnits="userSpaceOnUse" x="0" y="0" width="24" height="24">
<path d="M4 6C4.55228 6 5 6.44772 5 7V20H16C16.5523 20 17 20.4477 17 21C17 21.5523 16.5523 22 16 22H5C3.89543 22 3 21.1046 3 20V7C3 6.44772 3.44772 6 4 6ZM19 2C20.1046 2 21 2.89543 21 4V16C21 17.1046 20.1046 18 19 18H9C7.89543 18 7 17.1046 7 16V4C7 2.89543 7.89543 2 9 2H19ZM19 4H9V16H19V4ZM16 10C16.5523 10 17 10.4477 17 11C17 11.5523 16.5523 12 16 12H12C11.4477 12 11 11.5523 11 11C11 10.4477 11.4477 10 12 10H16ZM16 6C16.5523 6 17 6.44772 17 7C17 7.55228 16.5523 8 16 8H12C11.4477 8 11 7.55228 11 7C11 6.44772 11.4477 6 12 6H16Z" fill="black"/>
</mask>
<g mask="url(#mask0_316:35387)">
<path d="M0 3C0 1.34315 1.34315 0 3 0H21C22.6569 0 24 1.34315 24 3V21C24 22.6569 22.6569 24 21 24H3C1.34315 24 0 22.6569 0 21V3Z" fill="#9999AD"/>
</g>
</svg>