<svg width="24" height="24" viewBox="0 0 24 24" fill="none" xmlns="http://www.w3.org/2000/svg">
<mask id="mask0_316:35400" style="mask-type:alpha" maskUnits="userSpaceOnUse" x="0" y="0" width="24" height="24">
<path d="M12 22C11.8248 22.0012 11.6524 21.9566 11.5 21.8708L3.50001 17.2715C3.18938 17.0934 2.99859 16.7636 3.00001 16.4073V7.52656C2.99859 7.17096 3.18863 6.84172 3.49829 6.66331C3.80795 6.48489 4.19 6.48452 4.50001 6.66233L12.5 11.202C12.8106 11.3802 13.0014 11.7099 13 12.0663V21.0066C13 21.5552 12.5523 22 12 22ZM5.00002 15.8311L11 19.2781V12.6424L5.00002 9.24509V15.8311ZM21 16.4073V7.52656C21.0014 7.17025 20.8106 6.84048 20.5 6.66233L12.5 2.13256C12.1892 1.95511 11.8067 1.95586 11.4966 2.13453C11.1865 2.3132 10.9959 2.64265 10.9966 2.99876C10.9973 3.35488 11.1892 3.68357 11.5 3.86102L19 8.09278V16.3874C19 16.936 19.4477 17.3808 20 17.3808C20.5523 17.3808 21 16.936 21 16.3874V16.4073ZM17 18.7218V9.90071C17.0014 9.5444 16.8106 9.21463 16.5 9.03648L8.50002 4.49678C8.01953 4.22247 7.40616 4.38702 7.13002 4.86433C6.85387 5.34163 7.01953 5.95093 7.50002 6.22524L15 10.4769V18.7218C15 19.2705 15.4477 19.7152 16 19.7152C16.5523 19.7152 17 19.2705 17 18.7218Z" fill="black"/>
</mask>
<g mask="url(#mask0_316:35400)">
<path d="M0 3C0 1.34315 1.34315 0 3 0H21C22.6569 0 24 1.34315 24 3V21C24 22.6569 22.6569 24 21 24H3C1.34315 24 0 22.6569 0 21V3Z" fill="#9999AD"/>
</g>
</svg>