<svg width="16" height="16" viewBox="0 0 16 16" fill="none" xmlns="http://www.w3.org/2000/svg">
  <path fill-rule="evenodd" clip-rule="evenodd" d="M2.39062 7.5C2.39062 6.5335 3.17412 5.75 4.14062 5.75H4.39062V5.5C4.39062 3.42893 6.06956 1.75 8.14062 1.75C10.2117 1.75 11.8907 3.42893 11.8907 5.5V5.75H12.1407C13.1072 5.75 13.8907 6.5335 13.8907 7.5V12.5C13.8907 13.4665 13.1072 14.25 12.1407 14.25H4.14062C3.17412 14.25 2.39062 13.4665 2.39062 12.5V7.5ZM3.89062 7.5C3.89062 7.36193 4.00254 7.25 4.14062 7.25H12.1407C12.2787 7.25 12.3907 7.36193 12.3907 7.5V12.5C12.3907 12.6381 12.2787 12.75 12.1407 12.75H4.14062C4.00254 12.75 3.89062 12.6381 3.89062 12.5V7.5ZM5.89062 5.5C5.89062 4.25736 6.89798 3.25 8.14062 3.25C9.38327 3.25 10.3907 4.25736 10.3907 5.5V5.75H5.89062V5.5ZM8.15332 11.521C8.98174 11.521 9.65332 10.8494 9.65332 10.021C9.65332 9.19255 8.98174 8.52097 8.15332 8.52097C7.32489 8.52097 6.65332 9.19255 6.65332 10.021C6.65332 10.8494 7.32489 11.521 8.15332 11.521Z" />
</svg>
