<svg width="16" height="16" viewBox="0 0 16 16" fill="none" xmlns="http://www.w3.org/2000/svg">
    <mask id="mask0_259:17743" style="mask-type:alpha" maskUnits="userSpaceOnUse" x="0" y="0" width="16" height="16">
        <path fill-rule="evenodd" clip-rule="evenodd" d="M6.5 1.75C5.94772 1.75 5.5 2.19772 5.5 2.75V3.25H4C3.44772 3.25 3 3.69772 3 4.25V13.25C3 13.8023 3.44772 14.25 4 14.25H12C12.5523 14.25 13 13.8023 13 13.25V4.25C13 3.69772 12.5523 3.25 12 3.25H10.5V2.75C10.5 2.19772 10.0523 1.75 9.5 1.75H6.5ZM4.5 4.75H5.5C5.5 5.30228 5.94772 5.75 6.5 5.75H9.5C10.0523 5.75 10.5 5.30228 10.5 4.75H11.5V12.75H4.5V4.75ZM9.00299 3.25684H6.99426V4.24988H9.00299V3.25684Z" fill="black"/>
    </mask>
    <g mask="url(#mask0_259:17743)">
        <path d="M0 3C0 1.34315 1.34315 0 3 0H13C14.6569 0 16 1.34315 16 3V13C16 14.6569 14.6569 16 13 16H3C1.34315 16 0 14.6569 0 13V3Z"/>
    </g>
</svg>