<svg width="16" height="16" viewBox="0 0 16 16" fill="none" xmlns="http://www.w3.org/2000/svg">
    <mask id="mask0_1555_158244" style="mask-type:alpha" maskUnits="userSpaceOnUse" x="0" y="0" width="16" height="16">
        <path fill-rule="evenodd" clip-rule="evenodd" d="M9.75 5C9.75 5.9665 8.9665 6.75 8 6.75C7.0335 6.75 6.25 5.9665 6.25 5C6.25 4.0335 7.0335 3.25 8 3.25C8.9665 3.25 9.75 4.0335 9.75 5ZM11.25 5C11.25 6.79493 9.7949 8.25 8 8.25C6.20507 8.25 4.75 6.79493 4.75 5C4.75 3.20507 6.20507 1.75 8 1.75C9.7949 1.75 11.25 3.20507 11.25 5ZM3.75 12.5C3.75 11.8096 4.30964 11.25 5 11.25H11C11.6904 11.25 12.25 11.8096 12.25 12.5V13.5C12.25 13.9142 12.5858 14.25 13 14.25C13.4142 14.25 13.75 13.9142 13.75 13.5V12.5C13.75 10.9812 12.5188 9.75 11 9.75H5C3.48122 9.75 2.25 10.9812 2.25 12.5V13.5C2.25 13.9142 2.58579 14.25 3 14.25C3.41421 14.25 3.75 13.9142 3.75 13.5V12.5Z" fill="black"/>
    </mask>
    <g mask="url(#mask0_1555_158244)">
        <path d="M0 3C0 1.34315 1.34315 0 3 0H13C14.6569 0 16 1.34315 16 3V13C16 14.6569 14.6569 16 13 16H3C1.34315 16 0 14.6569 0 13V3Z" fill="#585874"/>
    </g>
</svg>