<svg width="17" height="16" viewBox="0 0 17 16" fill="none" xmlns="http://www.w3.org/2000/svg">
<mask id="mask0_908_55559" style="mask-type:alpha" maskUnits="userSpaceOnUse" x="0" y="0" width="17" height="16">
<g clip-path="url(#clip0_908_55559)">
<path d="M8.49999 14.4143C8.08576 14.4143 7.75003 14.0696 7.74996 13.6444L7.74999 8.74924L2.85478 8.74927C2.42965 8.74925 2.08497 8.41348 2.08498 7.99927C2.08499 7.58505 2.42968 7.24922 2.85481 7.24924L7.74999 7.24924L7.74999 2.35407C7.74999 1.92892 8.08577 1.58427 8.49998 1.58427C8.9142 1.58427 9.24999 1.92892 9.24999 2.35407L9.24999 7.24924L14.1452 7.24923C14.5704 7.24928 14.915 7.58504 14.915 7.99925C14.915 8.41348 14.5703 8.74924 14.1452 8.74926L9.24999 8.74924L9.25002 13.6444C9.24994 14.0696 8.91421 14.4143 8.49999 14.4143Z" fill="black"/>
</g>
</mask>
<g mask="url(#mask0_908_55559)">
<path d="M0.5 3C0.5 1.34315 1.84315 0 3.5 0H13.5C15.1569 0 16.5 1.34315 16.5 3V13C16.5 14.6569 15.1569 16 13.5 16H3.5C1.84315 16 0.5 14.6569 0.5 13V3Z"/>
</g>
<defs>
<clipPath id="clip0_908_55559">
<rect width="16" height="16" fill="white" transform="translate(0.5)"/>
</clipPath>
</defs>
</svg>
