<svg width="16" height="16" viewBox="0 0 16 16" fill="none" xmlns="http://www.w3.org/2000/svg">
    <path d="M15.5 8C15.5 12.1421 12.1421 15.5 8 15.5C3.85786 15.5 0.5 12.1421 0.5 8C0.5 3.85786 3.85786 0.5 8 0.5C12.1421 0.5 15.5 3.85786 15.5 8Z" fill="#E3F9E5" stroke="#51CA58"/>
    <path d="M7 12C7 12.5523 7.4477 13 8 13C8.5523 13 9 12.5523 9 12L9 6.4142L10.2929 7.7071C10.6834 8.0976 11.3166 8.0976 11.7071 7.7071C12.0976 7.3166 12.0976 6.6834 11.7071 6.2929L8.7071 3.2929C8.3166 2.9024 7.6834 2.9024 7.2929 3.2929L4.2929 6.2929C3.9024 6.6834 3.9024 7.3166 4.2929 7.7071C4.6834 8.0976 5.3166 8.0976 5.7071 7.7071L7 6.4142L7 12Z" fill="#18981D"/>
</svg>