<svg width="16" height="16" viewBox="0 0 16 16" fill="none" xmlns="http://www.w3.org/2000/svg">
    <mask id="mask0_560_69314" style="mask-type:alpha" maskUnits="userSpaceOnUse" x="0" y="0" width="16" height="16">
        <path d="M9 13.2499C9 13.8021 8.55228 14.2499 8 14.2499C7.44772 14.2499 7 13.8021 7 13.2499C7 12.6976 7.44772 12.2499 8 12.2499C8.55228 12.2499 9 12.6976 9 13.2499Z" fill="black"/>
        <path d="M5.75 5.53027C5.75 4.28763 6.75736 3.28027 8 3.28027C9.24264 3.28027 10.25 4.28763 10.25 5.53027C10.25 6.77291 9.24264 7.78027 8 7.78027C7.58579 7.78027 7.25 8.08565 7.25 8.49986V10.0038C7.25 10.418 7.58579 10.7538 8 10.7538C8.41421 10.7538 8.75 10.418 8.75 10.0038V9.20526C10.4617 8.85781 11.75 7.34449 11.75 5.53027C11.75 3.45921 10.0711 1.78027 8 1.78027C5.92893 1.78027 4.25 3.45921 4.25 5.53027C4.25 5.94449 4.58579 6.28027 5 6.28027C5.41421 6.28027 5.75 5.94449 5.75 5.53027Z" fill="black"/>
    </mask>
    <g mask="url(#mask0_560_69314)">
        <path d="M0 3C0 1.34315 1.34315 0 3 0H13C14.6569 0 16 1.34315 16 3V13C16 14.6569 14.6569 16 13 16H3C1.34315 16 0 14.6569 0 13V3Z" fill="#585874"/>
    </g>
</svg>