<svg width="16" height="16" viewBox="0 0 16 16" fill="none" xmlns="http://www.w3.org/2000/svg">
    <mask id="mask0_1432_37058" style="mask-type:alpha" maskUnits="userSpaceOnUse" x="0" y="0" width="16" height="16">
        <path d="M4.25 8.50055C4.25 6.4398 5.94827 4.75055 8.06641 4.75055C9.06651 4.75055 9.97456 5.1277 10.6543 5.74433L8.9931 5.73921C8.57889 5.73794 8.24207 6.07269 8.24079 6.4869C8.23951 6.90111 8.57427 7.23793 8.98848 7.23921L12.4885 7.24999C12.9027 7.25126 13.2395 6.91651 13.2408 6.5023L13.2516 3.00232C13.2529 2.5881 12.9181 2.25128 12.5039 2.25C12.0897 2.24873 11.7529 2.58348 11.7516 2.9977L11.7463 4.71144C10.7907 3.80631 9.49297 3.25055 8.06641 3.25055C5.14063 3.25055 2.75 5.59073 2.75 8.50055C2.75 11.4104 5.14063 13.7506 8.06641 13.7506C8.48062 13.7506 8.81641 13.4148 8.81641 13.0006C8.81641 12.5864 8.48062 12.2506 8.06641 12.2506C5.94827 12.2506 4.25 10.5613 4.25 8.50055Z" fill="black"/>
    </mask>
    <g mask="url(#mask0_1432_37058)">
        <path d="M0 3C0 1.34315 1.34315 0 3 0H13C14.6569 0 16 1.34315 16 3V13C16 14.6569 14.6569 16 13 16H3C1.34315 16 0 14.6569 0 13V3Z"/>
    </g>
</svg>