<svg width="16" height="16" viewBox="0 0 16 16" fill="none" xmlns="http://www.w3.org/2000/svg">
    <mask id="mask0_736_56937" style="mask-type:alpha" maskUnits="userSpaceOnUse" x="0" y="0" width="16" height="16">
        <path d="M9.5 1.75C9.91421 1.75 10.25 2.08579 10.25 2.5C10.25 2.91421 9.91421 3.25 9.5 3.25H8.75V12.75H9.5C9.91421 12.75 10.25 13.0858 10.25 13.5C10.25 13.9142 9.91421 14.25 9.5 14.25H6.5C6.08579 14.25 5.75 13.9142 5.75 13.5C5.75 13.0858 6.08579 12.75 6.5 12.75H7.25V3.25H6.5C6.08579 3.25 5.75 2.91421 5.75 2.5C5.75 2.08579 6.08579 1.75 6.5 1.75H9.5Z" fill="black"/>
        <path d="M3.25 9.53237V6.53237L4.99999 6.53238C5.41421 6.53238 5.75 6.19659 5.75 5.78237C5.75 5.36816 5.41421 5.03237 5 5.03237H2.75C2.19772 5.03237 1.75 5.48009 1.75 6.03237V10.0324C1.75 10.5847 2.19772 11.0324 2.75 11.0324H5C5.41421 11.0324 5.75 10.6966 5.75 10.2824C5.75 9.86816 5.41422 9.53238 5.00001 9.53238L3.25 9.53237Z" fill="black"/>
        <path d="M12.75 6.53237V9.53237L11 9.53238C10.5858 9.53238 10.25 9.86816 10.25 10.2824C10.25 10.6966 10.5858 11.0324 11 11.0324H13.25C13.8023 11.0324 14.25 10.5847 14.25 10.0324V6.03237C14.25 5.48009 13.8023 5.03237 13.25 5.03237H11C10.5858 5.03237 10.25 5.36816 10.25 5.78237C10.25 6.19659 10.5858 6.53238 11 6.53238L12.75 6.53237Z" fill="black"/>
    </mask>
    <g mask="url(#mask0_736_56937)">
        <path d="M0 3C0 1.34315 1.34315 0 3 0H13C14.6569 0 16 1.34315 16 3V13C16 14.6569 14.6569 16 13 16H3C1.34315 16 0 14.6569 0 13V3Z" fill="#585874"/>
    </g>
</svg>