<svg width="16" height="16" viewBox="0 0 100 100" fill="none" xmlns="http://www.w3.org/2000/svg">
  <path fill-rule="evenodd" clip-rule="evenodd" d="M43.7539 10.9385C61.8757 10.9385 76.5664 25.6291 76.5664 43.751C76.5664 51.1231 74.1352 57.9275 70.0308 63.4059L87.6847 81.0598C89.5153 82.8904 89.5153 85.8584 87.6847 87.689C85.8541 89.5196 82.8862 89.5196 81.0556 87.689L63.4006 70.034C57.9236 74.1347 51.1224 76.5635 43.7539 76.5635C25.6321 76.5635 10.9414 61.8728 10.9414 43.751C10.9414 25.6291 25.6321 10.9385 43.7539 10.9385ZM43.7539 67.1885C56.6981 67.1885 67.1914 56.6952 67.1914 43.751C67.1914 30.8068 56.6981 20.3135 43.7539 20.3135C30.8097 20.3135 20.3164 30.8068 20.3164 43.751C20.3164 56.6952 30.8097 67.1885 43.7539 67.1885Z" fill="#DBDBE5"/>
</svg>
