<svg width="16" height="16" viewBox="0 0 16 16" fill="none" xmlns="http://www.w3.org/2000/svg">
  <mask id="mask0_1236_221553" style="mask-type:alpha" maskUnits="userSpaceOnUse" x="0" y="0" width="16" height="16">
    <path d="M8.42016 1.97949C8.22332 1.6735 7.77598 1.6735 7.57914 1.97949L5.33031 5.47531C5.11626 5.80805 5.35517 6.24581 5.75082 6.24581H10.2485C10.6441 6.24581 10.883 5.80805 10.669 5.47531L8.42016 1.97949Z" fill="black"/>
    <path d="M7.57942 14.0204C7.77626 14.3264 8.22359 14.3264 8.42043 14.0204L10.6693 10.5246C10.8833 10.1919 10.6444 9.75412 10.2488 9.75412H5.75109C5.35544 9.75412 5.11653 10.1919 5.33059 10.5246L7.57942 14.0204Z" fill="black"/>
  </mask>
  <g mask="url(#mask0_1236_221553)">
    <path d="M0 3C0 1.34315 1.34315 0 3 0H13C14.6569 0 16 1.34315 16 3V13C16 14.6569 14.6569 16 13 16H3C1.34315 16 0 14.6569 0 13V3Z" fill="#B9B9CB"/>
  </g>
</svg>
