<svg width="24" height="24" viewBox="0 0 24 24" fill="none" xmlns="http://www.w3.org/2000/svg">
<path d="M12 21.5C17.2467 21.5 21.5 17.2467 21.5 12C21.5 6.7533 17.2467 2.5 12 2.5C6.7533 2.5 2.5 6.7533 2.5 12C2.5 17.2467 6.7533 21.5 12 21.5Z" fill="#E3F9E5" stroke="#51CA58"/>
<path fill-rule="evenodd" clip-rule="evenodd" d="M17.2071 8.29289C17.5976 8.68342 17.5976 9.31658 17.2071 9.70711L11.2071 15.7071C10.8166 16.0976 10.1834 16.0976 9.79289 15.7071L6.79289 12.7071C6.40237 12.3166 6.40237 11.6834 6.79289 11.2929C7.18342 10.9024 7.81658 10.9024 8.20711 11.2929L10.5 13.5858L15.7929 8.29289C16.1834 7.90237 16.8166 7.90237 17.2071 8.29289Z" fill="#18981D"/>
</svg>