<svg width="16" height="16" viewBox="0 0 16 16" fill="none" xmlns="http://www.w3.org/2000/svg">
    <mask id="mask0_1432_37050" style="mask-type:alpha" maskUnits="userSpaceOnUse" x="0" y="0" width="16" height="16">
        <path d="M11.7516 8.50055C11.7516 6.4398 10.0533 4.75055 7.93515 4.75055C6.93505 4.75055 6.02702 5.1277 5.34731 5.74433L7.00846 5.73921C7.42267 5.73794 7.75949 6.07269 7.76077 6.4869C7.76205 6.90111 7.42729 7.23793 7.01308 7.23921L3.5131 7.24999C3.09889 7.25126 2.76207 6.91651 2.76079 6.5023L2.75 3.00232C2.74874 2.5881 3.08349 2.25128 3.4977 2.25C3.91191 2.24873 4.24873 2.58348 4.25 2.9977L4.25529 4.71144C5.21089 3.80631 6.50859 3.25055 7.93515 3.25055C10.8609 3.25055 13.2516 5.59073 13.2516 8.50055C13.2516 11.4104 10.8609 13.7506 7.93515 13.7506C7.52094 13.7506 7.18515 13.4148 7.18515 13.0006C7.18515 12.5864 7.52094 12.2506 7.93515 12.2506C10.0533 12.2506 11.7516 10.5613 11.7516 8.50055Z" fill="black"/>
    </mask>
    <g mask="url(#mask0_1432_37050)">
        <path d="M0 3C0 1.34315 1.34315 0 3 0H13C14.6569 0 16 1.34315 16 3V13C16 14.6569 14.6569 16 13 16H3C1.34315 16 0 14.6569 0 13V3Z"/>
    </g>
</svg>