<svg width="16" height="16" viewBox="0 0 16 16" fill="none" xmlns="http://www.w3.org/2000/svg">
<mask id="mask0_2110_55196" style="mask-type:alpha" maskUnits="userSpaceOnUse" x="0" y="0" width="16" height="16">
<path fill-rule="evenodd" clip-rule="evenodd" d="M13 12.75C13.4142 12.75 13.75 13.0858 13.75 13.5C13.75 13.9142 13.4142 14.25 13 14.25H3C2.58579 14.25 2.25 13.9142 2.25 13.5C2.25 13.0858 2.58579 12.75 3 12.75H13ZM7.99999 11.25C8.4142 11.25 8.74999 10.9142 8.74999 10.5V4.31064L10.2426 5.80328C10.5355 6.09617 11.0104 6.09617 11.3033 5.80328C11.5962 5.51039 11.5962 5.0355 11.3033 4.74261L8.53032 1.96968C8.23743 1.67678 7.76255 1.67678 7.46966 1.96968L4.69669 4.74261C4.4038 5.0355 4.4038 5.51039 4.69669 5.80328C4.98958 6.09617 5.46446 6.09617 5.75735 5.80328L7.24999 4.31064V10.5C7.24999 10.9142 7.58578 11.25 7.99999 11.25Z" fill="black"/>
</mask>
<g mask="url(#mask0_2110_55196)">
<path d="M0 3C0 1.34315 1.34315 0 3 0H13C14.6569 0 16 1.34315 16 3V13C16 14.6569 14.6569 16 13 16H3C1.34315 16 0 14.6569 0 13V3Z" />
</g>
</svg>