<svg width="24" height="24" viewBox="0 0 24 24" fill="none" xmlns="http://www.w3.org/2000/svg">
<path d="M8.93866 4.39953L8.93868 4.3995C10.2134 1.86683 13.7872 1.86683 15.0619 4.3995L15.0619 4.39951L21.1213 16.4391L20.6982 16.6521L21.1213 16.4391C22.281 18.7435 20.6387 21.4997 18.0597 21.4997H5.94088C3.36271 21.4997 1.71772 18.7443 2.87926 16.4406L8.93866 4.39953ZM8.93866 4.39953L2.87946 16.4402L8.93866 4.39953Z" fill="#FFF7E0" stroke="#C99A2E"/>
<path d="M12 16C12.5523 16 13 16.4477 13 17C13 17.5523 12.5523 18 12 18C11.4477 18 11 17.5523 11 17C11 16.4477 11.4477 16 12 16ZM12 8C12.5523 8 13 8.44772 13 9V13C13 13.5523 12.5523 14 12 14C11.4477 14 11 13.5523 11 13V9C11 8.44772 11.4477 8 12 8Z" fill="#7C5E10"/>
</svg>