<svg width="16" height="16" viewBox="0 0 16 16" fill="none" xmlns="http://www.w3.org/2000/svg">
<g clip-path="url(#clip0_3191_52351)">
<path d="M13.75 0C14.1642 0 14.5 0.33579 14.5 0.75V15.25C14.5 15.6642 14.1642 16 13.75 16H2.25C1.83579 16 1.5 15.6642 1.5 15.25V0.75C1.5 0.33579 1.83579 0 2.25 0H13.75ZM8 3.66667H5.5V1.5H3V14.5H13V1.5H8V3.66667ZM10.5 12.3333V14.5H8V12.3333H10.5ZM8 10.1667V12.3333H5.5V10.1667H8ZM10.5 8V10.1667H8V8H10.5ZM8 5.83333V8H5.5V5.83333H8ZM10.5 3.66667V5.83333H8V3.66667H10.5Z" fill="#ED47ED"/>
</g>
<defs>
<clipPath id="clip0_3191_52351">
<rect width="16" height="16" fill="white"/>
</clipPath>
</defs>
</svg>