<svg width="41" height="40" viewBox="0 0 41 40" fill="none" xmlns="http://www.w3.org/2000/svg">
<path fill-rule="evenodd" clip-rule="evenodd" d="M20.7516 36C17.9054 36 15.5903 33.685 15.5903 30.8387C15.5903 30.2689 16.0528 29.8065 16.6226 29.8065C17.1924 29.8065 17.6549 30.2689 17.6549 30.8387C17.6549 32.5469 19.0437 33.9355 20.7516 33.9355C22.4598 33.9355 23.8484 32.5469 23.8484 30.8387C23.8484 30.2689 24.3109 29.8065 24.8807 29.8065C25.4505 29.8065 25.9129 30.2689 25.9129 30.8387C25.9129 33.685 23.5979 36 20.7516 36Z" fill="#333333"/>
<path fill-rule="evenodd" clip-rule="evenodd" d="M32.1065 31.871H9.3968C8.06867 31.871 6.98828 30.7906 6.98828 29.4625C6.98828 28.7576 7.29524 28.0902 7.83052 27.6318C9.92402 25.8632 11.1173 23.2923 11.1173 20.5685V16.7311C11.1173 11.4186 15.4391 7.09677 20.7516 7.09677C26.0644 7.09677 30.3862 11.4186 30.3862 16.7311V20.5685C30.3862 23.2923 31.5795 25.8632 33.6591 27.6222C34.2083 28.0902 34.5152 28.7576 34.5152 29.4625C34.5152 30.7906 33.4349 31.871 32.1065 31.871ZM20.7516 9.16129C16.5772 9.16129 13.1818 12.5567 13.1818 16.7311V20.5685C13.1818 23.9005 11.7216 27.0469 9.17679 29.1981C9.1284 29.2394 9.0528 29.3248 9.0528 29.4625C9.0528 29.6494 9.2098 29.8065 9.3968 29.8065H32.1065C32.2937 29.8065 32.4507 29.6494 32.4507 29.4625C32.4507 29.3248 32.3749 29.2394 32.3295 29.2009C29.7819 27.0469 28.3217 23.9005 28.3217 20.5685V16.7311C28.3217 12.5567 24.9263 9.16129 20.7516 9.16129Z" fill="#333333"/>
<path fill-rule="evenodd" clip-rule="evenodd" d="M20.7302 9.16129C20.1604 9.16129 19.698 8.77592 19.698 8.30107V4.86022C19.698 4.38537 20.1604 4 20.7302 4C21.3 4 21.7625 4.38537 21.7625 4.86022V8.30107C21.7625 8.77592 21.3 9.16129 20.7302 9.16129Z" fill="#333333"/>
</svg>
