<svg width="40" height="40" viewBox="0 0 40 40" fill="none" xmlns="http://www.w3.org/2000/svg">
<path d="M34.2687 17.7634C33.6989 17.7634 33.2365 17.3009 33.2365 16.7311C33.2365 12.7782 31.6979 9.06351 28.9038 6.26815C28.5006 5.86492 28.5006 5.21119 28.9038 4.80796C29.307 4.40474 29.9607 4.40474 30.3642 4.80796C33.5477 7.99269 35.301 12.2278 35.301 16.7311C35.301 17.3009 34.8385 17.7634 34.2687 17.7634Z" fill="#333333"/>
<path d="M6.05374 17.7634C5.48393 17.7634 5.02148 17.3009 5.02148 16.7311C5.02148 12.2278 6.77501 7.99269 9.95974 4.80922C10.363 4.406 11.0169 4.406 11.4202 4.80922C11.8234 5.21245 11.8234 5.86643 11.4202 6.26966C8.62481 9.06351 7.086 12.7782 7.086 16.7311C7.086 17.3009 6.62355 17.7634 6.05374 17.7634Z" fill="#333333"/>
<path d="M20.1614 36C17.3151 36 15.0001 33.685 15.0001 30.8387C15.0001 30.2689 15.4625 29.8064 16.0323 29.8064C16.6021 29.8064 17.0646 30.2689 17.0646 30.8387C17.0646 32.5469 18.4532 33.9355 20.1614 33.9355C21.8693 33.9355 23.2581 32.5469 23.2581 30.8387C23.2581 30.2689 23.7206 29.8064 24.2904 29.8064C24.8602 29.8064 25.3226 30.2689 25.3226 30.8387C25.3226 33.685 23.0076 36 20.1614 36Z" fill="#333333"/>
<path d="M31.5162 31.871H8.80651C7.47814 31.871 6.39774 30.7906 6.39774 29.4624C6.39774 28.7576 6.7047 28.0902 7.24023 27.6318C9.33348 25.8632 10.5268 23.2923 10.5268 20.5685V16.7311C10.5268 11.4186 14.8486 7.09677 20.1614 7.09677C25.4739 7.09677 29.7957 11.4186 29.7957 16.7311V20.5685C29.7957 23.2923 30.989 25.8632 33.0686 27.6222C33.6178 28.0902 33.9247 28.7576 33.9247 29.4624C33.9247 30.7906 32.8443 31.871 31.5162 31.871ZM20.1614 9.16129C15.9867 9.16129 12.5913 12.5567 12.5913 16.7311V20.5685C12.5913 23.9005 11.1311 27.0469 8.58625 29.1981C8.53812 29.2394 8.46226 29.3248 8.46226 29.4624C8.46226 29.6494 8.61927 29.8064 8.80651 29.8064H31.5162C31.7032 29.8064 31.8602 29.6494 31.8602 29.4624C31.8602 29.3248 31.7846 29.2394 31.739 29.2009C29.1913 27.0469 27.7312 23.9005 27.7312 20.5685V16.7311C27.7312 12.5567 24.3357 9.16129 20.1614 9.16129Z" fill="#333333"/>
<path d="M20.1828 9.16129C19.613 9.16129 19.1505 8.77592 19.1505 8.30107V4.86022C19.1505 4.38537 19.613 4 20.1828 4C20.7526 4 21.215 4.38537 21.215 4.86022V8.30107C21.215 8.77592 20.7526 9.16129 20.1828 9.16129Z" fill="#333333"/>
</svg>
