<svg width="40" height="40" viewBox="0 0 40 40" fill="none" xmlns="http://www.w3.org/2000/svg">
<path d="M26.6667 16.3331C26.4026 16.3331 26.1467 16.2279 25.96 16.0399L23.6267 13.7066C23.2361 13.3158 23.2361 12.6825 23.6267 12.2918C24.0173 11.9012 24.6506 11.9012 25.0413 12.2918L26.6121 13.8612L29.9094 10.0145C30.2708 9.59726 30.8999 9.54648 31.3201 9.90659C31.74 10.2665 31.7881 10.8971 31.428 11.3172L27.428 15.9837C27.2466 16.1944 26.9854 16.3211 26.7068 16.3319C26.6934 16.3331 26.6799 16.3331 26.6667 16.3331Z" fill="#333333"/>
<path d="M17.3333 36C14.5774 36 12.3333 33.7573 12.3333 31C12.3333 30.448 12.7812 30 13.3333 30C13.8853 30 14.3333 30.448 14.3333 31C14.3333 32.6548 15.6799 34 17.3333 34C18.9866 34 20.3333 32.6548 20.3333 31C20.3333 30.448 20.7812 30 21.3333 30C21.8853 30 22.3333 30.448 22.3333 31C22.3333 33.7573 20.0894 36 17.3333 36Z" fill="#333333"/>
<path d="M28.3333 31.9998H6.33325C5.04663 31.9998 4 30.9531 4 29.6665C4 28.9837 4.29736 28.3372 4.81592 27.8931C4.84937 27.8638 4.88525 27.8372 4.92261 27.813C6.87988 26.105 8 23.6477 8 21.053V17.333C8 12.9905 10.9426 9.26247 15.156 8.26638C15.6946 8.14236 16.2334 8.4717 16.3601 9.01052C16.4866 9.54787 16.1533 10.0864 15.6174 10.2132C12.3093 10.9944 10 13.9224 10 17.333V21.053C10 24.2744 8.58789 27.3225 6.12939 29.4143C6.10938 29.4304 6.09204 29.4451 6.07056 29.4597C6.03467 29.5051 6 29.5745 6 29.6665C6 29.8477 6.1521 29.9998 6.33325 29.9998H28.3333C28.5146 29.9998 28.6667 29.8477 28.6667 29.6665C28.6667 29.573 28.6321 29.5051 28.5947 29.4597C28.5747 29.4451 28.5559 29.4304 28.5374 29.4143C27.3428 28.3958 26.3999 27.1665 25.7361 25.7598C25.4988 25.261 25.7119 24.6651 26.2119 24.4278C26.7161 24.1905 27.3066 24.4065 27.5427 24.9051C28.0706 26.0198 28.8105 26.9986 29.7466 27.8172C29.7812 27.8411 29.8174 27.8665 29.8479 27.8931C30.3694 28.3372 30.6667 28.9837 30.6667 29.6665C30.6667 30.9531 29.6201 31.9998 28.3333 31.9998Z" fill="#333333"/>
<path d="M27.3333 21.3333C22.5547 21.3333 18.6667 17.4453 18.6667 12.6667C18.6667 7.88794 22.5547 4 27.3333 4C32.1121 4 36 7.88794 36 12.6667C36 17.4453 32.1121 21.3333 27.3333 21.3333ZM27.3333 6C23.6572 6 20.6667 8.99072 20.6667 12.6667C20.6667 16.3428 23.6572 19.3333 27.3333 19.3333C31.0093 19.3333 34 16.3428 34 12.6667C34 8.99072 31.0093 6 27.3333 6Z" fill="#333333"/>
</svg>
