<svg width="40" height="40" viewBox="0 0 40 40" fill="none" xmlns="http://www.w3.org/2000/svg">
<path d="M33.0215 18.5093C32.2854 18.5093 31.6882 17.9121 31.6882 17.176C31.6882 13.436 30.2322 9.92139 27.5881 7.27588C27.0669 6.75464 27.0669 5.91211 27.5881 5.39062C28.1094 4.86938 28.9521 4.86938 29.4734 5.39062C32.6216 8.53857 34.3547 12.7241 34.3547 17.176C34.3547 17.9121 33.7576 18.5093 33.0215 18.5093Z" fill="#333333"/>
<path d="M6.35474 18.5093C5.6189 18.5093 5.02148 17.9121 5.02148 17.176C5.02148 12.7241 6.75488 8.53857 9.90283 5.39062C10.4241 4.86938 11.2668 4.86938 11.7881 5.39062C12.3096 5.91211 12.3096 6.75464 11.7881 7.27588C9.14404 9.91992 7.68823 13.436 7.68823 17.176C7.68823 17.9121 7.09082 18.5093 6.35474 18.5093Z" fill="#333333"/>
<path d="M32.1936 26.5508C30.1775 24.8467 29.0215 22.356 29.0215 19.7173V16C29.0215 11.3081 25.5361 7.42407 21.0215 6.77344V5.33325C21.0215 4.59595 20.4241 4 19.6882 4C18.9521 4 18.3547 4.59595 18.3547 5.33325V6.77344C13.8389 7.42407 10.3547 11.3081 10.3547 16V19.7173C10.3547 22.356 9.19873 24.8467 7.1709 26.5613C6.6521 27.0054 6.35474 27.6506 6.35474 28.3333C6.35474 29.6201 7.40137 30.6667 8.68823 30.6667H30.6882C31.9748 30.6667 33.0215 29.6201 33.0215 28.3333C33.0215 27.6506 32.7241 27.0054 32.1936 26.5508Z" fill="#333333"/>
<path d="M19.6882 36C21.6729 36 23.391 34.837 24.1976 33.1576C24.4714 32.5874 23.9952 32 23.3627 32H16.0136C15.3812 32 14.905 32.5873 15.1787 33.1575C15.9852 34.837 17.7034 36 19.6882 36Z" fill="#333333"/>
</svg>
