<svg width="40" height="40" viewBox="0 0 40 40" fill="none" xmlns="http://www.w3.org/2000/svg">
<path d="M32.8386 26.5508C30.8228 24.8467 29.6667 22.356 29.6667 19.7173V16C29.6667 11.3081 26.1814 7.42407 21.6667 6.77344V5.33325C21.6667 4.59595 21.0693 4 20.3333 4C19.5974 4 19 4.59595 19 5.33325V6.77344C14.4839 7.42407 11 11.3081 11 16V19.7173C11 22.356 9.84399 24.8467 7.81592 26.5613C7.29736 27.0054 7 27.6506 7 28.3333C7 29.6201 8.04663 30.6667 9.33325 30.6667H31.3333C32.6201 30.6667 33.6667 29.6201 33.6667 28.3333C33.6667 27.6506 33.3694 27.0054 32.8386 26.5508Z" fill="#333333"/>
<path d="M20.3333 36C22.3181 36 24.0363 34.837 24.8428 33.1575C25.1165 32.5873 24.6403 32 24.0078 32H16.6588C16.0263 32 15.5501 32.5874 15.8239 33.1576C16.6305 34.837 18.3486 36 20.3333 36Z" fill="#333333"/>
</svg>
