<svg width="40" height="40" viewBox="0 0 40 40" fill="none" xmlns="http://www.w3.org/2000/svg">
<path d="M17.3333 36C19.3181 36 21.0363 34.837 21.8428 33.1575C22.1165 32.5873 21.6403 32 21.0078 32H13.6588C13.0263 32 12.5501 32.5874 12.8239 33.1576C13.6305 34.837 15.3486 36 17.3333 36Z" fill="#333333"/>
<path d="M27.4346 23.3279C27.3999 23.3279 27.3679 23.3333 27.3333 23.3333C21.4519 23.3333 16.6667 18.5481 16.6667 12.6667C16.6667 10.356 17.4133 8.22144 18.6667 6.47192V5.33325C18.6667 4.59595 18.0693 4 17.3333 4C16.5974 4 16 4.59595 16 5.33325V6.77344C11.4839 7.42407 8 11.3081 8 16V19.7173C8 22.356 6.84399 24.8467 4.81592 26.5613C4.29736 27.0054 4 27.6506 4 28.3333C4 29.6201 5.04663 30.6667 6.33325 30.6667H28.3333C29.6201 30.6667 30.6667 29.6201 30.6667 28.3333C30.6667 27.6506 30.3694 27.0054 29.8374 26.5508C28.7866 25.6614 27.9761 24.5547 27.4346 23.3279Z" fill="#333333"/>
<path d="M27.3333 4C22.5547 4 18.6667 7.88794 18.6667 12.6667C18.6667 17.4453 22.5547 21.3333 27.3333 21.3333C32.1121 21.3333 36 17.4453 36 12.6667C36 7.88794 32.1121 4 27.3333 4ZM31.3413 11.2068L27.0081 16.2068C26.7654 16.4866 26.4172 16.6521 26.0481 16.6667C26.032 16.6667 26.0161 16.6667 26 16.6667C25.6467 16.6667 25.3081 16.5266 25.0574 16.2759L22.7241 13.9426C22.2026 13.4214 22.2026 12.5786 22.7241 12.0574C23.2454 11.5359 24.0879 11.5359 24.6094 12.0574L25.9307 13.3787L29.3254 9.46143C29.8081 8.90405 30.6506 8.84668 31.2068 9.32666C31.7627 9.80811 31.8228 10.6506 31.3413 11.2068Z" fill="#333333"/>
</svg>
