<svg width="40" height="40" viewBox="0 0 40 40" fill="none" xmlns="http://www.w3.org/2000/svg">
<path d="M19.959 34.0004H12.001V17.0644C12.001 14.6884 13.279 12.5504 15.407 11.4884L16.001 11.2104V6.0004H20.001V11.2104L20.511 11.4884C22.639 12.5504 24.001 14.5004 24.001 16.5784V18.0104H18.001V21.0104C18.001 24.5404 20.603 27.4404 24.001 27.9144V34.0004H19.959ZM30.001 21.0104C30.001 23.7664 27.717 26.0104 24.959 26.0104C22.201 26.0104 20.001 23.7664 20.001 21.0104V20.0104H30.001V21.0104ZM32.001 21.0104V18.0104H26.001V16.5784C26.001 13.9304 24.483 11.4584 22.001 10.0004V4.0004H14.001V10.0004C11.517 11.4844 10.001 14.1364 10.001 17.0644V36.0004H19.959H30.001V34.0004H26.001V27.9044C29.371 27.3984 32.001 24.5144 32.001 21.0104Z" fill="#333333"/>
</svg>
