<svg width="40" height="40" viewBox="0 0 40 40" fill="none" xmlns="http://www.w3.org/2000/svg">
<path d="M16 19.9902C17.106 19.9902 18 20.8842 18 21.9902C18 23.0942 17.106 23.9902 16 23.9902C14.894 23.9902 14 23.0942 14 21.9902C14 20.8842 14.894 19.9902 16 19.9902ZM24 19.9902C25.106 19.9902 26 20.8842 26 21.9902C26 23.0942 25.106 23.9902 24 23.9902C22.894 23.9902 22 23.0942 22 21.9902C22 20.8842 22.894 19.9902 24 19.9902ZM31.834 22.004C33.024 22.004 33.922 21.154 33.922 20.03C33.922 18.904 32.996 18.024 31.812 18.024H29.63L29.244 22.004H31.834ZM27.814 16.024H31.322C31.68 15.032 31.97 13.738 32.098 12.47C32.22 11.252 32.154 10.034 31.9 8.832C31.37 10.378 30.784 11.83 29.412 13.056L29.128 13.31H10.714L10.432 13.056C9.06 11.83 8.474 10.378 7.944 8.832C7.69 10.034 7.624 11.252 7.746 12.47C7.874 13.732 8.162 15.022 8.516 16.012H12.004L13.088 27.012C17.302 24.726 22.532 24.726 26.748 27.008L27.814 16.024ZM13.604 32.244C17.414 34.544 22.426 34.544 26.24 32.246L26.536 29.202C22.554 26.65 17.286 26.65 13.304 29.204L13.604 32.244ZM7.994 22.012H10.586L10.192 18.012H8.01C6.84 18.012 5.922 18.898 5.922 20.03C5.922 21.16 6.812 22.012 7.994 22.012ZM33.344 16.318C34.852 16.912 36 18.35 36 20.03C36 22.258 34.126 24.004 31.834 24.004H29.048L28.136 33.404L27.736 33.666C25.41 35.194 22.708 36 19.922 36C17.136 36 14.434 35.194 12.108 33.666L11.708 33.404L10.784 24.012H7.994C5.71 24.012 4 22.262 4 20.03C4 18.308 4.974 16.878 6.492 16.296C6.148 15.22 5.884 13.938 5.758 12.67C5.548 10.612 5.802 8.66 6.514 6.664L6.75 6H9.04L9.28 6.66C9.414 7.036 9.538 7.296 9.658 7.658C10.138 9.084 10.556 10.332 11.5 11.31H28.344C29.288 10.332 29.706 9.084 30.186 7.658C30.306 7.296 30.43 7.036 30.564 6.66L30.804 6H33.094L33.33 6.664C34.042 8.66 34.294 10.612 34.086 12.67C33.958 13.946 33.692 15.238 33.344 16.318Z" fill="#333333"/>
</svg>
