<svg width="20" height="20" viewBox="0 0 20 20" fill="none" xmlns="http://www.w3.org/2000/svg">
<path fill-rule="evenodd" clip-rule="evenodd" d="M11 5H9V11H11V5Z" fill="#333333"/>
<path fill-rule="evenodd" clip-rule="evenodd" d="M10 13C10.2 13 10.5 13.1 10.7 13.3C10.9 13.5 11 13.7 11 14C11 14.3 10.9 14.5 10.7 14.7C10.5 14.9 10.2 15 10 15C9.8 15 9.5 14.9 9.3 14.7C9.1 14.5 9 14.3 9 14C9 13.7 9.1 13.5 9.3 13.3C9.4 13.1 9.7 13 10 13Z" fill="#333333"/>
<path fill-rule="evenodd" clip-rule="evenodd" d="M10 18C14.4 18 18 14.4 18 10C18 5.6 14.4 2 10 2C5.6 2 2 5.6 2 10C2 14.4 5.6 18 10 18ZM17 10C17 13.9 13.9 17 10 17C6.1 17 3 13.9 3 10C3 6.1 6.1 3 10 3C13.9 3 17 6.1 17 10ZM11 11V5H9V11H11ZM10 13C10.2 13 10.5 13.1 10.7 13.3C10.9 13.5 11 13.7 11 14C11 14.3 10.9 14.5 10.7 14.7C10.5 14.9 10.2 15 10 15C9.8 15 9.5 14.9 9.3 14.7C9.1 14.5 9 14.3 9 14C9 13.7 9.1 13.5 9.3 13.3C9.4 13.1 9.7 13 10 13Z" fill="#333333"/>
</svg>
