<svg width="40" height="40" viewBox="0 0 40 40" fill="none" xmlns="http://www.w3.org/2000/svg">
<path fill-rule="evenodd" clip-rule="evenodd" d="M36 20C36 28.8 28.8 36 20 36C11.2 36 4 28.8 4 20C4 11.2 11.2 4 20 4C28.8 4 36 11.2 36 20ZM34 20C34 12.3 27.7 6 20 6C12.3 6 6 12.3 6 20C6 27.7 12.3 34 20 34C27.7 34 34 27.7 34 20ZM16 29H18V26H24V24H18V22H22C24.8 22 27 19.8 27 17C27 14.2 24.8 12 22 12H16V20H14V22H16V24H14V26H16V29ZM25 17C25 15.3 23.7 14 22 14H18V20H22C23.7 20 25 18.7 25 17Z" fill="#333333"/>
</svg>
