<svg width="40" height="40" viewBox="0 0 40 40" fill="none" xmlns="http://www.w3.org/2000/svg">
<path d="M7.42182 10.9668L5.99982 9.55279C9.60182 5.97079 14.3958 4.00079 19.4998 4.00079C24.6058 4.00079 29.3978 5.97079 32.9998 9.55279L31.5778 10.9668C28.3578 7.76079 24.0698 6.00079 19.4998 6.00079C14.9318 6.00079 10.6418 7.76079 7.42182 10.9668ZM23.0528 19.4804C21.1108 17.5504 17.8888 17.5504 15.9468 19.4804L14.5248 18.0664C17.2968 15.3104 21.7028 15.3104 24.4748 18.0664L23.0528 19.4804ZM27.3144 15.207C23.0164 10.931 15.9844 10.931 11.6864 15.207L10.2644 13.793C15.3484 8.73699 23.6524 8.73699 28.7364 13.793L27.3144 15.207ZM23.5214 36L19.5134 24.004L15.4794 35.97L13.4674 35.296L18.3094 22L20.7314 22.004L25.5334 35.338L23.5214 36Z" fill="#333333"/>
</svg>
