<svg width="21" height="21" viewBox="0 0 21 21" fill="none" xmlns="http://www.w3.org/2000/svg">
<path d="M7.80505 17.875H1.24989C1.08943 17.8696 0.934723 17.8137 0.80792 17.7151C0.679629 17.6153 0.586638 17.4771 0.542552 17.3206L0.54267 17.3206L0.539433 17.31C0.4896 17.1471 0.486945 16.9734 0.531774 16.809C0.574798 16.6512 0.659868 16.5083 0.777722 16.3953C1.47951 15.8603 2.04967 15.1717 2.44443 14.3822C2.84319 13.5847 3.05217 12.7058 3.05505 11.8141V11.8125V7.875C3.05505 5.91903 3.83205 4.04317 5.21514 2.66009C6.59822 1.27701 8.47408 0.5 10.43 0.5C12.386 0.5 14.2619 1.27701 15.645 2.66009C17.028 4.04317 17.805 5.91903 17.805 7.875L17.805 11.8125L17.805 11.8141C17.8079 12.7058 18.0169 13.5847 18.4157 14.3822C18.8139 15.1787 19.3907 15.8725 20.1011 16.4095C20.2277 16.5082 20.3189 16.6452 20.3612 16.8C20.4036 16.9557 20.3942 17.121 20.3344 17.2709L20.3247 17.2953L20.3175 17.3206C20.2735 17.4771 20.1805 17.6153 20.0522 17.7151C19.9254 17.8137 19.7707 17.8696 19.6102 17.875H13.055H12.555V18.375C12.555 18.9386 12.3312 19.4791 11.9326 19.8776C11.5341 20.2761 10.9936 20.5 10.43 20.5C9.86646 20.5 9.32596 20.2761 8.92745 19.8776C8.52893 19.4791 8.30505 18.9386 8.30505 18.375V17.875H7.80505Z" fill="#00B956" stroke="#00B956"/>
</svg>
