<svg width="40" height="40" viewBox="0 0 40 40" fill="none" xmlns="http://www.w3.org/2000/svg">
<path d="M23.9902 31.2906V30.7255L19.9902 28.3327L15.9902 30.7255V31.2906L19.9902 33.6834L23.9902 31.2906ZM13.9902 29.5852L19.9902 26L25.9902 29.5852V32.4289L19.9902 36L13.9902 32.4289V29.5852ZM20.0158 10C21.1238 10 22.0195 9.106 22.0195 8C22.0195 6.894 21.1238 6 20.0158 6C18.9078 6 18.0121 6.894 18.0121 8C18.0121 9.106 18.9078 10 20.0158 10ZM29.9339 11.566C34.6826 16.308 35.2516 23.608 31.7492 29.03C31.9155 29.32 32.0378 29.64 32.0378 30C32.0378 31.106 31.1421 32 30.0341 32C28.9261 32 28.0304 31.106 28.0304 30C28.0304 28.894 28.9261 28 30.0341 28C30.0541 28 30.0702 28.01 30.0862 28.012C33.1197 23.36 32.6008 17.056 28.5173 12.98C27.229 11.696 25.2494 10.552 23.5022 9.934C22.9752 10.876 22.0876 11.58 21.0176 11.858V20.306C21.6067 20.654 22.0195 21.268 22.0195 22C22.0195 23.106 21.1238 24 20.0158 24C18.9078 24 18.0121 23.106 18.0121 22C18.0121 21.268 18.4249 20.654 19.014 20.306V11.858C17.958 11.584 17.0784 10.894 16.5495 9.968C14.7983 10.586 12.8006 11.696 11.5143 12.98C7.43079 17.056 6.91184 23.36 9.94539 28.012C9.96142 28.01 9.97745 28 9.99748 28C11.1055 28 12.0011 28.894 12.0011 30C12.0011 31.106 11.1055 32 9.99748 32C8.88946 32 7.99382 31.106 7.99382 30C7.99382 29.662 8.10001 29.358 8.24829 29.078C4.72785 23.654 5.34097 16.314 10.0977 11.566C11.6485 10.02 13.9387 8.702 16.0105 8.022C16.0105 8.014 16.0085 8.008 16.0085 8C16.0085 5.792 17.8037 4 20.0158 4C22.2278 4 24.0231 5.792 24.0231 8V8.008C26.1029 8.686 28.3751 10.012 29.9339 11.566Z" fill="#333333"/>
</svg>
