<svg width="40" height="40" viewBox="0 0 40 40" fill="none" xmlns="http://www.w3.org/2000/svg">
<path d="M19.959 24.0004L20.731 22.8224L21.933 24.5384L20.905 26.0004H19.013L12.719 17.2204C11.761 15.8684 11.761 14.1184 12.719 12.7644L19.013 4.0004H20.905L27.281 12.7644C28.241 14.1184 28.241 15.8684 27.281 17.2224L26.901 17.6084L25.723 15.9284C26.097 15.2944 26.085 14.5264 25.653 13.9184L19.959 6.0004L14.345 13.9164C13.885 14.5704 13.885 15.4144 14.345 16.0684L19.959 24.0004ZM27.2812 22.764C28.2392 24.118 28.2392 25.868 27.2812 27.222L20.9052 36H19.0132L12.7192 27.222C11.7612 25.868 11.7612 24.118 12.7192 22.764L13.0212 22.41L14.2352 24.142C13.9112 24.758 13.9332 25.484 14.3452 26.068L19.9592 34L25.6532 26.068C26.1152 25.414 26.1152 24.57 25.6532 23.918L19.9592 16L19.0012 17.446L17.7932 15.722L19.0132 14H20.9052L27.2812 22.764Z" fill="#333333"/>
</svg>
