<svg width="40" height="40" viewBox="0 0 40 40" fill="none" xmlns="http://www.w3.org/2000/svg">
<path fill-rule="evenodd" clip-rule="evenodd" d="M34 19C34 16.6 32.3 14.6 30 14.1V4H15.6L6 14.6V36H29C32.9 36 36 32.9 36 29V22H34V19ZM32 19V22H26V19C26 17.3 27.3 16 29 16C30.7 16 32 17.3 32 19ZM8 15.4V34H24.1C22.8 32.7 22 31 22 29V22H24V19C24 16.5 25.7 14.6 28 14.1V6H16.4L8 15.4ZM34 29C34 31.8 31.8 34 29 34C26.2 34 24 31.8 24 29V24H34V29ZM29 26C27.9 26 27 26.9 27 28C27 28.7 27.4 29.3 28 29.7V32H30V29.7C30.6 29.3 31 28.7 31 28C31 26.9 30.1 26 29 26Z" fill="#333333"/>
</svg>
