<svg width="40" height="40" viewBox="0 0 40 40" fill="none" xmlns="http://www.w3.org/2000/svg">
<path fill-rule="evenodd" clip-rule="evenodd" d="M30 26C30 31.5 25.5 36 20 36C14.5 36 10 31.5 10 26V16H12V12C12 7.6 15.6 4 20 4C24.4 4 28 7.6 28 12V16H30V26ZM19 30V25.7C18.4 25.3 18 24.7 18 24C18 22.9 18.9 22 20 22C21.1 22 22 22.9 22 24C22 24.7 21.6 25.4 21 25.7V30H19ZM14 12C14 8.7 16.7 6 20 6C23.3 6 26 8.7 26 12V16H14V12ZM28 18H12V26C12 30.4 15.6 34 20 34C24.4 34 28 30.4 28 26V18Z" fill="#333333"/>
</svg>
