<svg width="40" height="40" viewBox="0 0 40 40" fill="none" xmlns="http://www.w3.org/2000/svg">
<path fill-rule="evenodd" clip-rule="evenodd" d="M32 24V36H8V24H6V14H10.6C9.6 12.9 9 11.5 9 10C9 6.7 11.7 4 15 4C17.1 4 18.9 5.1 20 6.7C21.1 5.1 22.9 4 25 4C28.3 4 31 6.7 31 10C31 11.5 30.4 12.9 29.4 14H34V24H32ZM19 24H10V34H19V24ZM30 34H21V24H30V34ZM29 10C29 7.8 27.2 6 25 6C22.8 6 21 7.8 21 10V14H25C27.2 14 29 12.2 29 10ZM11 10C11 7.8 12.8 6 15 6C17.2 6 19 7.8 19 10V14H15C12.8 14 11 12.2 11 10ZM8 16V22H32V16H8Z" fill="#333333"/>
</svg>
