<svg width="40" height="40" viewBox="0 0 40 40" fill="none" xmlns="http://www.w3.org/2000/svg">
<path d="M11.9662 16.001H17.9495V9.99531H11.9662V16.001ZM9.97375 16.001V9.99531H5.99107C4.88882 9.99531 3.99263 10.8896 3.99263 11.988V16.001H9.97375ZM19.942 16.001H25.9233V9.99531H19.942V16.001ZM27.9157 16.001H34.9909C34.5706 14.2749 33.9803 12.5614 33.1531 11.0657C32.791 10.4075 32.1109 9.99731 31.3767 9.99531H27.9157V16.001ZM24.0509 25.9905C24.5205 23.7179 26.5413 22.0031 28.9552 22.0031C31.3692 22.0031 33.3901 23.7181 33.8595 25.9909H36.0077V25.1786C36.0077 23.6852 35.9216 20.9395 35.4057 17.9957H3.99263V25.9909H6.06646C6.53583 23.7181 8.55674 22.0031 10.9708 22.0031C13.3847 22.0031 15.4055 23.7179 15.875 25.9905H24.0509ZM24.0455 27.9852H15.8804C15.4213 30.2724 13.3941 32.0006 10.9708 32.0006C8.54759 32.0006 6.52052 30.2726 6.06119 27.9856H2.00018V11.988C2.00018 9.79124 3.78858 8.00261 5.98907 8.00061H31.3787C32.839 8.00461 34.1873 8.81089 34.8995 10.1013C37.7001 15.1611 38.0002 22.3296 38.0002 25.1786V27.9856H33.8648C33.4054 30.2726 31.3784 32.0006 28.9552 32.0006C26.5318 32.0006 24.5047 30.2724 24.0455 27.9852ZM10.9708 23.9978C9.30841 23.9978 7.95611 25.3443 7.95611 27.0009C7.95611 28.6594 9.30841 30.0059 10.9708 30.0059C12.6331 30.0059 13.9854 28.6594 13.9854 27.0009C13.9854 25.3443 12.6331 23.9978 10.9708 23.9978ZM28.9552 23.9978C27.2928 23.9978 25.9405 25.3443 25.9405 27.0009C25.9405 28.6594 27.2928 30.0059 28.9552 30.0059C30.6175 30.0059 31.9698 28.6594 31.9698 27.0009C31.9698 25.3443 30.6175 23.9978 28.9552 23.9978Z" fill="#333333"/>
</svg>
