<svg width="40" height="40" viewBox="0 0 40 40" fill="none" xmlns="http://www.w3.org/2000/svg">
<path fill-rule="evenodd" clip-rule="evenodd" d="M16 8.38479L17.557 6.82779L21.404 10.8298L19 13.2348L19.33 13.8818C20.865 16.8918 23.108 18.9808 26.118 20.5158L26.766 20.8458L29.17 18.4418L33.172 22.4438L31.615 23.9998H31.476C23.059 23.9998 16 17.0118 16 8.52479V8.38479ZM31.476 25.9998H32.443L36 22.4438L29.17 15.6138L26.394 18.3898C24.247 17.1508 22.695 15.7528 21.456 13.6068L24.232 10.8298L17.557 3.99979L14 7.55679V8.52479C14 17.9998 22 25.9998 31.476 25.9998ZM6 18.3848L7.557 16.8278L11.404 20.8298L9 23.2348L9.33 23.8818C10.865 26.8918 13.108 28.9808 16.118 30.5158L16.766 30.8458L19.17 28.4418L23.172 32.4438L21.615 33.9998H21.476C13.059 33.9998 6 27.0118 6 18.5248V18.3848ZM21.476 35.9998H22.443L26 32.4438L19.17 25.6138L16.394 28.3898C14.247 27.1508 12.695 25.7528 11.456 23.6068L14.232 20.8298L7.557 13.9998L4 17.5568V18.5248C4 27.9998 12 35.9998 21.476 35.9998Z" fill="#333333"/>
</svg>
