<svg width="40" height="40" viewBox="0 0 40 40" fill="none" xmlns="http://www.w3.org/2000/svg">
<path fill-rule="evenodd" clip-rule="evenodd" d="M11 13.3848L12.557 11.8278L16.404 15.8298L14 18.2348L14.33 18.8818C15.865 21.8918 18.108 23.9808 21.118 25.5158L21.766 25.8458L24.17 23.4418L28.172 27.4438L26.615 28.9998H26.476C18.059 28.9998 11 22.0118 11 13.5248V13.3848ZM26.476 30.9998H27.443L31 27.4438L24.17 20.6138L21.394 23.3898C19.247 22.1508 17.695 20.7528 16.456 18.6068L19.232 15.8298L12.557 8.99979L9 12.5568V13.5248C9 22.9998 17 30.9998 26.476 30.9998Z" fill="#333333"/>
</svg>
