<svg width="40" height="40" viewBox="0 0 40 40" fill="none" xmlns="http://www.w3.org/2000/svg">
<path fill-rule="evenodd" clip-rule="evenodd" d="M17 6V4C27.477 4 36 12.523 36 23H34C34 13.626 26.374 6 17 6ZM17 18V16C20.859 16 24 19.141 24 23H22C22 20.243 19.757 18 17 18ZM17 12V10C24.168 10 30 15.832 30 23H28C28 16.935 23.065 12 17 12ZM6 18.3848L7.557 16.8278L11.404 20.8298L9 23.2348L9.33 23.8818C10.865 26.8918 13.108 28.9808 16.118 30.5158L16.766 30.8458L19.17 28.4418L23.172 32.4438L21.615 33.9998H21.476C13.059 33.9998 6 27.0118 6 18.5248V18.3848ZM21.476 35.9998H22.443L26 32.4438L19.17 25.6138L16.394 28.3898C14.247 27.1508 12.695 25.7528 11.456 23.6068L14.232 20.8298L7.557 13.9998L4 17.5568V18.5248C4 27.9998 12 35.9998 21.476 35.9998Z" fill="#333333"/>
</svg>
