<svg width="40" height="40" viewBox="0 0 40 40" fill="none" xmlns="http://www.w3.org/2000/svg">
<path d="M36 24.0372H33.9C33.442 21.7592 31.42 20.0412 29 20.0412C26.58 20.0412 24.558 21.7592 24.1 24.0372H15.888C15.43 21.7592 13.408 20.0412 10.988 20.0412C8.568 20.0412 6.546 21.7592 6.088 24.0372H4V21.9332C4 20.5572 4.26 19.2312 4.728 17.9972H29.624C30.278 18.0252 31.234 18.0712 31.656 18.1072C34.092 18.3232 36 20.4872 36 23.0352V24.0372ZM29 27.9992C27.346 27.9992 26 26.6612 26 25.0192C26 23.3772 27.346 22.0412 29 22.0412C30.654 22.0412 32 23.3772 32 25.0192C32 26.6612 30.654 27.9992 29 27.9992ZM10.988 27.9992C9.334 27.9992 7.988 26.6612 7.988 25.0192C7.988 23.3772 9.334 22.0412 10.988 22.0412C12.642 22.0412 13.988 23.3772 13.988 25.0192C13.988 26.6612 12.642 27.9992 10.988 27.9992ZM7.916 13.5592C9.488 12.2872 11.796 11.2732 13.988 10.6572V15.9972H5.738C6.33 15.0832 7.054 14.2552 7.916 13.5592ZM18 9.99921C21.454 9.99921 23.956 10.9252 25.648 12.8292C26.642 13.9492 27.252 15.1392 27.608 15.9972H15.988V10.2012C16.714 10.0792 17.402 9.99921 17.988 9.99921H18ZM38 23.0352C38 19.4592 35.292 16.4192 31.832 16.1152C31.51 16.0852 30.884 16.0532 30.306 16.0272V15.9972H29.75C29.412 15.0072 28.644 13.1892 27.144 11.5012C25.046 9.14521 22.056 7.99921 18 7.99921H17.988C14.918 7.99921 9.712 9.53121 6.658 12.0032C3.698 14.3992 2 18.0192 2 21.9332V26.0372H6.096C6.568 28.2972 8.58 29.9992 10.988 29.9992C13.396 29.9992 15.408 28.2972 15.88 26.0372H24.108C24.58 28.2972 26.592 29.9992 29 29.9992C31.408 29.9992 33.42 28.2972 33.892 26.0372H38V23.0352Z" fill="#333333"/>
</svg>
