<svg width="40" height="40" viewBox="0 0 40 40" fill="none" xmlns="http://www.w3.org/2000/svg">
<path d="M36 32.0032V19.9972C36 18.8952 35.104 18.0012 34.002 18.0012H32V20.0012C32 22.2052 30.204 24.0012 27.996 24.0012H10V32.0032C10 33.1032 10.896 34.0012 11.998 34.0012H34.002C35.104 34.0012 36 33.1032 36 32.0032ZM4 19.9952C4 21.1012 4.9 22.0012 6.004 22.0012H27.996C29.1 22.0012 30 21.1032 30 20.0012V12.0012H4V19.9952ZM6.008 6.00119C4.9 6.00119 4 6.90119 4 8.00719V10.0012H30V8.00519C30 6.89919 29.1 6.00119 27.996 6.00119H6.008ZM34.002 16.0012C36.208 16.0012 38 17.7932 38 19.9972V32.0032C38 34.2072 36.208 36.0012 34.002 36.0012H11.998C9.792 36.0012 8 34.2072 8 32.0032V24.0012H6.004C3.796 24.0012 2 22.2032 2 19.9952V8.00719C2 5.79719 3.798 4.00119 6.008 4.00119H27.996C30.204 4.00119 32 5.79519 32 8.00519V16.0012H34.002ZM12 32V30H16V32H12ZM30 32V30H34V32H30ZM24 32V30H28V32H24ZM18 32V30H22V32H18Z" fill="#333333"/>
</svg>
