<svg width="40" height="39" viewBox="0 0 40 39" fill="none" xmlns="http://www.w3.org/2000/svg">
<path d="M22.0109 6V10.2102C24.2855 10.6762 26.0008 12.6722 26.0008 15.0562C26.0008 16.6615 25.2234 18.0902 24.022 18.9943L30.5278 24.002H36V36H6V24.002H11.3772L17.9386 18.9641C16.76 18.0586 16 16.6437 16 15.0562H17.996C17.996 16.6822 19.3583 18.0022 21 18.0022C22.6417 18.0022 24.001 16.6822 24.001 15.0562C24.001 13.4322 22.6417 12.0002 21 12.0002H19.9992V6H16V4H26V6H22.0109ZM27.1918 24.002L22.0888 20.0535H20.065L14.7917 24.002H27.1918ZM8 34.002H34.002V26.002H8V34.002Z" fill="#333333"/>
</svg>
