<svg width="40" height="40" viewBox="0 0 40 40" fill="none" xmlns="http://www.w3.org/2000/svg">
<path fill-rule="evenodd" clip-rule="evenodd" d="M24 26H16V17.414L19.414 14H24V26ZM26 12H18.586L14 16.586V28H26V12ZM36 21.3857V19.9997C36 15.7257 34.336 11.7067 31.313 8.68669C28.293 5.66369 24.274 3.99969 20 3.99969C15.726 3.99969 11.707 5.66369 8.687 8.68669L10.101 10.1007C12.744 7.45569 16.26 5.99969 20 5.99969C23.74 5.99969 27.256 7.45569 29.899 10.1007C32.544 12.7437 34 16.2597 34 19.9997V21.3857L32.823 18.4307L31 19.5677L34.236 23.9987H35.764L39 19.5677L37.177 18.4307L36 21.3857ZM20 34C16.26 34 12.744 32.544 10.101 29.899C7.456 27.256 6 23.74 6 20V18.612L7.177 21.567L9 20.431L5.764 15.999H4.236L1 20.431L2.823 21.567L4 18.612V20C4 24.274 5.664 28.293 8.687 31.313C11.707 34.336 15.726 36 20 36C24.274 36 28.293 34.336 31.313 31.313L29.899 29.899C27.256 32.544 23.74 34 20 34Z" fill="#333333"/>
</svg>
