<svg width="40" height="40" viewBox="0 0 40 40" fill="none" xmlns="http://www.w3.org/2000/svg">
<path d="M12.02 29.998V26H14V29.998H12.02ZM26.016 29.998V26H28V29.998H26.016ZM30 34.0414V23.9994C30 23.2814 29.608 22.6174 28.986 22.2634L24.012 19.9994V15.9994L15.988 15.9674V19.9994L10.954 22.2934C10.386 22.6174 10 23.2834 10 23.9994V34.0414H16.004L16 28.0414C16 26.9754 16.414 25.9694 17.17 25.2134C17.924 24.4574 18.928 24.0414 19.996 24.0414C22.202 24.0414 23.994 25.8334 23.994 28.0394V34.0414H30ZM16.772 8.80739C15.014 9.55139 14 10.6494 14 11.9994C14 13.1394 14.75 13.5494 15.896 14.0254H24.092C25.25 13.5454 26 12.5254 26 11.3914C26 10.0394 24.994 9.55139 23.236 8.80739C22.088 8.32139 20.834 7.78939 20.004 6.78739C19.174 7.78939 17.92 8.32139 16.772 8.80739ZM29.92 20.4974C31.218 21.2354 31.992 22.5654 31.992 23.9994V35.9994H21.994V28.0394C21.994 26.9374 21.098 26.0414 19.996 26.0414C19.462 26.0414 18.96 26.2494 18.584 26.6274C18.208 27.0034 17.998 27.5054 18 28.0394L18.004 35.9994H8V23.9994C8 22.5674 8.774 21.2374 10.02 20.5254L13.988 18.5854V15.2274C12.76 14.3154 12.02 12.9194 12.02 11.3914C12.02 8.64939 14.222 7.71539 15.992 6.96539C17.586 6.29139 18.574 5.80539 18.846 4.74939L19.04 3.99939H20.968L21.162 4.74939C21.434 5.80539 22.422 6.29139 24.016 6.96539C25.786 7.71539 27.988 8.64939 27.988 11.3914C27.988 12.9154 27.246 14.3074 26.012 15.2214V18.5834L29.92 20.4974Z" fill="#333333"/>
</svg>
