<svg width="40" height="40" viewBox="0 0 40 40" fill="none" xmlns="http://www.w3.org/2000/svg">
<path d="M20 33.9946C27.718 33.9946 33.996 27.7166 33.996 20.0006C33.996 12.2846 27.718 6.00461 20 6.00461C12.282 6.00461 6.004 12.2846 6.004 20.0006C6.004 27.7166 12.282 33.9946 20 33.9946ZM20 4.00061C28.822 4.00061 36 11.1766 36 20.0006C36 28.8226 28.822 36.0006 20 36.0006C11.178 36.0006 4 28.8226 4 20.0006C4 11.1766 11.178 4.00061 20 4.00061ZM22 19.143V16.001H24V24.001H22V21.149H19.996V24.001H17.996V16.001H19.996V19.143H22ZM28.004 16.0004H30V18.0004H28.004V24.0004H26V16.0004H27.032H28.004ZM15.6054 18.2572C14.7514 17.6172 13.4914 17.7072 12.7394 18.4592C12.3254 18.8732 12.0974 19.4232 12.0974 20.0072C12.0974 20.5912 12.3254 21.1412 12.7394 21.5532C13.4934 22.3052 14.7514 22.3912 15.6034 21.7572L16.8074 23.3612C16.0734 23.9112 15.2034 24.2012 14.2894 24.2012C13.1694 24.2012 12.1154 23.7632 11.3214 22.9732C10.5294 22.1812 10.0934 21.1272 10.0934 20.0072C10.0934 18.8852 10.5294 17.8332 11.3214 17.0412C12.7634 15.6012 15.1854 15.4312 16.8094 16.6532L15.6054 18.2572Z" fill="#333333"/>
</svg>
