<svg width="20" height="20" viewBox="0 0 20 20" fill="none" xmlns="http://www.w3.org/2000/svg">
<path d="M5.2 3.60379H9.77822H10.2218H14.8C16.7419 5.06478 18 7.38825 18 10C18 12.6118 16.7419 14.9352 14.8 16.3962H10.2218H9.77815H5.2C3.25806 14.9352 2 12.6118 2 10C2 7.38825 3.25806 5.06478 5.2 3.60379ZM6.8 2.66804C7.78043 2.23847 8.86289 2 10 2C11.1371 2 12.2196 2.23847 13.2 2.66804H6.8ZM6.8 17.332H13.2C12.2196 17.7615 11.1371 18 10 18C8.86289 18 7.78043 17.7615 6.8 17.332ZM10 3.6C9.92577 3.6 9.85184 3.60127 9.77822 3.60379C6.35094 3.72102 3.6 6.54462 3.6 10C3.6 13.4554 6.35091 16.2789 9.77815 16.3962C9.85179 16.3987 9.92575 16.4 10 16.4C10.0742 16.4 10.1482 16.3987 10.2218 16.3962C13.6491 16.2789 16.4 13.4554 16.4 10C16.4 6.54462 13.6491 3.72102 10.2218 3.60379C10.1482 3.60127 10.0742 3.6 10 3.6ZM7.91408 13.1773L6.78288 12.0461L9.16688 9.66208V5.24928H10.7669V10.3245L7.91408 13.1773Z" fill="#333333"/>
<path d="M9.77822 3.60379C9.85184 3.60127 9.92577 3.6 10 3.6C10.0742 3.6 10.1482 3.60127 10.2218 3.60379H14.8L13.2 2.66804H6.8L5.2 3.60379H9.77822Z" fill="#333333"/>
<path d="M10 16.4C9.92575 16.4 9.85179 16.3987 9.77815 16.3962H5.2L6.8 17.332H13.2L14.8 16.3962H10.2218C10.1482 16.3987 10.0742 16.4 10 16.4Z" fill="#333333"/>
</svg>
