<svg width="40" height="40" viewBox="0 0 40 40" fill="none" xmlns="http://www.w3.org/2000/svg">
<path d="M8.26957 21.246C5.91757 21.246 4.13757 23.182 4.13757 25.56C4.13757 27.94 5.91757 29.876 8.26957 29.876H30.6636C33.6036 29.876 35.8636 27.458 35.8636 24.486C35.8636 21.514 33.6036 19.094 30.6636 19.094H29.5956V18.032C29.5956 12.688 25.2916 8.124 19.9996 8.124C14.7096 8.124 10.4036 12.688 10.4036 18.032V21.246H8.26957ZM30.6636 32H8.26957C4.73957 32 1.99957 29.112 1.99957 25.56C1.99957 22.01 4.73957 19.122 8.26757 19.122V18.032C8.26757 11.518 13.5316 6 19.9996 6C26.1376 6 31.1896 10.988 31.6916 17.04C35.3216 17.546 37.9996 20.692 37.9996 24.486C37.9996 28.628 34.7816 32 30.6636 32Z" fill="#333333"/>
</svg>
