<svg width="40" height="40" viewBox="0 0 40 40" fill="none" xmlns="http://www.w3.org/2000/svg">
<path d="M13.959 19.9826C12.855 19.9826 11.959 20.8806 11.959 21.9826C11.959 23.0846 12.855 23.9826 13.959 23.9826H24.959C26.613 23.9826 27.959 22.6366 27.959 20.9826C27.959 19.5146 26.903 18.2746 25.449 18.0346L24.859 17.9386L24.667 17.3726C23.971 15.3446 22.081 13.9826 19.959 13.9826C17.201 13.9826 14.959 16.2266 14.959 18.9826V19.9826H13.959ZM19.101 25.9826H13.959C11.753 25.9826 9.959 24.1886 9.959 21.9826C9.959 20.1026 11.263 18.5206 13.015 18.0946C13.453 14.6526 16.401 11.9826 19.959 11.9826C22.745 11.9826 25.245 13.6506 26.349 16.1906C28.473 16.7986 29.959 18.7286 29.959 20.9826C29.959 23.7386 27.717 25.9826 24.959 25.9826H19.101ZM36 21.136L37.176 18.43L39 19.568L35.764 24H34.236L31 19.568L32.822 18.43L34 21.136V20C34 16.26 32.542 12.744 29.898 10.1C27.256 7.456 23.74 6 20 6C16.26 6 12.744 7.456 10.1 10.1L8.686 8.686C11.708 5.664 15.724 4 20 4C24.274 4 28.292 5.664 31.312 8.686C34.336 11.708 36 15.726 36 20V21.136ZM20 34.0002C23.74 34.0002 27.256 32.5442 29.898 29.9002L31.312 31.3142C28.292 34.3362 24.274 36.0002 20 36.0002C15.724 36.0002 11.708 34.3362 8.686 31.3142C5.664 28.2922 4 24.2742 4 20.0002V18.8622L2.822 21.5682L1 20.4302L4.236 16.0002H5.764L9 20.4302L7.176 21.5682L6 18.8622V20.0002C6 23.7402 7.456 27.2562 10.1 29.9002C12.744 32.5442 16.26 34.0002 20 34.0002Z" fill="#333333"/>
</svg>
