<svg width="40" height="40" viewBox="0 0 40 40" fill="none" xmlns="http://www.w3.org/2000/svg">
<path d="M18.9236 16H21.0536V30.3455L23.3376 25.9677L25.1596 27.0737L20.9676 34H19.0056L14.8156 27.0837L16.6376 25.9777L18.9236 30.3535V16ZM31.6914 15.041C35.3214 15.547 37.9994 18.693 37.9994 22.485C37.9994 26.629 34.7814 29.999 30.6634 29.999H27.9994V27.875H30.6634C33.6034 27.875 35.8634 25.457 35.8634 22.485C35.8634 19.513 33.6034 17.095 30.6634 17.095H29.5954V16.033C29.5954 10.687 25.2914 6.125 19.9994 6.125C14.7094 6.125 10.4034 10.687 10.4034 16.033V19.247H8.26939C5.91739 19.247 4.13739 21.181 4.13739 23.561C4.13739 25.941 5.91739 27.875 8.26939 27.875H11.9994V29.999H8.26939C4.73939 29.999 1.99939 27.111 1.99939 23.561C1.99939 20.011 4.73939 17.123 8.26739 17.123V16.033C8.26739 9.517 13.5314 3.999 19.9994 3.999C26.1374 3.999 31.1894 8.987 31.6914 15.041Z" fill="#333333"/>
</svg>
