<svg width="40" height="40" viewBox="0 0 40 40" fill="none" xmlns="http://www.w3.org/2000/svg">
<path d="M19.019 17.8834H20.981L25.171 24.7874L23.351 25.8934L21.061 21.5234V35.9114H18.935V21.5314L16.649 25.9014L14.829 24.7974L19.019 17.8834ZM31.6914 17.0412C35.3214 17.5472 37.9994 20.6932 37.9994 24.4852C37.9994 28.6292 34.7814 31.9992 30.6634 31.9992H25.9994V29.8752H30.6634C33.6034 29.8752 35.8634 27.4572 35.8634 24.4852C35.8634 21.5132 33.6034 19.0952 30.6634 19.0952H29.5954V18.0332C29.5954 12.6872 25.2914 8.1252 19.9994 8.1252C14.7094 8.1252 10.4034 12.6872 10.4034 18.0332V21.2472H8.26939C5.91739 21.2472 4.13739 23.1812 4.13739 25.5612C4.13739 27.9412 5.91739 29.8752 8.26939 29.8752H13.9994V31.9992H8.26939C4.73939 31.9992 1.99939 29.1112 1.99939 25.5612C1.99939 22.0112 4.73939 19.1232 8.26739 19.1232V18.0332C8.26739 11.5172 13.5314 5.9992 19.9994 5.9992C26.1374 5.9992 31.1894 10.9872 31.6914 17.0412Z" fill="#333333"/>
</svg>
