<svg width="40" height="40" viewBox="0 0 40 40" fill="none" xmlns="http://www.w3.org/2000/svg">
<path fill-rule="evenodd" clip-rule="evenodd" d="M9.5 6L2 19.7V20C2 24.4 5.6 28 10 28C14.4 28 18 24.4 18 20V19.7L12 8.7L28.5 13.7L22 25.7V26C22 30.4 25.6 34 30 34C34.4 34 38 30.4 38 26V25.7L30.7 12.1L9.5 6ZM10 26C7.4 26 5.2 24.3 4.4 22H15.7C14.8 24.3 12.6 26 10 26ZM4.1 20H15.9L10 9.1L4.1 20ZM30 15.1L35.9 26H24.1L30 15.1ZM24.4 28C25.2 30.3 27.4 32 30 32C32.6 32 34.8 30.3 35.7 28H24.4Z" fill="#333333"/>
</svg>
