<svg width="40" height="40" viewBox="0 0 40 40" fill="none" xmlns="http://www.w3.org/2000/svg">
<path fill-rule="evenodd" clip-rule="evenodd" d="M6 6C5.44772 6 5 6.44772 5 7V27.0909C5 27.6432 5.44772 28.0909 6 28.0909H33.8182C34.3705 28.0909 34.8182 27.6432 34.8182 27.0909V7C34.8182 6.44772 34.3705 6 33.8182 6H6ZM3 7C3 5.34315 4.34314 4 6 4H33.8182C35.475 4 36.8182 5.34315 36.8182 7V27.0909C36.8182 28.7478 35.475 30.0909 33.8182 30.0909H31.1364V30.3781L30.9649 31.1993L30.9674 31.204C31.069 31.3926 31.2136 31.6762 31.3066 31.9399C31.5585 32.6536 31.5393 33.5164 31.4934 34.0924C31.4688 34.4015 31.432 34.674 31.4015 34.8695C31.3861 34.9677 31.3722 35.0476 31.3618 35.1044C31.3566 35.1328 31.3522 35.1555 31.349 35.1719L31.3451 35.1917L31.3439 35.1978L31.3434 35.2L31.3432 35.2012C31.3432 35.2012 31.3431 35.2015 30.3636 35L31.3432 35.2012L31.1788 36H23.6393L23.4751 35.2015L24.4545 35C23.4751 35.2015 23.4751 35.2015 23.4751 35.2015L23.4747 35.2L23.4743 35.1978L23.4731 35.1917L23.4692 35.1719C23.466 35.1555 23.4616 35.1328 23.4564 35.1044C23.446 35.0476 23.432 34.9677 23.4167 34.8695C23.3861 34.674 23.3494 34.4015 23.3248 34.0924C23.2789 33.5164 23.2597 32.6536 23.5116 31.9399C23.5898 31.7183 23.7044 31.4826 23.7993 31.301L23.4545 30.4752V30.0909H6C4.34315 30.0909 3 28.7478 3 27.0909V7ZM29.3152 32.3636H25.503C25.4575 32.4569 25.4202 32.5414 25.3975 32.6055C25.2949 32.8962 25.2757 33.397 25.3185 33.9336C25.3202 33.956 25.3221 33.9781 25.324 34H29.4941C29.4961 33.9781 29.4979 33.956 29.4997 33.9336C29.5425 33.397 29.5232 32.8962 29.4206 32.6055C29.398 32.5414 29.3607 32.4569 29.3152 32.3636Z" fill="#333333"/>
<path d="M25.9177 14.5774C24.3274 12.9836 22.2244 12.1058 19.9961 12.1058C17.7677 12.1058 15.6647 12.9836 14.0744 14.5774C14.6082 15.1297 14.6078 15.1297 15.1134 15.6298C16.4258 14.3145 18.1598 13.5902 19.9961 13.5902C21.8324 13.5902 23.5664 14.3145 24.8787 15.6298C25.3842 15.1297 25.3842 15.1297 25.9177 14.5774Z" fill="#333333"/>
<path d="M19.9961 15.2634C21.4565 15.2634 22.822 15.8527 23.8409 16.9227L22.7777 17.9504C22.0393 17.1749 21.0514 16.7478 19.9961 16.7478C18.9407 16.7478 17.9528 17.1749 17.2144 17.9504L16.1512 16.9227C17.1701 15.8527 18.5356 15.2634 19.9961 15.2634Z" fill="#333333"/>
<path fill-rule="evenodd" clip-rule="evenodd" d="M21.8001 19.3249C21.3649 18.7505 20.7071 18.4211 19.9956 18.4211C19.2841 18.4211 18.6263 18.7505 18.1909 19.3249L19.3619 20.2258C19.5162 20.0222 19.7471 19.9055 19.9955 19.9055C20.2439 19.9055 20.4749 20.0222 20.6292 20.2258L21.8001 19.3249Z" fill="#333333"/>
</svg>
