<svg width="40" height="41" viewBox="0 0 40 41" fill="none" xmlns="http://www.w3.org/2000/svg">
<path d="M32 31.9994H8V21.9954H16.126C16.572 23.7174 18.14 24.9954 20 24.9954C21.86 24.9954 23.428 23.7174 23.874 21.9954H32V31.9994ZM8 13.9914H32V19.9934H22V20.9934C22 22.0974 21.102 22.9954 20 22.9954C18.896 22.9954 18 22.0974 18 20.9934V19.9934H8V13.9914ZM20 9.0014C21.852 9.0014 23.414 10.2694 23.858 11.9854H16.14C16.586 10.2694 18.148 9.0014 20 9.0014ZM25.896 11.9894C25.42 9.1634 22.96 6.9994 20 6.9994C17.04 6.9994 14.58 9.1634 14.104 11.9894H6V20.9934V21.9954V33.9994H34V21.9954V20.9934V11.9894H25.896Z" fill="#333333"/>
</svg>
