<svg width="40" height="37" viewBox="0 0 40 37" fill="none" xmlns="http://www.w3.org/2000/svg">
<path d="M20 35C11.7157 35 5 28.2843 5 20C5 11.7157 11.7157 5 20 5C28.2843 5 35 11.7157 35 20C35 28.2843 28.2843 35 20 35ZM20 32.5C26.9036 32.5 32.5 26.9036 32.5 20C32.5 13.0964 26.9036 7.5 20 7.5C13.0964 7.5 7.5 13.0964 7.5 20C7.5 26.9036 13.0964 32.5 20 32.5ZM11.25 15H13.75V18.75H11.25V15ZM16.25 15H18.75V18.75H16.25V15ZM26.25 15H28.75V18.75H26.25V15ZM21.25 15H23.75V18.75H21.25V15ZM20 27.5C18.6193 27.5 17.5 26.3807 17.5 25C17.5 23.6193 18.6193 22.5 20 22.5C21.3807 22.5 22.5 23.6193 22.5 25C22.5 26.3807 21.3807 27.5 20 27.5Z" fill="#333333"/>
</svg>
