<svg width="40" height="40" viewBox="0 0 40 40" fill="none" xmlns="http://www.w3.org/2000/svg">
<path fill-rule="evenodd" clip-rule="evenodd" d="M34 27C34 29.758 31.758 32 29 32H11C8.242 32 6 29.758 6 27C6 24.242 8.242 22 11 22H29C31.758 22 34 24.242 34 27ZM36 27C36 23.14 32.86 20 29 20H11C7.14 20 4 23.14 4 27C4 30.86 7.14 34 11 34H19H23.5H29C32.86 34 36 30.86 36 27Z" fill="#333333"/>
<path d="M22 20L19.5 8H21.1963V6H6.5V8H8.5L8.3728 17.9054C7.08138 18.2394 5.85285 18.7991 4.75152 19.5625C4.32347 19.8593 4.26881 20.4573 4.60043 20.8589C4.93209 21.2605 5.52415 21.3134 5.95155 21.0156C6.58683 20.573 7.69036 20.1637 8.37 20L8.3728 20.5115L11 20H10.259H22ZM10.259 20V8H17.5L20 20H10.259Z" fill="#333333"/>
<path fill-rule="evenodd" clip-rule="evenodd" d="M11 30.5C12.933 30.5 14.5 28.933 14.5 27C14.5 25.067 12.933 23.5 11 23.5C9.067 23.5 7.5 25.067 7.5 27C7.5 28.933 9.067 30.5 11 30.5ZM11 25C9.89543 25 9 25.8954 9 27C9 28.1046 9.89543 29 11 29C12.1046 29 13 28.1046 13 27C13 25.8954 12.1046 25 11 25Z" fill="#333333"/>
<path fill-rule="evenodd" clip-rule="evenodd" d="M20 30.5C21.933 30.5 23.5 28.933 23.5 27C23.5 25.067 21.933 23.5 20 23.5C18.067 23.5 16.5 25.067 16.5 27C16.5 28.933 18.067 30.5 20 30.5ZM20 25C18.8954 25 18 25.8954 18 27C18 28.1046 18.8954 29 20 29C21.1046 29 22 28.1046 22 27C22 25.8954 21.1046 25 20 25Z" fill="#333333"/>
<path fill-rule="evenodd" clip-rule="evenodd" d="M32.5 27C32.5 28.933 30.933 30.5 29 30.5C27.067 30.5 25.5 28.933 25.5 27C25.5 25.067 27.067 23.5 29 23.5C30.933 23.5 32.5 25.067 32.5 27ZM29 25C27.8954 25 27 25.8954 27 27C27 28.1046 27.8954 29 29 29C30.1046 29 31 28.1046 31 27C31 25.8954 30.1046 25 29 25Z" fill="#333333"/>
</svg>
