<svg width="40" height="41" viewBox="0 0 40 41" fill="none" xmlns="http://www.w3.org/2000/svg">
<path d="M36 29H33.899C33.434 26.721 31.415 25 29 25C26.585 25 24.566 26.721 24.101 29H22V23V21V15H23.675C27.027 15 29.991 17.137 31.051 20.316L31.168 20.667L36 23.566V29ZM29 33C27.346 33 26 31.654 26 30C26 28.346 27.346 27 29 27C30.654 27 32 28.346 32 30C32 31.654 30.654 33 29 33ZM20 29H15.899C15.434 26.721 13.415 25 11 25C8.585 25 6.566 26.721 6.101 29H4V23H20V29ZM11 33C9.346 33 8 31.654 8 30C8 28.346 9.346 27 11 27C12.654 27 14 28.346 14 30C14 31.654 12.654 33 11 33ZM4 9H20V13V21H4V9ZM38 22.434L32.822 19.327C31.392 15.527 27.763 13 23.675 13H22V7H2V21V23V31H6.101C6.566 33.279 8.585 35 11 35C13.415 35 15.434 33.279 15.899 31H20H22H24.101C24.566 33.279 26.585 35 29 35C31.415 35 33.434 33.279 33.899 31H38V22.434Z" fill="#333333"/>
</svg>
