<svg width="40" height="40" viewBox="0 0 40 40" fill="none" xmlns="http://www.w3.org/2000/svg">
<path d="M20 12.0002V5.9982H22V12.0002H20ZM6 22.0002V20.0002H12V22.0002H6ZM7.9908 9.7292L9.4028 8.3152L13.6748 12.5852L12.2628 14.0012L7.9908 9.7292ZM7.9998 32.5856L12.2718 28.3136L13.6858 29.7296L9.4138 33.9996L7.9998 32.5856ZM28 12.5864L32.272 8.3144L33.686 9.7284L29.414 14.0004L28 12.5864ZM16.8558 18.1946L18.1838 16.8666L31.9138 21.4426L31.8998 23.1106L29.6798 25.1566L35.4138 30.8946L30.8858 35.4246L25.1498 29.6886L23.1038 31.9206H21.4358L16.8558 18.1946ZM19.3558 19.3646L22.7058 29.3966L25.0878 26.7986L30.8858 32.5966L32.5858 30.8946L26.7938 25.0986L29.3878 22.7066L19.3558 19.3646Z" fill="#333333"/>
</svg>
