<svg width="40" height="40" viewBox="0 0 40 40" fill="none" xmlns="http://www.w3.org/2000/svg">
<path d="M32.7382 13.3438L29.7502 16.3318L23.6642 10.2458L26.6522 7.2578C28.3282 5.5798 31.0582 5.5798 32.7362 7.2538C33.5502 8.0678 33.9982 9.1478 33.9982 10.2998C33.9982 11.4498 33.5502 12.5298 32.7382 13.3438ZM15.0422 31.0398L6.52018 33.6138L6.38018 33.4738L8.95618 24.9538L22.2502 11.6598L28.3362 17.7458L15.0422 31.0398ZM34.1502 5.8398C31.6922 3.3858 27.6942 3.3858 25.2382 5.8438L7.04218 24.0398L4.00018 33.9958L6.00018 35.9958L15.9562 32.9538L34.1522 14.7578C35.3442 13.5658 35.9982 11.9818 35.9982 10.2998C35.9982 8.6138 35.3422 7.0318 34.1502 5.8398Z" fill="#333333"/>
</svg>
