<svg width="40" height="40" viewBox="0 0 40 40" fill="none" xmlns="http://www.w3.org/2000/svg">
<path fill-rule="evenodd" clip-rule="evenodd" d="M11.93 16C15.2437 16 17.93 13.3137 17.93 10C17.93 6.68629 15.2437 4 11.93 4C8.61629 4 5.93 6.68629 5.93 10C5.93 13.3137 8.61629 16 11.93 16ZM35 16C35 19.3137 32.3137 22 29 22C25.6863 22 23 19.3137 23 16C23 12.6863 25.6863 10 29 10C32.3137 10 35 12.6863 35 16ZM33 16C33 13.7909 31.2091 12 29 12C26.7909 12 25 13.7909 25 16C25 18.2091 26.7909 20 29 20C31.2091 20 33 18.2091 33 16ZM15.93 10C15.93 7.79086 14.1391 6 11.93 6C9.72086 6 7.93 7.79086 7.93 10C7.93 12.2091 9.72086 14 11.93 14C14.1391 14 15.93 12.2091 15.93 10ZM4 20L6 36H18L20 20C17.4937 18.7375 14.7358 18.054 11.93 18C9.17107 18.0704 6.46234 18.7536 4 20ZM7.61 34H16.24L17.83 21.22C15.9796 20.3764 13.9632 19.9594 11.93 20C9.93644 19.9703 7.9615 20.3871 6.15 21.22L7.61 34ZM34.94 25.33L34.45 25.09C32.7298 24.3486 30.873 23.9773 29 24C27.1241 23.9683 25.264 24.3472 23.55 25.11L23.07 25.36L22.26 32.78L22 34.84V35.09L21.9 35.99H36.1L34.94 25.33ZM24.93 26.69L24.12 34H33.88L33.07 26.7C31.7632 26.2363 30.3867 25.9996 29 26C27.6133 25.9886 26.2355 26.2222 24.93 26.69Z" fill="#333333"/>
</svg>
