<svg width="40" height="40" viewBox="0 0 40 40" fill="none" xmlns="http://www.w3.org/2000/svg">
<path d="M9.52021 16.8163L13.3839 15.7811L14.4192 19.6448L10.5555 20.68L9.52021 16.8163Z" fill="#333333"/>
<path d="M14.4192 19.6448L18.2829 18.6095L19.3182 22.4732L15.4545 23.5085L14.4192 19.6448Z" fill="#333333"/>
<path d="M17.2476 14.7458L21.1113 13.7105L22.1466 17.5742L18.2829 18.6095L17.2476 14.7458Z" fill="#333333"/>
<path d="M22.1466 17.5742L26.0103 16.5389L27.0456 20.4026L23.1819 21.4379L22.1466 17.5742Z" fill="#333333"/>
<path d="M20.076 9.8468L23.9397 8.81153L24.975 12.6752L21.1113 13.7105L20.076 9.8468Z" fill="#333333"/>
<path d="M12.3486 11.9174L16.2123 10.8821L17.2476 14.7458L13.3839 15.7811L12.3486 11.9174Z" fill="#333333"/>
<path d="M24.975 12.6752L28.8387 11.64L29.874 15.5037L26.0103 16.5389L24.975 12.6752Z" fill="#333333"/>
<path fill-rule="evenodd" clip-rule="evenodd" d="M5.82046 10.5607L4.81069 10.8313L9.46944 28.218L30.7198 22.524C32.8537 21.9522 34.12 19.7588 33.5482 17.625L30.96 7.96572C30.3883 5.83185 28.1949 4.56552 26.0611 5.13729L7.75281 10.043L7.74702 10.0192L5.80386 10.4926L5.82046 10.5607ZM7.26018 12.2455L10.8837 25.7685L30.2022 20.5921C31.2691 20.3062 31.9023 19.2095 31.6164 18.1426L29.0282 8.48335C28.7423 7.41642 27.6456 6.78326 26.5787 7.06914L7.26018 12.2455Z" fill="#333333"/>
<path d="M4.03432 7.93351C3.89138 7.40005 4.20796 6.85171 4.74143 6.70877C5.2749 6.56583 5.82323 6.88241 5.96617 7.41587L13.7307 36.3936C13.8737 36.9271 13.5571 37.4755 13.0236 37.6184C12.4902 37.7613 11.9418 37.4448 11.7989 36.9113L4.03432 7.93351Z" fill="#333333"/>
</svg>
