<svg width="40" height="40" viewBox="0 0 40 40" fill="none" xmlns="http://www.w3.org/2000/svg">
<path d="M13.9814 24.0004H26.0152L31.0475 31.3224C31.6344 32.1684 32.9967 32.1724 33.6197 31.4464C33.9222 31.0864 34.0264 30.6164 33.9482 30.1524L30.8532 11.4424C30.7229 10.6684 30.0599 10.0004 29.2766 10.0004H26.7905L23.9318 12.0004H15.9186L13.2021 10.0004H10.716C9.93275 10.0004 9.26766 10.6684 9.14145 11.4404L6.01631 30.1524C5.93819 30.6164 6.0704 31.0864 6.3729 31.4444C7.01596 32.2024 8.34014 32.1424 8.90707 31.3264L13.9814 24.0004ZM29.4068 32.4544L24.9695 26.0004H15.0231L10.5418 32.4624C9.19554 34.3944 6.36689 34.5164 4.8504 32.7324C4.16928 31.9264 3.87479 30.8664 4.04908 29.8244L7.17422 11.1144C7.46269 9.3784 8.95114 8.0004 10.716 8.0004H13.8051L16.796 10.0004H23.1966L26.1875 8.0004H29.2766C31.0395 8.0004 32.5299 9.3764 32.8204 11.1144L35.9515 29.8244C36.1258 30.8664 35.8233 31.9264 35.1422 32.7324C34.4571 33.5384 33.4594 34.0004 32.3997 34.0004C31.1837 34.0004 30.0779 33.4224 29.4068 32.4544ZM14 16.0452C12.918 16.0452 12.038 16.9272 12.038 18.0092C12.038 19.0932 12.918 19.9752 14 19.9752C15.082 19.9752 15.962 19.0932 15.962 18.0092C15.962 16.9272 15.082 16.0452 14 16.0452ZM14 22.0092C11.794 22.0092 10 20.2152 10 18.0092C10 15.8032 11.794 14.0092 14 14.0092C16.206 14.0092 18 15.8032 18 18.0092C18 20.2152 16.206 22.0092 14 22.0092ZM25.004 16.002V14.01H26.996V16.002H25.004ZM22.005 18.995V17.005H23.995V18.995H22.005ZM25.004 21.996V20.004H26.996V21.996H25.004ZM28.005 18.995V17.005H29.995V18.995H28.005Z" fill="#333333"/>
</svg>
