<svg width="40" height="40" viewBox="0 0 40 40" fill="none" xmlns="http://www.w3.org/2000/svg">
<path d="M23.75 32.5V30H26.25V35H13.75V30H16.25V32.5H18.75V30H21.25V32.5H23.75ZM18.6864 5H21.6718C23.6073 6.96069 27.5474 10.7688 28.4708 11.8644C30.332 14.0726 31.2608 16.1173 31.2608 18.4964C31.2608 22.704 26.06 26.25 23.3839 26.25L22.3887 24.2437C23.706 22.5103 23.6668 21.2275 22.4977 19.2409C22.0238 20.2467 21.3627 21.1147 20.4336 22.1028C20.3664 22.1742 20.2876 22.2576 20.1461 22.4072C19.041 23.5776 18.6099 24.2122 18.3038 25.3301L16.6932 26.1826C12.2922 24.6754 10.625 23.3072 10.625 20C10.625 18.0799 11.3375 16.6548 12.832 15.0045C13.1461 14.6576 14.5595 13.2063 14.9277 12.7999C15.058 12.6563 15.1817 12.5161 15.3008 12.3771C17.4381 9.88292 18.6508 6.74391 18.6864 5H18.6864ZM23.5226 16.3006C23.5905 16.4025 23.992 16.9308 24.092 17.0815C25.4722 19.1609 26.1368 20.9128 25.8323 22.6937C27.3009 21.6781 28.7608 20.0693 28.7608 18.4964C28.7608 16.7862 28.0725 15.2709 26.5593 13.4756C25.8357 12.6171 22.8136 9.67718 20.7354 7.60342C20.126 9.64069 18.9156 12.0008 17.1992 14.0038C17.0645 14.161 16.9255 14.3185 16.7801 14.4788C16.3716 14.9296 14.9587 16.3804 14.6851 16.6825C13.5686 17.9155 13.125 18.8027 13.125 20C13.125 21.6638 13.8101 22.428 16.344 23.3998C16.7676 22.4745 17.3669 21.7092 18.3284 20.6909C18.472 20.5389 18.5479 20.4587 18.6122 20.3903C19.9078 19.0124 20.4781 18.0667 20.8027 16.3006H23.5226Z" fill="#333333"/>
</svg>
