<svg width="41" height="37" viewBox="0 0 41 37" fill="none" xmlns="http://www.w3.org/2000/svg">
<path fill-rule="evenodd" clip-rule="evenodd" d="M36.541 20.0389C36.541 28.8926 29.3776 36.07 20.541 36.07C11.7045 36.07 4.54102 28.8926 4.54102 20.0389C4.54102 11.1851 11.7045 4.00775 20.541 4.00775C29.3776 4.00775 36.541 11.1851 36.541 20.0389ZM28.541 26.0505V31.5412C34.8775 27.1119 36.4349 18.3768 32.021 12.0233H25.701C24.8265 12.0036 24.0407 12.5556 23.761 13.386L21.761 19.3976C21.5557 20.0067 21.6545 20.6776 22.0267 21.2013C22.3989 21.725 22.9993 22.038 23.641 22.0428H24.541C26.7502 22.0428 28.541 23.8371 28.541 26.0505ZM30.321 10.0194H25.701C23.9761 10.0179 22.4444 11.1244 21.901 12.7647L19.901 18.7764C19.4982 19.9922 19.6997 21.3276 20.4432 22.3697C21.1867 23.4118 22.3826 24.035 23.661 24.0466H24.541C25.6456 24.0466 26.541 24.9438 26.541 26.0505V32.6433C19.5811 35.9533 11.26 33.007 7.92102 26.0505H10.541C12.7502 26.0505 14.541 24.2562 14.541 22.0428V14.5482C14.5537 13.2726 13.9596 12.0672 12.941 11.3019L10.941 9.81903C16.4105 4.67074 24.9587 4.75913 30.321 10.0194ZM11.721 12.9251L9.60102 11.3219C6.75019 14.9033 5.82434 19.6538 7.12102 24.0466H10.541C11.6456 24.0466 12.541 23.1495 12.541 22.0428L12.521 14.5482C12.5274 13.9104 12.2303 13.3077 11.721 12.9251Z" fill="#333333"/>
<ellipse opacity="0.2" cx="32.541" cy="8.01557" rx="6" ry="6.01167" fill="#333333"/>
<ellipse cx="32.541" cy="8.01553" rx="4" ry="4.00778" fill="#333333"/>
</svg>
