<svg width="41" height="40" viewBox="0 0 41 40" fill="none" xmlns="http://www.w3.org/2000/svg">
<path d="M30.8077 7.76473C30.0405 7.76473 29.3255 8.00005 28.7319 8.401C28.2205 6.93656 26.8335 5.88241 25.2077 5.88241C24.4405 5.88241 23.7255 6.11773 23.1319 6.51867C22.6205 5.05415 21.2335 4 19.6077 4C17.9819 4 16.5949 5.05415 16.0835 6.51859C15.4899 6.11765 14.7749 5.88232 14.0077 5.88232C11.9488 5.88232 10.2744 7.57079 10.2744 9.64705V13.9633L8.45437 15.7967C7.22054 17.0428 6.54102 18.6955 6.54102 20.4555V23.3073C6.54102 25.0673 7.22045 26.7219 8.45437 27.9679L12.1896 31.7327C14.9168 34.4846 18.5474 36 22.4077 36C29.0978 36 34.541 30.5111 34.541 23.7647V11.5294C34.5409 9.4532 32.8665 7.76473 30.8077 7.76473ZM32.6743 23.7647C32.6743 29.4739 28.0673 34.1176 22.4058 34.1176C19.0439 34.1176 15.8836 32.798 13.5092 30.4018L9.77404 26.6371C8.89301 25.7467 8.40765 24.5646 8.40765 23.3091V20.4574C8.40765 19.1999 8.89301 18.0178 9.77404 17.1294L10.2744 16.625V18.1176C10.2744 18.6372 10.6925 19.0588 11.2077 19.0588C11.7229 19.0588 12.141 18.6372 12.141 18.1176V14.3548C12.141 14.353 12.141 14.353 12.141 14.351V9.64705C12.141 8.60985 12.9772 7.76473 14.0076 7.76473C15.038 7.76473 15.8743 8.60985 15.8743 9.64705V12.4706C15.8743 12.9901 16.2925 13.4118 16.8077 13.4118C17.3229 13.4118 17.7411 12.9901 17.7411 12.4706V7.76473C17.7411 6.72753 18.5773 5.88241 19.6077 5.88241C20.6381 5.88241 21.4743 6.72753 21.4743 7.76473V12.4706C21.4743 12.9901 21.8925 13.4118 22.4077 13.4118C22.9229 13.4118 23.3411 12.9901 23.3411 12.4706V9.64705C23.3411 8.60985 24.1773 7.76473 25.2077 7.76473C26.2381 7.76473 27.0743 8.60985 27.0743 9.64705V12.4706C27.0743 12.9901 27.4925 13.4118 28.0077 13.4118C28.5229 13.4118 28.941 12.9901 28.941 12.4706V11.5294C28.941 10.4922 29.7773 9.64705 30.8077 9.64705C31.8381 9.64705 32.6743 10.4923 32.6743 11.5294V23.7647Z" fill="#333333"/>
</svg>
