<svg width="40" height="40" viewBox="0 0 40 40" fill="none" xmlns="http://www.w3.org/2000/svg">
<path d="M8 29.9978H4V20.6258C4 11.7178 10.958 4.26179 19.508 4.00579C23.86 3.89179 28.01 5.47379 31.14 8.51579C34.276 11.5538 36 15.6318 36 19.9978V29.9978H32V32C32 34.206 30.164 36 27.958 36H24V22H27.958C30.164 22 32 23.794 32 26V27.9978H34V19.9978C34 16.1798 32.49 12.6118 29.748 9.95179C27.008 7.28979 23.386 5.91579 19.566 6.00579C12.086 6.22979 6 12.7898 6 20.6258V27.9978H8V26C8 23.794 9.752 22 11.958 22H16V36H11.958C9.752 36 8 34.206 8 32V29.9978ZM11.958 24C10.854 24 9.958 24.896 9.958 26V32C9.958 33.104 10.854 34 11.958 34H14V24H11.958ZM26 34H27.958C29.062 34 30 33.104 30 32V26C30 24.896 29.062 24 27.958 24H26V34Z" fill="#333333"/>
</svg>
