<svg width="40" height="40" viewBox="0 0 40 40" fill="none" xmlns="http://www.w3.org/2000/svg">
<path fill-rule="evenodd" clip-rule="evenodd" d="M20 9.63999C21.3755 7.36775 23.8439 5.98547 26.5 5.99999C30.79 5.99999 34 10.36 34.01 14.26C33.9688 15.4719 33.6615 16.66 33.11 17.74C30.9 21.92 23.23 33.1 22.9 33.57L22.6 34H17.6L17.3 33.56C17.2347 33.4555 16.8237 32.8384 16.1958 31.8956C13.9402 28.5088 8.88522 20.919 7 17.79C6.35095 16.7266 6.00514 15.5058 6 14.26C6 10.36 9.21 5.99999 13.5 5.99999C16.1561 5.98547 18.6245 7.36775 20 9.63999ZM21.609 31.8989C23.1923 29.5783 29.478 20.3659 31.32 16.81C31.7261 16.0147 31.9579 15.142 32 14.25C32 11.42 29.5 7.99999 26.5 7.99999C23.9927 7.96435 21.7847 9.64411 21.15 12.07H18.85C18.2153 9.64411 16.0073 7.96435 13.5 7.99999C10.45 7.99999 8 11.42 8 14.26C7.98568 15.1369 8.21038 16.0011 8.65 16.76C10.81 20.26 17.19 29.83 18.65 32H21.54L21.609 31.8989Z" fill="#333333"/>
</svg>
