<svg width="40" height="40" viewBox="0 0 40 40" fill="none" xmlns="http://www.w3.org/2000/svg">
<path fill-rule="evenodd" clip-rule="evenodd" d="M29.5 15.5C23.8 12.1 16.3 12.1 10.5 15.5L9.5 13.8C15.8 10.1 24.1 10.1 30.5 13.8L29.5 15.5ZM34.5 18.2L36 19.5C35.2 20.5 34.1 21.6 33.1 22.3L35.5 25.6L33.9 26.8L31.5 23.5C30.2 24.4 28.8 25.1 27.4 25.6L28.7 29.5L26.8 30.1L25.5 26.2C24.1 26.6 22.5 26.8 21 26.9V31H19V26.9C17.5 26.8 16 26.6 14.5 26.2L13.2 30.1L11.3 29.5L12.6 25.6C11.1 25 9.8 24.3 8.5 23.5L6.1 26.8L4.5 25.6L6.9 22.3C6 21.6 4.8 20.5 4 19.6L5.5 18.3C9.1 22.5 14.5 25 20 25C25.5 25 30.9 22.4 34.5 18.2Z" fill="#333333"/>
</svg>
