<svg width="40" height="40" viewBox="0 0 40 40" fill="none" xmlns="http://www.w3.org/2000/svg">
<path fill-rule="evenodd" clip-rule="evenodd" d="M7.5 20.2656C7.5 16.4131 9.25375 12.9644 12.0038 10.6694L10.4037 8.75061C7.105 11.5044 5 15.6431 5 20.2656C5 24.8881 7.105 29.0281 10.4037 31.7819L12.0038 29.8619C9.25375 27.5669 7.5 24.1181 7.5 20.2656Z" fill="#333333"/>
<path fill-rule="evenodd" clip-rule="evenodd" d="M29.5962 8.75061L27.9962 10.6694C30.7462 12.9644 32.5 16.4131 32.5 20.2656C32.5 24.1181 30.7462 27.5669 27.9962 29.8619L29.5962 31.7819C32.895 29.0281 35 24.8894 35 20.2656C35 15.6431 32.895 11.5031 29.5962 8.75061Z" fill="#333333"/>
<path fill-rule="evenodd" clip-rule="evenodd" d="M14.4025 26.9831L16.0188 25.0431C14.645 23.8956 13.75 22.1919 13.75 20.2656C13.75 18.3394 14.645 16.6356 16.0188 15.4881L14.4012 13.5481C12.4775 15.1544 11.25 17.5681 11.25 20.2656C11.25 22.9619 12.4775 25.3769 14.4025 26.9831Z" fill="#333333"/>
<path fill-rule="evenodd" clip-rule="evenodd" d="M26.2501 20.2656C26.2501 22.1919 25.3551 23.8956 23.9813 25.0431L25.5988 26.9831C27.5226 25.3769 28.7501 22.9619 28.7501 20.2656C28.7501 17.5694 27.5226 15.1544 25.5988 13.5481L23.9813 15.4881C25.3551 16.6356 26.2501 18.3394 26.2501 20.2656Z" fill="#333333"/>
<path fill-rule="evenodd" clip-rule="evenodd" d="M22.5 20.2656C22.5 21.6456 21.38 22.7656 20 22.7656C18.62 22.7656 17.5 21.6456 17.5 20.2656C17.5 18.8856 18.62 17.7656 20 17.7656C21.38 17.7656 22.5 18.8856 22.5 20.2656Z" fill="#333333"/>
</svg>
