<svg width="40" height="40" viewBox="0 0 40 40" fill="none" xmlns="http://www.w3.org/2000/svg">
<path d="M20.966 30V34H28V36H12V34H18.966V30H7.996C5.792 30 4 28.2228 4 26.037V9.96496C4 7.77719 5.792 6 7.996 6H32.002C34.206 6 36 7.77719 36 9.96496V26.037C36 28.2228 34.206 30 32.002 30H20.966ZM16 18C16 19.104 15.106 20 14 20C12.896 20 12 19.104 12 18C12 16.896 12.896 16 14 16C15.106 16 16 16.896 16 18ZM22 18C22 19.104 21.106 20 20 20C18.894 20 18 19.104 18 18C18 16.896 18.894 16 20 16C21.106 16 22 16.896 22 18ZM28 18C28 19.104 27.106 20 26 20C24.894 20 24 19.104 24 18C24 16.896 24.894 16 26 16C27.106 16 28 16.896 28 18ZM7.996 8C6.894 8 6 8.88713 6 9.97822V26.0238C6 27.1129 6.894 28 7.996 28H32.002C33.104 28 34 27.1129 34 26.0238V9.97822C34 8.88713 33.104 8 32.002 8H7.996Z" fill="#333333"/>
</svg>
