<svg width="40" height="40" viewBox="0 0 40 40" fill="none" xmlns="http://www.w3.org/2000/svg">
<path fill-rule="evenodd" clip-rule="evenodd" d="M20 5C11.7287 5 5 11.7287 5 20C5 26.1425 8.715 31.4275 14.0113 33.745L14.5363 31.225C10.3775 29.1925 7.5 24.9312 7.5 20C7.5 13.1075 13.1075 7.5 20 7.5C26.8925 7.5 32.5 13.1075 32.5 20C32.5 24.9312 29.6213 29.1925 25.4638 31.225L25.9888 33.745C31.285 31.4275 35 26.1425 35 20C35 11.7287 28.2712 5 20 5ZM21.25 22.1655C21.9973 21.7333 22.5 20.9254 22.5 20C22.5 18.6193 21.3807 17.5 20 17.5C18.6193 17.5 17.5 18.6193 17.5 20C17.5 20.9254 18.0027 21.7333 18.75 22.1655V35H21.25V22.1655ZM15.9008 24.6789L15.3358 27.3901C12.8858 25.8376 11.2495 23.1089 11.2495 20.0001C11.2495 15.1751 15.1758 11.2501 19.9995 11.2501C24.8245 11.2501 28.7495 15.1751 28.7495 20.0001C28.7495 23.1089 27.1145 25.8376 24.6645 27.3901L24.1007 24.6789C25.407 23.5326 26.2495 21.8714 26.2495 20.0001C26.2495 16.5539 23.4458 13.7501 19.9995 13.7501C16.5545 13.7501 13.7495 16.5539 13.7495 20.0001C13.7495 21.8714 14.5933 23.5326 15.9008 24.6789Z" fill="black"/>
<mask id="mask0" mask-type="alpha" maskUnits="userSpaceOnUse" x="5" y="5" width="30" height="30">
<path fill-rule="evenodd" clip-rule="evenodd" d="M20 5C11.7287 5 5 11.7287 5 20C5 26.1425 8.715 31.4275 14.0113 33.745L14.5363 31.225C10.3775 29.1925 7.5 24.9312 7.5 20C7.5 13.1075 13.1075 7.5 20 7.5C26.8925 7.5 32.5 13.1075 32.5 20C32.5 24.9312 29.6213 29.1925 25.4638 31.225L25.9888 33.745C31.285 31.4275 35 26.1425 35 20C35 11.7287 28.2712 5 20 5ZM21.25 22.1655C21.9973 21.7333 22.5 20.9254 22.5 20C22.5 18.6193 21.3807 17.5 20 17.5C18.6193 17.5 17.5 18.6193 17.5 20C17.5 20.9254 18.0027 21.7333 18.75 22.1655V35H21.25V22.1655ZM15.9008 24.6789L15.3358 27.3901C12.8858 25.8376 11.2495 23.1089 11.2495 20.0001C11.2495 15.1751 15.1758 11.2501 19.9995 11.2501C24.8245 11.2501 28.7495 15.1751 28.7495 20.0001C28.7495 23.1089 27.1145 25.8376 24.6645 27.3901L24.1007 24.6789C25.407 23.5326 26.2495 21.8714 26.2495 20.0001C26.2495 16.5539 23.4458 13.7501 19.9995 13.7501C16.5545 13.7501 13.7495 16.5539 13.7495 20.0001C13.7495 21.8714 14.5933 23.5326 15.9008 24.6789Z" fill="white"/>
</mask>
<g mask="url(#mask0)">
<path fill-rule="evenodd" clip-rule="evenodd" d="M0 0H40V40H0V0Z" fill="#333333"/>
</g>
</svg>
