<svg width="41" height="41" viewBox="0 0 41 41" fill="none" xmlns="http://www.w3.org/2000/svg">
<path fill-rule="evenodd" clip-rule="evenodd" d="M26.1482 18.2048L24.3807 16.4339L19.077 21.748L16.4257 19.0903L14.6582 20.8625L19.077 25.2898L26.1482 18.2048ZM20.542 8.76654C17.2032 8.76654 14.2057 10.2231 12.1445 12.5364C12.0282 12.5288 11.9107 12.5238 11.792 12.5238C9.11449 12.5238 6.92824 14.6329 6.79824 17.2831C4.55324 18.5818 3.04199 21.0128 3.04199 23.7957C3.04199 27.9463 6.39949 31.3103 10.542 31.3103H30.542C34.6832 31.3103 38.042 27.9463 38.042 23.7957C38.042 19.8543 35.0132 16.6218 31.1607 16.3062C29.6232 11.9164 25.4482 8.76654 20.542 8.76654ZM20.542 11.2714C24.2532 11.2714 27.5732 13.6285 28.8007 17.1353L29.3395 18.6708L30.957 18.8035C33.527 19.0139 35.542 21.2069 35.542 23.7957C35.542 26.5586 33.2995 28.8054 30.542 28.8054H10.542C7.78449 28.8054 5.54199 26.5586 5.54199 23.7957C5.54199 22.011 6.50199 20.3465 8.04824 19.4535L9.22699 18.771L9.29449 17.4071C9.36074 16.0732 10.457 15.0287 11.792 15.0287C11.852 15.0287 11.912 15.0312 11.9707 15.035L13.1945 15.1214L14.0107 14.2046C15.6707 12.341 18.0507 11.2714 20.542 11.2714Z" fill="black"/>
<mask id="mask0" mask-type="alpha" maskUnits="userSpaceOnUse" x="3" y="8" width="36" height="24">
<path fill-rule="evenodd" clip-rule="evenodd" d="M26.1482 18.2048L24.3807 16.4339L19.077 21.748L16.4257 19.0903L14.6582 20.8625L19.077 25.2898L26.1482 18.2048ZM20.542 8.76654C17.2032 8.76654 14.2057 10.2231 12.1445 12.5364C12.0282 12.5288 11.9107 12.5238 11.792 12.5238C9.11449 12.5238 6.92824 14.6329 6.79824 17.2831C4.55324 18.5818 3.04199 21.0128 3.04199 23.7957C3.04199 27.9463 6.39949 31.3103 10.542 31.3103H30.542C34.6832 31.3103 38.042 27.9463 38.042 23.7957C38.042 19.8543 35.0132 16.6218 31.1607 16.3062C29.6232 11.9164 25.4482 8.76654 20.542 8.76654ZM20.542 11.2714C24.2532 11.2714 27.5732 13.6285 28.8007 17.1353L29.3395 18.6708L30.957 18.8035C33.527 19.0139 35.542 21.2069 35.542 23.7957C35.542 26.5586 33.2995 28.8054 30.542 28.8054H10.542C7.78449 28.8054 5.54199 26.5586 5.54199 23.7957C5.54199 22.011 6.50199 20.3465 8.04824 19.4535L9.22699 18.771L9.29449 17.4071C9.36074 16.0732 10.457 15.0287 11.792 15.0287C11.852 15.0287 11.912 15.0312 11.9707 15.035L13.1945 15.1214L14.0107 14.2046C15.6707 12.341 18.0507 11.2714 20.542 11.2714Z" fill="white"/>
</mask>
<g mask="url(#mask0)">
<path fill-rule="evenodd" clip-rule="evenodd" d="M0.541016 0H40.541V40.0778H0.541016V0Z" fill="#333333"/>
</g>
</svg>
