<svg width="40" height="40" viewBox="0 0 40 40" fill="none" xmlns="http://www.w3.org/2000/svg">
<path fill-rule="evenodd" clip-rule="evenodd" d="M11.249 3.75H13.749V7.5H11.249V3.75Z" fill="#333333"/>
<path fill-rule="evenodd" clip-rule="evenodd" d="M16.249 3.75H18.749V7.5H16.249V3.75Z" fill="#333333"/>
<path fill-rule="evenodd" clip-rule="evenodd" d="M21.249 3.75H23.749V7.5H21.249V3.75Z" fill="#333333"/>
<path fill-rule="evenodd" clip-rule="evenodd" d="M26.249 3.75H28.749V7.5H26.249V3.75Z" fill="#333333"/>
<path fill-rule="evenodd" clip-rule="evenodd" d="M11.249 32.5H13.749V36.25H11.249V32.5Z" fill="#333333"/>
<path fill-rule="evenodd" clip-rule="evenodd" d="M16.249 32.5H18.749V36.25H16.249V32.5Z" fill="#333333"/>
<path fill-rule="evenodd" clip-rule="evenodd" d="M21.249 32.5H23.749V36.25H21.249V32.5Z" fill="#333333"/>
<path fill-rule="evenodd" clip-rule="evenodd" d="M26.249 32.5H28.749V36.25H26.249V32.5Z" fill="#333333"/>
<path fill-rule="evenodd" clip-rule="evenodd" d="M3.74902 11.25H7.49902V13.75H3.74902V11.25Z" fill="#333333"/>
<path fill-rule="evenodd" clip-rule="evenodd" d="M3.74902 16.25H7.49902V18.75H3.74902V16.25Z" fill="#333333"/>
<path fill-rule="evenodd" clip-rule="evenodd" d="M3.74902 21.25H7.49902V23.75H3.74902V21.25Z" fill="#333333"/>
<path fill-rule="evenodd" clip-rule="evenodd" d="M3.74902 26.25H7.49902V28.75H3.74902V26.25Z" fill="#333333"/>
<path fill-rule="evenodd" clip-rule="evenodd" d="M32.499 11.25H36.249V13.75H32.499V11.25Z" fill="#333333"/>
<path fill-rule="evenodd" clip-rule="evenodd" d="M32.499 16.25H36.249V18.75H32.499V16.25Z" fill="#333333"/>
<path fill-rule="evenodd" clip-rule="evenodd" d="M32.499 21.25H36.249V23.75H32.499V21.25Z" fill="#333333"/>
<path fill-rule="evenodd" clip-rule="evenodd" d="M32.499 26.25H36.249V28.75H32.499V26.25Z" fill="#333333"/>
<path fill-rule="evenodd" clip-rule="evenodd" d="M8.74902 8.75H11.249V31.25H8.74902V8.75Z" fill="#333333"/>
<path fill-rule="evenodd" clip-rule="evenodd" d="M28.749 8.75H31.249V31.25H28.749V8.75Z" fill="#333333"/>
<path fill-rule="evenodd" clip-rule="evenodd" d="M8.74902 8.75H31.249V11.25H8.74902V8.75Z" fill="#333333"/>
<path fill-rule="evenodd" clip-rule="evenodd" d="M8.74902 28.75H31.249V31.25H8.74902V28.75Z" fill="#333333"/>
</svg>
