<svg width="40" height="40" viewBox="0 0 40 40" fill="none" xmlns="http://www.w3.org/2000/svg">
<path fill-rule="evenodd" clip-rule="evenodd" d="M30 12C25.1 12 21.6 16 20 18.2C18.4 16 14.9 12 10 12C5.6 12 2 15.6 2 20C2 24.4 5.6 28 10 28C14.9 28 18.4 24 20 21.8C21.6 24 25.1 28 30 28C34.4 28 38 24.4 38 20C38 15.6 34.4 12 30 12ZM10 26C6.7 26 4 23.3 4 20C4 16.7 6.7 14 10 14C14.5 14 17.8 18.5 18.8 20C17.8 21.5 14.5 26 10 26ZM21.2 20C22.2 21.5 25.5 26 30 26C33.3 26 36 23.3 36 20C36 16.7 33.3 14 30 14C25.5 14 22.2 18.5 21.2 20Z" fill="#333333"/>
</svg>
