<svg width="40" height="40" viewBox="0 0 40 40" fill="none" xmlns="http://www.w3.org/2000/svg">
<path fill-rule="evenodd" clip-rule="evenodd" d="M29 4H11C7.1 4 4 7.1 4 11V29C4 32.9 7.1 36 11 36H29C32.9 36 36 32.9 36 29V11C36 7.1 32.9 4 29 4ZM34 29C34 31.8 31.8 34 29 34H11C8.2 34 6 31.8 6 29V11C6 8.2 8.2 6 11 6H29C31.8 6 34 8.2 34 11V29ZM12 20C12 15.6 15.6 12 20 12C24.4 12 28 15.6 28 20C28 24.4 24.4 28 20 28C15.6 28 12 24.4 12 20ZM20 26C16.7 26 14 23.3 14 20C14 16.7 16.7 14 20 14C23.3 14 26 16.7 26 20C26 23.3 23.3 26 20 26ZM29 13C30.1 13 31 12.1 31 11C31 9.9 30.1 9 29 9C27.9 9 27 9.9 27 11C27 12.1 27.9 13 29 13Z" fill="#333333"/>
</svg>
