<svg width="40" height="40" viewBox="0 0 40 40" fill="none" xmlns="http://www.w3.org/2000/svg">
<path d="M20 34.0004C21.106 34.0004 22 34.8964 22 36.0004C22 37.1044 21.106 38.0004 20 38.0004C18.894 38.0004 18 37.1044 18 36.0004C18 34.8964 18.894 34.0004 20 34.0004ZM20 8.0004C18.894 8.0004 18 7.1044 18 6.0004C18 4.8964 18.894 4.0004 20 4.0004C21.106 4.0004 22 4.8964 22 6.0004C22 7.1044 21.106 8.0004 20 8.0004ZM34 16.0004C32.894 16.0004 32 15.1044 32 14.0004C32 12.8964 32.894 12.0004 34 12.0004C35.106 12.0004 36 12.8964 36 14.0004C36 15.1044 35.106 16.0004 34 16.0004ZM6 12.0004C7.106 12.0004 8 12.8964 8 14.0004C8 15.1044 7.106 16.0004 6 16.0004C4.894 16.0004 4 15.1044 4 14.0004C4 12.8964 4.894 12.0004 6 12.0004ZM6 26.0102C7.106 26.0102 8 26.9062 8 28.0102C8 29.1142 7.106 30.0102 6 30.0102C4.894 30.0102 4 29.1142 4 28.0102C4 26.9062 4.894 26.0102 6 26.0102ZM34 26.0102C35.106 26.0102 36 26.9062 36 28.0102C36 29.1142 35.106 30.0102 34 30.0102C32.894 30.0102 32 29.1142 32 28.0102C32 26.9062 32.894 26.0102 34 26.0102ZM24.1328 28.935C26.7268 27.583 28.5608 25.025 28.9008 21.993H25.9088C25.7748 24.737 25.1388 27.165 24.1328 28.935ZM11.1308 21.993C11.4648 24.969 13.2388 27.489 15.7588 28.859C14.7788 27.097 14.1648 24.693 14.0328 21.993H11.1308ZM15.7588 13.131C13.2388 14.501 11.4648 17.019 11.1308 19.997H14.0328C14.1648 17.295 14.7788 14.893 15.7588 13.131ZM16.0248 19.997H23.9168C23.6688 15.265 21.7468 12.027 19.9848 12.011C19.9688 12.011 19.9528 12.017 19.9368 12.017C18.1808 12.057 16.2728 15.281 16.0248 19.997ZM19.9848 29.977C21.7468 29.961 23.6688 26.725 23.9168 21.993H16.0248C16.2728 26.707 18.1808 29.933 19.9368 29.973C19.9528 29.973 19.9688 29.977 19.9848 29.977ZM28.9008 19.997C28.5608 16.965 26.7268 14.405 24.1328 13.055C25.1388 14.825 25.7748 17.253 25.9088 19.997H28.9008ZM20.0148 10.013C26.0708 10.013 30.9988 14.939 30.9988 20.995C30.9988 27.051 26.0708 31.977 20.0148 31.977C20.0048 31.977 19.9928 31.975 19.9808 31.975C19.9768 31.975 19.9748 31.977 19.9708 31.977C19.9648 31.977 19.9588 31.975 19.9528 31.975C13.9268 31.939 9.0328 27.029 9.0328 20.995C9.0328 14.961 13.9268 10.049 19.9528 10.015C19.9588 10.015 19.9648 10.013 19.9708 10.013C19.9748 10.013 19.9768 10.015 19.9808 10.015C19.9928 10.015 20.0048 10.013 20.0148 10.013Z" fill="#333333"/>
</svg>
