<svg width="40" height="40" viewBox="0 0 40 40" fill="none" xmlns="http://www.w3.org/2000/svg">
<path d="M33 34.0004C33.55 34.0004 34 33.5504 34 33.0004V14.0004H6V33.0004C6 33.5504 6.45 34.0004 7 34.0004H12V16.9124L13.76 15.9944L17.44 19.9884H22.572L26.466 15.9244L28 16.9984V34.0004H33ZM14 34.0004H26V19.3024L23.428 21.9884H16.56L14 19.2084V34.0004ZM7 6.0004C6.45 6.0004 6 6.4504 6 7.0004V12.0004H34V7.0004C34 6.4504 33.55 6.0004 33 6.0004H7ZM33 4.0004C34.654 4.0004 36 5.3464 36 7.0004V33.0004C36 34.6544 34.654 36.0004 33 36.0004H7C5.346 36.0004 4 34.6544 4 33.0004V7.0004C4 5.3464 5.346 4.0004 7 4.0004H33ZM31.041 10.0004C30.489 10.0004 30.041 9.5524 30.041 9.0004C30.041 8.4484 30.489 8.0004 31.041 8.0004C31.593 8.0004 32.041 8.4484 32.041 9.0004C32.041 9.5524 31.593 10.0004 31.041 10.0004ZM17.041 26.0004C17.593 26.0004 18.041 26.4484 18.041 27.0004C18.041 27.5524 17.593 28.0004 17.041 28.0004C16.489 28.0004 16.041 27.5524 16.041 27.0004C16.041 26.4484 16.489 26.0004 17.041 26.0004ZM23.041 26.0004C23.593 26.0004 24.041 26.4484 24.041 27.0004C24.041 27.5524 23.593 28.0004 23.041 28.0004C22.489 28.0004 22.041 27.5524 22.041 27.0004C22.041 26.4484 22.489 26.0004 23.041 26.0004ZM19 32V30H21V32H19Z" fill="#333333"/>
</svg>
