<svg width="40" height="39" viewBox="0 0 40 39" fill="none" xmlns="http://www.w3.org/2000/svg">
<path d="M24.6332 17L17.6064 31.8349L18.632 34H21.368L29.42 17H24.6332ZM22.4197 17H16V19C16 20.744 14.876 22.232 13.316 22.778L16.4996 29.4985L22.4197 17ZM20 6C14.486 6 10 10.486 10 16V19C10 20.104 10.896 21 12 21C13.104 21 14 20.104 14 19V15H29.952C29.448 9.954 25.176 6 20 6ZM22.632 36H17.368L11.168 22.912C9.36 22.53 8 20.92 8 19V16C8 9.382 13.382 4 20 4C26.618 4 32 9.382 32 16L31.904 16.428L22.632 36Z" fill="#333333"/>
</svg>
