<svg width="40" height="40" viewBox="0 0 40 40" fill="none" xmlns="http://www.w3.org/2000/svg">
<path d="M23.1504 33.9902H16.8484L15.9964 29.9902H23.9964L23.1504 33.9902ZM20.1764 27.9902H19.8164L17.9724 19.9902H22.0224L20.1764 27.9902ZM10.0004 16.0002C10.0004 7.7342 15.4384 6.0002 19.9984 6.0002C24.5584 6.0002 29.9964 7.7342 29.9964 16.0002C29.9964 22.4742 25.7384 26.9322 24.6224 27.9902H22.2284L24.9444 16.2142L22.9964 15.7662L22.4824 17.9902H17.5124L16.9984 15.7662L15.0484 16.2142L17.7644 27.9902H15.3744C14.2584 26.9322 10.0004 22.4742 10.0004 16.0002ZM31.9964 16.0002C31.9964 8.3722 27.6224 4.0002 19.9984 4.0002C12.3724 4.0002 8.00043 8.3722 8.00043 16.0002C8.00043 23.4642 12.8404 28.3802 14.0744 29.5142L15.1524 35.9902H18.9984H20.9984H24.8464L25.9244 29.5142C27.1584 28.3802 31.9964 23.4642 31.9964 16.0002Z" fill="#333333"/>
</svg>
