<svg width="40" height="37" viewBox="0 0 40 37" fill="none" xmlns="http://www.w3.org/2000/svg">
<path d="M34 21.514L31.304 31.098C30.83 32.788 29.308 34 27.602 34H14V17.332C14.656 16.044 18.08 9.362 19.27 6.97C19.786 5.934 21.252 5.756 21.97 6.622C22.302 7.024 22.436 7.552 22.336 8.06L20.566 16.6L21.404 18H31.306C32.12 18 32.874 18.39 33.376 19.052C33.91 19.752 34.244 20.644 34 21.514ZM6 34V18H12V34.022L6 34ZM34.996 17.824C34.106 16.652 32.76 15.982 31.306 15.982H22.772L24.33 8.46C24.548 7.344 24.26 6.202 23.54 5.33C22.842 4.484 21.818 4 20.732 4C19.342 4 18.084 4.792 17.448 6.066C16.354 8.268 13.388 14.09 12.414 16H4V35.982H12V36H27.602C30.22 36 32.55 34.204 33.268 31.634L35.8 22.044C36.21 20.572 35.918 19.034 34.996 17.824Z" fill="#333333"/>
</svg>
