<svg width="40" height="40" viewBox="0 0 40 40" fill="none" xmlns="http://www.w3.org/2000/svg">
<path fill-rule="evenodd" clip-rule="evenodd" d="M9.99999 18C8.89599 18 7.99999 18.896 7.99999 20C7.99999 21.104 8.89599 22 9.99999 22C11.104 22 12 21.104 12 20C12 18.896 11.104 18 9.99999 18ZM19.7437 22L19.5067 22.665C18.3727 25.856 15.3557 28 11.9997 28C7.5887 28 3.99969 24.411 3.99969 20C3.99969 15.589 7.5887 12 11.9997 12C15.3557 12 18.3727 14.144 19.5067 17.335L19.7437 18H33.6357L35.9997 20L36.0137 22H19.7437ZM37.9997 19.062L34.3647 16H21.1277C19.5447 12.384 15.9617 10 11.9997 10C6.48569 10 1.99969 14.486 1.99969 20C1.99969 25.514 6.48569 30 11.9997 30C15.9617 30 19.5447 27.616 21.1277 24H37.9997V19.062Z" fill="#333333"/>
</svg>
