<svg width="40" height="40" viewBox="0 0 40 40" fill="none" xmlns="http://www.w3.org/2000/svg">
<path fill-rule="evenodd" clip-rule="evenodd" d="M20 4C11.2 4 4 11.2 4 20C4 28.8 11.2 36 20 36C28.8 36 36 28.8 36 20C36 11.2 28.8 4 20 4ZM6 20C6 12.3 12.3 6 20 6V19H16V33.4C10.2 31.7 6 26.3 6 20ZM18.2328 33.8336C18.8363 33.9212 19.3788 34 20 34C27.7 34 34 27.7 34 20C34 13 28.8 7.2 22 6.2V21H18V33.8C18.0785 33.8112 18.1565 33.8225 18.2328 33.8336ZM21 28.5C21.8284 28.5 22.5 27.8284 22.5 27C22.5 26.1716 21.8284 25.5 21 25.5C20.1716 25.5 19.5 26.1716 19.5 27C19.5 27.8284 20.1716 28.5 21 28.5ZM16.5 13C16.5 13.8284 15.8284 14.5 15 14.5C14.1716 14.5 13.5 13.8284 13.5 13C13.5 12.1716 14.1716 11.5 15 11.5C15.8284 11.5 16.5 12.1716 16.5 13ZM25 28.5C25.8284 28.5 26.5 27.8284 26.5 27C26.5 26.1716 25.8284 25.5 25 25.5C24.1716 25.5 23.5 26.1716 23.5 27C23.5 27.8284 24.1716 28.5 25 28.5ZM30.5 27C30.5 27.8284 29.8284 28.5 29 28.5C28.1716 28.5 27.5 27.8284 27.5 27C27.5 26.1716 28.1716 25.5 29 25.5C29.8284 25.5 30.5 26.1716 30.5 27Z" fill="#333333"/>
</svg>
