<svg width="40" height="40" viewBox="0 0 40 40" fill="none" xmlns="http://www.w3.org/2000/svg">
<path d="M17.1446 31.9962H22.8566L23.8666 22.6402C21.3366 21.7942 18.6726 21.7922 16.1326 22.6422L17.1446 31.9962ZM24.6306 34.0002H15.3706L14.0006 21.3202L14.7006 21.0382C18.1466 19.6542 21.8606 19.6542 25.2986 21.0382L26.0006 21.3202L24.6306 34.0002ZM4.19539 30.002H9.78539L9.13539 22.188C7.70739 21.962 6.27339 21.962 4.84539 22.188L4.19539 30.002ZM11.9814 32H1.99939L2.98139 20.522L3.70739 20.368C4.77539 20.14 5.86339 20.008 6.93939 20H7.04139C8.11739 20.008 9.20539 20.14 10.2734 20.368L10.9994 20.522L11.9814 32ZM30.2148 30.002H35.8048L35.1548 22.188C33.7268 21.962 32.2928 21.962 30.8648 22.188L30.2148 30.002ZM38.0008 32H28.0188L29.0008 20.522L29.7268 20.368C30.7948 20.14 31.8828 20.008 32.9588 20H33.0608C34.1368 20.008 35.2248 20.14 36.2928 20.368L37.0188 20.522L38.0008 32ZM6.99999 10.004C5.34799 10.004 4.00399 11.348 4.00399 13C4.00399 14.652 5.34799 15.996 6.99999 15.996C8.65199 15.996 9.99599 14.652 9.99599 13C9.99599 11.348 8.65199 10.004 6.99999 10.004ZM6.99999 18C4.24399 18 1.99999 15.756 1.99999 13C1.99999 10.244 4.24399 8 6.99999 8C9.75599 8 12 10.244 12 13C12 15.756 9.75599 18 6.99999 18ZM33 10.004C31.348 10.004 30.004 11.348 30.004 13C30.004 14.652 31.348 15.996 33 15.996C34.652 15.996 35.996 14.652 35.996 13C35.996 11.348 34.652 10.004 33 10.004ZM33 18C30.244 18 28 15.756 28 13C28 10.244 30.244 8 33 8C35.756 8 38 10.244 38 13C38 15.756 35.756 18 33 18ZM20 8.004C17.796 8.004 16.004 9.796 16.004 12C16.004 14.204 17.796 15.996 20 15.996C22.204 15.996 23.996 14.204 23.996 12C23.996 9.796 22.204 8.004 20 8.004ZM20 18C16.692 18 14 15.308 14 12C14 8.692 16.692 6 20 6C23.308 6 26 8.692 26 12C26 15.308 23.308 18 20 18Z" fill="#333333"/>
</svg>
