<svg width="40" height="40" viewBox="0 0 40 40" fill="none" xmlns="http://www.w3.org/2000/svg">
<path d="M33.958 28.5882L29.222 32.7282C28.32 33.5182 27.176 33.9022 26.014 33.9462V10.1982C27.548 10.2362 29.086 9.7942 30.362 8.8822L33.85 6.3922L33.958 6.5002V28.5882ZM16.56 30.4822C15.75 30.1342 14.892 29.9702 14.032 29.9382V6.0382C14.652 6.0622 15.272 6.1562 15.86 6.4082L23.396 9.6362C23.598 9.7222 23.808 9.7882 24.016 9.8542V33.6402C23.948 33.6162 23.874 33.6142 23.804 33.5842L16.56 30.4822ZM9.594 31.2342L6.106 33.7222L5.998 33.6162V10.5782L10.744 7.0202C11.142 6.7202 11.58 6.5002 12.034 6.3302V30.1402C11.168 30.3522 10.334 30.7062 9.594 31.2342ZM34.002 4.0642L29.202 7.2582C27.748 8.2982 25.826 8.5042 24.182 7.8002L16.646 4.5722C14.304 3.5742 11.584 3.8962 9.546 5.4222L4 9.5802L4.044 34.0042L6.042 36.0002L10.754 32.8602C12.206 31.8182 14.128 31.6122 15.774 32.3182L23.02 35.4202C25.532 36.4962 28.48 36.0322 30.538 34.2302L35.956 29.4922L36 6.0602L34.002 4.0642Z" fill="#333333"/>
</svg>
