<svg width="40" height="40" viewBox="0 0 40 40" fill="none" xmlns="http://www.w3.org/2000/svg">
<path d="M20 4.0004C28.822 4.0004 36 11.1784 36 20.0004C36 28.8224 28.822 36.0004 20 36.0004C18.592 36.0004 17.2 35.8184 15.858 35.4584L16.376 33.5264C17.548 33.8404 18.766 34.0004 20 34.0004C27.72 34.0004 34 27.7184 34 20.0004C34 12.2804 27.72 5.9984 20 5.9984C12.282 5.9984 6 12.2804 6 20.0004C6 21.2284 6.16 22.4504 6.474 23.6264L4.542 24.1404C4.182 22.7964 4 21.4024 4 20.0004C4 11.1784 11.178 4.0004 20 4.0004ZM13.25 31.6918C13.968 32.1058 14.212 33.0238 13.798 33.7398C13.384 34.4578 12.468 34.7038 11.75 34.2898C11.032 33.8758 10.788 32.9578 11.202 32.2398C11.616 31.5238 12.532 31.2778 13.25 31.6918ZM8.333 29.5452C8.917 28.9612 9.869 28.9612 10.455 29.5452C11.041 30.1312 11.041 31.0832 10.455 31.6692C9.869 32.2532 8.917 32.2532 8.333 31.6692C7.747 31.0832 7.747 30.1312 8.333 29.5452ZM8.3086 26.7504C8.7226 27.4664 8.4766 28.3844 7.7606 28.7984C7.0426 29.2124 6.1246 28.9664 5.7106 28.2504C5.2966 27.5344 5.5426 26.6164 6.2606 26.2024C6.9766 25.7884 7.8946 26.0344 8.3086 26.7504ZM15.1796 13.4398L26.9996 18.5798V21.4998L15.1796 26.6418L13.9996 25.7198V14.3598L15.1796 13.4398ZM24.9996 20.1998V19.9998L15.9996 15.9998V24.1998L24.9996 20.1998Z" fill="#333333"/>
</svg>
