<svg width="40" height="40" viewBox="0 0 40 40" fill="none" xmlns="http://www.w3.org/2000/svg">
<path fill-rule="evenodd" clip-rule="evenodd" d="M36 20C36 28.8 28.8 36 20 36C17.3 36 14.7 35.3 12.4 34L5.4 36L2 32.2L5.2 26C4.4 24.1 4 22 4 20C4 11.2 11.2 4 20 4C28.8 4 36 11.2 36 20ZM26 16V18H14V16H26ZM14 24H22V22H14V24ZM20 6C27.7 6 34 12.3 34 20C34 27.7 27.7 34 20 33.9C17.6 33.9 15.1 33.2 13 32L12.6 31.8L6.1 33.7L4.4 31.9L7.4 26.1L7.2 25.7C6.4 23.9 6 22 6 20C6 12.3 12.3 6 20 6Z" fill="#333333"/>
</svg>
