<svg width="40" height="40" viewBox="0 0 40 40" fill="none" xmlns="http://www.w3.org/2000/svg">
<path d="M37.2234 18.4396L39.0474 19.5756L35.8094 24.0076H34.2834L31.0474 19.5756L32.8694 18.4396L34.0474 21.1456V20.0096C34.0474 16.2696 32.5914 12.7536 29.9454 10.1096C28.4414 8.6036 26.6474 7.4976 24.6954 6.8136L25.3434 4.9216C27.5794 5.7036 29.6354 6.9696 31.3594 8.6956C34.3834 11.7156 36.0474 15.7336 36.0474 20.0096V21.1456L37.2234 18.4396ZM2.824 21.5762L1 20.4402L4.238 16.0082H5.764L9 20.4402L7.178 21.5762L6 18.8702V20.0062C6 23.7462 7.456 27.2622 10.102 29.9062C11.606 31.4122 13.4 32.5162 15.352 33.2022L14.704 35.0942C12.468 34.3102 10.412 33.0442 8.688 31.3202C5.664 28.3002 4 24.2822 4 20.0062V18.8702L2.824 21.5762ZM4 4H22V16H9.916L4 10.958V4ZM6 10.021L10.7201 14H20V6H6V10.021ZM18 24H30.084L36 29.042V35.998H18V24ZM20 25.998V33.998H34V29.977L29.2799 25.998H20Z" fill="#333333"/>
</svg>
