<svg width="40" height="40" viewBox="0 0 40 40" fill="none" xmlns="http://www.w3.org/2000/svg">
<path d="M29.0234 10.9668C22.3974 4.3448 11.6114 4.3408 4.9814 10.9668L3.5654 9.5528C10.9774 2.1488 23.0274 2.1508 30.4374 9.5528L29.0234 10.9668ZM12.0508 18.045C14.7788 15.319 19.2228 15.319 21.9508 18.045L20.5348 19.459C18.5868 17.509 15.4168 17.509 13.4648 19.459L12.0508 18.045ZM26.1934 13.8008L24.7774 15.2148C20.4894 10.9288 13.5094 10.9288 9.2234 15.2148L7.8094 13.8008C12.8774 8.7348 21.1234 8.7348 26.1934 13.8008ZM28.998 33.998C30.652 33.998 31.998 32.654 31.998 31C31.998 29.346 30.652 28.002 28.998 28.002C27.342 28.002 25.996 29.346 25.996 31C25.996 32.654 27.342 33.998 28.998 33.998ZM10.988 33.998C12.642 33.998 13.988 32.654 13.988 31C13.988 29.346 12.642 28.002 10.988 28.002C9.332 28.002 7.986 29.346 7.986 31C7.986 32.654 9.332 33.998 10.988 33.998ZM38 23.482V31.984H33.9C33.442 34.272 31.418 36 28.998 36C26.578 36 24.556 34.274 24.096 31.99H15.89C15.428 34.274 13.406 36 10.988 36C8.562 36 6.54 34.266 6.084 31.974H2V13.984H5.984V15.984H3.984V29.974H6.092C6.566 27.708 8.58 26 10.988 26C13.4 26 15.418 27.716 15.886 29.99H24.098C24.566 27.716 26.584 26 28.998 26C31.408 26 33.424 27.712 33.894 29.982H36V24.484L32.15 21.596L30.282 15.984H27.994V13.984H31.722L33.998 20.374L38 23.482Z" fill="#333333"/>
</svg>
