<svg width="40" height="40" viewBox="0 0 40 40" fill="none" xmlns="http://www.w3.org/2000/svg">
<path d="M18.0004 18.0002V16.0004H16.0004V14.0004H18.0004V8.0004H22.0004C24.2044 8.0004 26.0004 9.7924 26.0004 12.0004C26.0004 14.2064 24.2044 16.0004 22.0004 16.0004H19.9844V18.0002H24V20.0002H19.9844V22.0004H18.0004V20.0002H16V18.0002H18.0004ZM29.9998 20.001H34.001V35.993H5.99902V20.001H9.99982V8.7084C9.99982 6.1504 12.0478 4.0764 14.5878 4.0124V4.0004H32.7278V4.0064C35.0938 4.0404 36.9998 5.9724 36.9998 8.3364V10.0004H29.9998V20.001ZM9.99982 22.001H7.99902V33.999H31.999V22.001H29.9998V28.0004H9.99982V22.001ZM30.0898 8.0004H34.9758C34.8118 6.8784 33.8458 6.0164 32.6798 6.0164C31.4358 6.0164 30.3918 6.8604 30.0898 8.0004ZM27.9998 26.0004V8.6864C27.9998 7.6884 28.3218 6.7644 28.8578 6.0004H14.7058C13.2138 6.0004 11.9998 7.2144 11.9998 8.7084V26.0004H27.9998ZM19.9844 14.0004H22.0004C23.1044 14.0004 24.0004 13.1024 24.0004 12.0004C24.0004 10.8964 23.1044 10.0004 22.0004 10.0004H19.9844V14.0004Z" fill="#333333"/>
</svg>
