<svg width="40" height="40" viewBox="0 0 40 40" fill="none" xmlns="http://www.w3.org/2000/svg">
<path fill-rule="evenodd" clip-rule="evenodd" d="M20 6C25 6 29.6 8.7 32.1 13L33.9 12C31 7.1 25.7 4 20 4C11.2 4 3.89999 11.2 3.89999 20C3.89999 28.8 11.1 36 19.9 36C25.6 36 30.9 32.9 33.8 28L32.1 27C29.6 31.3 25 34 20 34C12.3 34 5.99999 27.7 5.99999 20C5.99999 12.3 12.3 6 20 6ZM35 16H37V19H40V21H37V24H35V21H32V19H35V16ZM18 26V24H19V22H18V19H16V22H12.3L14.8 14.3L12.9 13.7L10.2 22.1L9.99999 22.7L10.9 24H16V26H18ZM29.6 15.2L28.4 16.8C26.9 15.6 24.5 15.8 23.2 17.2C22.4 17.9 22 18.9 22 20C22 21.1 22.4 22.1 23.2 23C24.4 24.2 26.5 24.5 28 23.6V21.1H26V19.1H30V24.6L29.6 24.9C28.6 25.7 27.3 26.1 26 26.1C24.4 26.1 22.9 25.4 21.8 24.3C20.6 23.1 20 21.6 20 20C20 18.4 20.6 16.9 21.8 15.8C23.8 13.7 27.3 13.4 29.6 15.2Z" fill="#333333"/>
</svg>
