<svg width="40" height="40" viewBox="0 0 40 40" fill="none" xmlns="http://www.w3.org/2000/svg">
<path d="M29 26C31.758 26 34 23.758 34 21C34 18.242 31.758 16 29 16C26.242 16 24 18.242 24 21C24 23.758 26.242 26 29 26ZM20.632 20L22.016 21.158C22.016 21.104 22 21.054 22 21C22 19.042 22.814 17.272 24.118 16H15.882C17.186 17.272 18 19.042 18 21C18 21.034 17.99 21.062 17.99 21.096L19.306 20H20.632ZM11 26C13.758 26 16 23.758 16 21C16 18.242 13.758 16 11 16C8.242 16 6 18.242 6 21C6 23.758 8.242 26 11 26ZM29 14C32.86 14 36 17.14 36 21C36 24.86 32.86 28 29 28C26.474 28 24.276 26.64 23.044 24.628L19.966 22.05L17.026 24.5C15.81 26.582 13.578 28 11 28C7.14 28 4 24.86 4 21C4 17.14 7.14 14 11 14H29ZM11 19C12.106 19 13 19.894 13 21C13 22.106 12.106 23 11 23C9.894 23 9 22.106 9 21C9 19.894 9.894 19 11 19ZM29 19C30.104 19 31 19.894 31 21C31 22.106 30.104 23 29 23C27.894 23 27 22.106 27 21C27 19.894 27.894 19 29 19Z" fill="#333333"/>
</svg>
