<svg width="40" height="40" viewBox="0 0 40 40" fill="none" xmlns="http://www.w3.org/2000/svg">
<path fill-rule="evenodd" clip-rule="evenodd" d="M20 4C28.8 4 36 11.2 36 20C36 26 32.7 31.3 27.7 34H36V36H20C11.2 36 4 28.8 4 20C4 11.2 11.2 4 20 4ZM6 20C6 27.7 12.3 34 20 34C27.7 34 34 27.7 34 20C34 12.3 27.7 6 20 6C12.3 6 6 12.3 6 20ZM14 20C14 21.1 13.1 22 12 22C10.9 22 10 21.1 10 20C10 18.9 10.9 18 12 18C13.1 18 14 18.9 14 20ZM28 22C29.1 22 30 21.1 30 20C30 18.9 29.1 18 28 18C26.9 18 26 18.9 26 20C26 21.1 26.9 22 28 22ZM22 28C22 29.1 21.1 30 20 30C18.9 30 18 29.1 18 28C18 26.9 18.9 26 20 26C21.1 26 22 26.9 22 28ZM20 14C21.1 14 22 13.1 22 12C22 10.9 21.1 10 20 10C18.9 10 18 10.9 18 12C18 13.1 18.9 14 20 14Z" fill="#333333"/>
</svg>
