<svg width="40" height="40" viewBox="0 0 40 40" fill="none" xmlns="http://www.w3.org/2000/svg">
<path fill-rule="evenodd" clip-rule="evenodd" d="M31.6 21.4C32.3 18.8 31.2 16.1 28.9 14.7V14C28.9 9 24.9 5 19.9 5C14.9 5 10.9 9 10.9 14V14.7C8.7 16.1 7.7 18.8 8.4 21.4L4 25.8V29.5L6.4 31.9L12.6 25.7C13.6 26 14.6 26 15.6 25.7C16.1 26.8 16.9 27.7 18 28.3V37H21.4L24 34.4V28.2C25 27.6 25.8 26.8 26.3 25.7C26.5 25.7 26.675 25.675 26.85 25.65C27.025 25.625 27.2 25.6 27.4 25.6L33.6 31.8L36 29.4V25.7L31.6 21.4ZM20 7C23.8 7 27 10.1 27 13.9C25 13.5 23 14.1 21.6 15.5C21.2 15.9 20.8 16.4 20.5 17C20.2626 17 20.0252 17.0626 19.7383 17.1383C19.6626 17.1583 19.5835 17.1791 19.5 17.2C19.2 16.6 18.9 16 18.4 15.6C17 14.2 14.9 13.6 13 14C13 10.1 16.2 7 20 7ZM15 23.7V23C15 21 16 19.1 17.7 18C17.5 17.6 17.3 17.3 17 17C15.9 15.9 14.3 15.5 12.8 16.1C10.7 16.9 9.7 19.2 10.5 21.3L10.7 21.9L6 26.6V28.6L6.4 29L12 23.3L12.6 23.6C13.4 23.9 14.2 23.9 15 23.7ZM22.6 26.7L22 27V33.7L20.6 35.1H20V27L19.4 26.7C17.4 25.8 16.5 23.5 17.3 21.4C17.8 20.3 18.7 19.5 19.8 19.2C19.5 22 21.2 24.7 23.9 25.5C23.6 26 23.1 26.4 22.6 26.7ZM33.6 29.1L34 28.7V26.6L29.2 22L29.4 21.4C30 19.9 29.6 18.2 28.5 17.1L28.4 17C28 18.2 27.3 19.4 26.4 20.4L26.3 20.5C25.9 20.9 25.3 20.8 24.9 20.4C24.5 20 24.6 19.4 25 19C25.8 18.1 26.4 17.1 26.7 16C25.9 15.8 25.1 15.9 24.3 16.2C22.3 17 21.3 19.4 22.1 21.4C22.9 23.4 25.3 24.4 27.3 23.6L27.9 23.4L33.6 29.1Z" fill="#333333"/>
</svg>
