<svg width="40" height="40" viewBox="0 0 40 40" fill="none" xmlns="http://www.w3.org/2000/svg">
<path fill-rule="evenodd" clip-rule="evenodd" d="M19.9709 21.9802C17.8189 21.9802 16.0009 23.8542 16.0009 26.0042V33.9902H11.9549V17.9902H28.0049V33.9902H24.0009V26.0042C24.0009 23.8542 22.1209 21.9802 19.9709 21.9802ZM20.0169 8.0002L34.5149 15.9902H5.51885L20.0169 8.0002ZM35.9969 17.9902H37.1909L37.9589 15.9002L20.0009 6.0002L2.00085 15.9502L2.84285 17.9902H4.00485V33.9902H2.00085V35.9802H18.0009V26.0042C18.0009 24.9502 18.9189 23.9802 19.9709 23.9802C21.0229 23.9802 22.0009 24.9502 22.0009 26.0042V35.9802H37.9589V33.9902H35.9969V17.9902ZM5.99685 33.9902H10.0009V17.9902H5.99685V33.9902ZM34.0049 33.9902H29.9969V17.9902H34.0049V33.9902Z" fill="#333333"/>
</svg>
