<svg width="90" height="40" viewBox="0 0 90 40" fill="none" xmlns="http://www.w3.org/2000/svg">
<path d="M22.5382 26C19.706 26 17.41 28.2386 17.41 31C17.41 33.7614 19.706 36 22.5382 36C25.3704 36 27.6663 33.7614 27.6663 31V8.18L10.3537 4L9.20502 4.84V23.02C8.32136 22.3611 7.24056 22.0028 6.12814 22C3.29595 22 1 24.2386 1 27C1 29.7614 3.29595 32 6.12814 32C8.96033 32 11.2563 29.7614 11.2563 27V13.2L25.6151 16.7V27.04C24.734 26.374 23.653 26.0086 22.5382 26ZM22.5382 34C20.8389 34 19.4613 32.6569 19.4613 31C19.4613 29.3431 20.8389 28 22.5382 28C24.2375 28 25.6151 29.3431 25.6151 31C25.6151 32.6569 24.2375 34 22.5382 34ZM6.12814 30C4.42882 30 3.05126 28.6569 3.05126 27C3.05126 25.3431 4.42882 24 6.12814 24C7.82746 24 9.20502 25.3431 9.20502 27C9.20502 28.6569 7.82746 30 6.12814 30ZM11.2563 11.12V6.24L25.6151 9.74V14.64L11.2563 11.12ZM38.9482 16V19H42.0251V21H38.9482V24H36.897V21H33.8201V19H36.897V16H38.9482ZM52.2845 10.0004C51.1583 10.0004 50.2435 10.8964 50.2435 11.9984V28.0024C50.2435 29.1044 51.1583 29.9984 52.2845 29.9984H76.8934C78.0195 29.9984 78.9344 29.1044 78.9344 28.0024V11.9984C78.9344 10.8964 78.0195 10.0004 76.8934 10.0004H52.2845ZM76.8934 32.0004H52.2845C50.0219 32.0004 48.1799 30.2084 48.1799 28.0024V11.9984C48.1799 9.7924 50.0219 8.0004 52.2845 8.0004H76.8934C79.1559 8.0004 81 9.7924 81 11.9984V28.0024C81 30.2084 79.1559 32.0004 76.8934 32.0004ZM59.6454 13.44L58.4352 14.36V25.72L59.6454 26.64L71.7683 21.5V18.58L59.6454 13.44ZM69.7171 20.2L60.4864 24.2V16L69.7171 20V20.2Z" fill="#333333"/>
</svg>
