<svg width="40" height="40" viewBox="0 0 40 40" fill="none" xmlns="http://www.w3.org/2000/svg">
<path fill-rule="evenodd" clip-rule="evenodd" d="M20 31C20 28.2 22.2 26 25 26C26.1 26 27.2 26.4 28 27V16.7L14 13.2V27C14 29.8 11.8 32 9 32C6.2 32 4 29.8 4 27C4 24.2 6.2 22 9 22C10.1 22 11.2 22.4 12 23V4.8L13.1 4L30 8.2V31C30 33.8 27.8 36 25 36C22.2 36 20 33.8 20 31ZM22 31C22 32.7 23.3 34 25 34C26.7 34 28 32.7 28 31C28 29.3 26.7 28 25 28C23.3 28 22 29.3 22 31ZM9 30C7.3 30 6 28.7 6 27C6 25.3 7.3 24 9 24C10.7 24 12 25.3 12 27C12 28.7 10.7 30 9 30ZM14 6.2V11.1L28 14.6V9.7L14 6.2Z" fill="#333333"/>
</svg>
