<svg width="40" height="40" viewBox="0 0 40 40" fill="none" xmlns="http://www.w3.org/2000/svg">
<path fill-rule="evenodd" clip-rule="evenodd" d="M14 22C15.1046 22 16 21.1046 16 20C16 18.8954 15.1046 18 14 18C12.8954 18 12 18.8954 12 20C12 21.1046 12.8954 22 14 22ZM20 22C21.1046 22 22 21.1046 22 20C22 18.8954 21.1046 18 20 18C18.8954 18 18 18.8954 18 20C18 21.1046 18.8954 22 20 22ZM28 20C28 21.1046 27.1046 22 26 22C24.8954 22 24 21.1046 24 20C24 18.8954 24.8954 18 26 18C27.1046 18 28 18.8954 28 20Z" fill="#333333"/>
</svg>
