<svg width="40" height="40" viewBox="0 0 40 40" fill="none" xmlns="http://www.w3.org/2000/svg">
<path fill-rule="evenodd" clip-rule="evenodd" d="M20 36C22.8 36 25.5 35.2 28 33.8C29.3 35.1 31.1 36 33 36C36.9 36 40 32.9 40 29C40 26.1 38.3 23.7 35.8 22.6L35.8274 22.3549C35.9175 21.5525 36 20.8175 36 20C36 11.2 28.8 4 20 4C11.2 4 4 11.2 4 20C4 28.8 11.2 36 20 36ZM33 34C30.2 34 28 31.8 28 29C28 26.2 30.2 24 33 24C34.3 24 35.4 24.5 36.3 25.2L33 28.7L31.7 27.3L30.2 28.6L32.3 30.9H33.6L37.5 26.8C37.8 27.5 38 28.2 38 28.9C38 31.8 35.8 34 33 34ZM34 20C34 12.3 27.7 6 20 6C12.3 6 6 12.3 6 20C6 27.7 12.3 34 20 34C22.4 34 24.7 33.4 26.8 32.2C26.3 31.2 26 30.2 26 29C26 25.1 29.1 22 33 22C33.15 22 33.275 22.025 33.4 22.05C33.525 22.075 33.65 22.1 33.8 22.1C33.9 21.4 34 20.7 34 20ZM16 29H18V26H24V24H18V22H22C24.8 22 27 19.8 27 17C27 14.2 24.8 12 22 12H16V20H14V22H16V24H14V26H16V29ZM22 14H18V20H22C23.7 20 25 18.7 25 17C25 15.3 23.7 14 22 14Z" fill="#333333"/>
</svg>
