<svg width="40" height="40" viewBox="0 0 40 40" fill="none" xmlns="http://www.w3.org/2000/svg">
<path fill-rule="evenodd" clip-rule="evenodd" d="M24 20H26C27.103 20 28 20.896 28 22C28 23.104 27.103 24 26 24H24V20ZM22 32H24V30H27V28H24V26H26C28.206 26 30 24.205 30 22C30 19.795 28.206 18 26 18H22V24H20V26H22V28H20V30H22V32ZM11.929 20C12.942 20 13.969 20.184 14.996 20.454C14.362 21.842 14 23.378 14 25C14 27.646 14.94 30.077 16.503 31.977L16.243 34H7.614L6.149 21.147C6.149 21.147 8.345 20 11.929 20ZM25 16C29.963 16 34 20.037 34 25C34 29.963 29.963 34 25 34C20.037 34 16 29.963 16 25C16 20.037 20.037 16 25 16ZM6 36H18L18.297 33.702C20.156 35.137 22.477 36 25 36C31.065 36 36 31.064 36 25C36 18.936 31.065 14 25 14C21.293 14 18.016 15.849 16.022 18.666C14.658 18.255 13.287 18 11.929 18C7.796 18 4.137 19.912 4 20L6 36ZM12 6C14.206 6 16 7.795 16 10C16 12.205 14.206 14 12 14C9.794 14 8 12.205 8 10C8 7.795 9.794 6 12 6ZM12 16C15.309 16 18 13.309 18 10C18 6.691 15.309 4 12 4C8.691 4 6 6.691 6 10C6 13.309 8.691 16 12 16Z" fill="#333333"/>
</svg>
