<svg width="40" height="40" viewBox="0 0 40 40" fill="none" xmlns="http://www.w3.org/2000/svg">
<path d="M25 34C29.962 34 34 29.962 34 25C34 20.038 29.962 16 25 16C20.038 16 16 20.038 16 25C16 29.962 20.038 34 25 34ZM10 34H18.696C15.86 32.008 14 28.72 14 25C14 19.272 18.402 14.558 24 14.05V8C24 6.898 23.104 6 22 6H10C8.896 6 8 6.898 8 8V32C8 33.102 8.896 34 10 34ZM26 14.05C31.598 14.558 36 19.272 36 25C36 31.066 31.066 36 25 36H10C7.794 36 6 34.208 6 32V8C6 5.792 7.794 4 10 4H22C24.206 4 26 5.792 26 8V14.05ZM12 10V8H20V10H12ZM26 23.9902C27.104 23.9902 28 23.0922 28 21.9902C28 20.8862 27.104 19.9902 26 19.9902H23.984V23.9902H26ZM26 17.9902C28.206 17.9902 30 19.7822 30 21.9902C30 24.1962 28.206 25.9902 26 25.9902H23.984V28.0002H28V30.0002H23.984V31.9902H21.984V30.0002H20V28.0002H21.984V25.9902H20V23.9902H21.984V17.9902H26Z" fill="#333333"/>
</svg>
