<svg width="21" height="21" viewBox="0 0 21 21" fill="none" xmlns="http://www.w3.org/2000/svg">
<path d="M0 21V18.375C0 15.4875 4.725 13.125 10.5 13.125C16.275 13.125 21 15.4875 21 18.375V21H0ZM5.25 5.25C5.25 4.21165 5.55791 3.1966 6.13478 2.33325C6.71166 1.46989 7.5316 0.796984 8.49091 0.399624C9.45022 0.00226424 10.5058 -0.101673 11.5242 0.100899C12.5426 0.303472 13.4781 0.803462 14.2123 1.53769C14.9465 2.27191 15.4465 3.20737 15.6491 4.22577C15.8517 5.24417 15.7477 6.29977 15.3504 7.25909C14.953 8.2184 14.2801 9.03832 13.4167 9.6152C12.5534 10.1921 11.5384 10.5 10.5 10.5C9.10761 10.5 7.77225 9.94688 6.78769 8.96232C5.80312 7.97775 5.25 6.64239 5.25 5.25Z" fill="#00B956"/>
</svg>
