<svg width="40" height="40" viewBox="0 0 40 40" fill="none" xmlns="http://www.w3.org/2000/svg">
<path fill-rule="evenodd" clip-rule="evenodd" d="M26 22H21V17.9C22.5 17.7 23.8 17 24.9 16H28C30.8 16 33 13.8 33 11C33 8.2 30.8 6 28 6H27V4H13V6H12C9.2 6 7 8.2 7 11C7 13.8 9.2 16 12 16H15.1C16.1 17 17.5 17.7 19 17.9V22H14V28H6V36H34V26H26V22ZM28 8C29.7 8 31 9.3 31 11C31 12.7 29.7 14 28 14H26.3C26.7 13.1 27 12.1 27 11V8H28ZM12 8C10.3 8 9 9.3 9 11C9 12.7 10.3 14 12 14H13.7C13.3 13.1 13 12.1 13 11V8H12ZM15 11V6H25V11C25 13.8 22.8 16 20 16C17.2 16 15 13.8 15 11ZM32 34V28H24V24H16V30H8V34H32Z" fill="#333333"/>
</svg>
