<svg width="40" height="40" viewBox="0 0 40 40" fill="none" xmlns="http://www.w3.org/2000/svg">
<path d="M16 10V8H24V10H16ZM22 30.0004C22 31.1044 21.104 32.0004 20 32.0004C18.896 32.0004 18 31.1044 18 30.0004C18 28.8964 18.896 28.0004 20 28.0004C21.104 28.0004 22 28.8964 22 30.0004ZM13.997 6.0004C12.895 6.0004 11.999 6.8964 11.999 7.9964V32.0024C11.999 33.1044 12.895 34.0004 13.997 34.0004H26.003C27.105 34.0004 27.999 33.1044 27.999 32.0024V7.9964C27.999 6.8964 27.105 6.0004 26.003 6.0004H13.997ZM26.003 36.0004H13.997C11.793 36.0004 9.99899 34.2084 9.99899 32.0024V7.9964C9.99899 5.7924 11.793 4.0004 13.997 4.0004H26.003C28.207 4.0004 29.999 5.7924 29.999 7.9964V32.0024C29.999 34.2084 28.207 36.0004 26.003 36.0004Z" fill="#333333"/>
</svg>
