<svg width="40" height="40" viewBox="0 0 40 40" fill="none" xmlns="http://www.w3.org/2000/svg">
<path fill-rule="evenodd" clip-rule="evenodd" d="M8 16C8 9.4 13.4 4 20 4C26.6 4 32 9.4 32 16.1C32 18.3642 31.2967 20.1362 31.0697 20.7082C31.026 20.8182 31 20.8839 31 20.9L22.8 36H17.2L9 20.9C9 20.8846 8.97616 20.8286 8.93585 20.734C8.71506 20.2156 8 18.5368 8 16ZM21.6 34L29.2 19.9C29.3 19.8 30 18.2 30 16C30 10.5 25.5 6 20 6C14.5 6 10 10.5 10 16C10 18.4 10.8 19.9 10.8 19.9L18.4 34H21.6ZM20 10C16.7 10 14 12.7 14 16C14 19.3 16.7 22 20 22C23.3 22 26 19.3 26 16C26 12.7 23.3 10 20 10ZM16 16C16 18.2 17.8 20 20 20C22.2 20 24 18.2 24 16C24 13.8 22.2 12 20 12C17.8 12 16 13.8 16 16Z" fill="#333333"/>
</svg>
