<svg width="40" height="40" viewBox="0 0 40 40" fill="none" xmlns="http://www.w3.org/2000/svg">
<path d="M8.95919 9.43525L21.7019 16.8395L12.4553 24.5751L7.59417 23.4597L6.23121 24.5788L12.3563 27.2079L13.9015 33.6676L15.2317 32.5345L14.9741 27.5678L24.2973 19.7681L29.3288 33.6366L30.672 32.5041L28.4363 16.3055L33.2953 12.2406C34.1293 11.5428 34.2416 10.3072 33.5461 9.48079C32.8505 8.65436 31.6105 8.55005 30.7765 9.24782L25.9175 13.3128L10.3053 8.30476L8.95919 9.43525ZM18.2473 17.1204L7.27205 10.7143L6.75444 8.55397L9.80728 6L25.4749 11.0738L29.4878 7.71667C31.1649 6.31364 33.6653 6.53174 35.0725 8.2038C36.4797 9.87586 36.261 12.3687 34.5839 13.7717L30.571 17.1289L32.8621 33.3934L29.8092 35.9473L27.7652 35.064L23.406 23.123L17.026 28.4605L17.2994 33.446L14.2466 36L12.2025 35.1166L10.6497 28.6356L4.51761 25.9855L4 23.8252L7.05285 21.2712L11.9299 22.4054L18.2473 17.1204Z" fill="#333333"/>
</svg>
