<svg width="40" height="40" viewBox="0 0 40 40" fill="none" xmlns="http://www.w3.org/2000/svg">
<path d="M10.3072 24.0597C9.40083 26.7432 10.0484 29.7467 12.0546 31.8044C15.0326 34.8624 19.4146 34.8664 22.3966 31.8044L34.6186 19.6204L36.0006 21.0364L23.7766 33.2204C21.9706 35.0744 19.5986 36.0004 17.2266 36.0004C14.8526 36.0004 12.4786 35.0744 10.6726 33.2204C7.9511 30.4323 7.20357 26.2697 8.72811 22.6988C5.04947 18.7828 5.09176 12.5255 8.85499 8.6614L11.621 5.9994L14.7868 9.20689L19.8628 4.001L21.2448 5.287L16.1671 10.6054L21.1983 15.7028L26.6188 10.1436L28.0008 11.4296L22.5822 17.105L25.439 19.9994L22.675 22.8314C20.771 24.7874 18.269 25.7614 15.765 25.7614C13.8592 25.7614 11.951 25.1954 10.3072 24.0597ZM11.621 8.6614L10.239 10.0774C7.19099 13.2034 7.19099 18.2894 10.239 21.4154C13.291 24.5434 18.249 24.5394 21.295 21.4154L22.675 19.9974L11.621 8.6614Z" fill="#333333"/>
</svg>
