<svg width="40" height="40" viewBox="0 0 40 40" fill="none" xmlns="http://www.w3.org/2000/svg">
<path fill-rule="evenodd" clip-rule="evenodd" d="M14 12C14 8.691 16.691 6 20 6C23.309 6 26 8.691 26 12C26 15.309 23.309 18 20 18C16.691 18 14 15.309 14 12ZM28 12C28 7.589 24.411 4 20 4C15.589 4 12 7.589 12 12C12 16.411 15.589 20 20 20C24.411 20 28 16.411 28 12ZM20 24C23.64 24 27.119 25.276 29.865 27.605L28.045 34H11.955L10.135 27.605C12.881 25.276 16.36 24 20 24ZM10.445 36H29.555L32 27C28.957 23.705 24.348 22 20 22C15.652 22 11.071 23.705 8 27L10.445 36Z" fill="#333333"/>
</svg>
