<svg width="40" height="40" viewBox="0 0 40 40" fill="none" xmlns="http://www.w3.org/2000/svg">
<path fill-rule="evenodd" clip-rule="evenodd" d="M27 14C33.1 14 38 18.9 38 25C38 26.4 37.7 27.7 37.2 29L38.9 32.9L36.5 35.9L32.1 34.7C30.6 35.6 28.8 36 27 36C21.1 36 16.3 31.4 16 25.6C15.1 25.8 14.1 26 13 26C11.2 26 9.4 25.6 7.8 24.7L3.4 25.9L1 22.9L2.8 19C2.3 17.7 2 16.4 2 15C2 8.9 6.9 4 13 4C18.9 4 23.7 8.6 24 14.4C25 14.2 26 14 27 14ZM23.7 24.3L26 26.8L30.9 21.5L32.4 22.9L26.6 29H25.4L22.3 25.7L23.7 24.3ZM8.5 22.8L8.1 22.6L4.1 23.7L3.3 22.6L5 19L4.8 18.6C4.3 17.5 4 16.3 4 15C4 10 8 6 13 6C18 6 22 10 22 15C22 20 18 24 13 24C11.4 24 9.9 23.6 8.5 22.8ZM31.8 32.5L35.8 33.6L36.6 32.5L35 29L35.2 28.6C35.7 27.5 36 26.3 36 25C36 20 32 16 27 16C25.9 16 24.9 16.2 23.9 16.6C23.3 20.2 21.1 23.2 18 24.8V25C18 30 22 34 27 34C28.6 34 30.1 33.6 31.4 32.7L31.8 32.5ZM13 21.5C13.8284 21.5 14.5 20.8284 14.5 20C14.5 19.1716 13.8284 18.5 13 18.5C12.1716 18.5 11.5 19.1716 11.5 20C11.5 20.8284 12.1716 21.5 13 21.5ZM9 13C9 10.8 10.8 9 13 9C14.1 9 15 9.5 15.8 10.2C16.6 10.9 17 11.9 17 13C17 14.1 16.5 15 15.8 15.8C15.1 16.6 14.1 17 13 17H12V15H13C13.5 15 14 14.8 14.4 14.4C14.8 14 15 13.5 15 13C15 12.5 14.8 12 14.4 11.6C14 11.2 13.5 11 13 11C11.9 11 11 11.9 11 13H9Z" fill="#333333"/>
</svg>
