<svg width="40" height="40" viewBox="0 0 40 40" fill="none" xmlns="http://www.w3.org/2000/svg">
<path d="M10 28.0002H30V22.0002H10V28.0002ZM27.412 32.0002L25.916 30.0002H14.084L12.588 32.0002H27.412ZM10 20.0002H30V14.0002H10V20.0002ZM19.958 6.0002C16.292 6.0002 12.8 7.1942 10 9.4342V12.0002H30V9.4342C27.2 7.1942 23.624 6.0002 19.958 6.0002ZM32 8.5002V30.0002H28.414L32 34.7902L30.398 35.9882L28.91 34.0002H11.09L9.602 35.9882L8 34.7902L11.586 30.0002H8V8.5002L8.31 8.2022C11.528 5.4682 15.664 4.0002 19.958 4.0002C24.254 4.0002 28.39 5.4682 31.608 8.2022L32 8.5002ZM14 23C15.104 23 16 23.896 16 25C16 26.106 15.104 27 14 27C12.894 27 12 26.106 12 25C12 23.896 12.894 23 14 23ZM26 23C27.104 23 28 23.896 28 25C28 26.106 27.104 27 26 27C24.894 27 24 26.106 24 25C24 23.896 24.894 23 26 23ZM16 10.0002V8.0002H24V10.0002H16Z" fill="#333333"/>
</svg>
