<svg width="40" height="40" viewBox="0 0 40 40" fill="none" xmlns="http://www.w3.org/2000/svg">
<path fill-rule="evenodd" clip-rule="evenodd" d="M21 5V19H32.14L29.43 20.18L30.57 22L35 18.76V17.24L30.57 14L29.43 15.82L32.14 17H23V5H21ZM22.48 35H23.48L27 31.44L20.17 24.61L17.39 27.39C15.3296 26.2888 13.6184 24.633 12.45 22.61L15.23 19.83L8.56 13L5 16.56V17.56C5.14537 27.1465 12.8932 34.8766 22.48 35ZM8.56 15.82L7 17.38V17.52C7.06531 26.0422 13.9578 32.9347 22.48 33H22.62L24.17 31.44L20.17 27.44L17.77 29.84L17.12 29.51C14.1898 28.1058 11.8036 25.7759 10.33 22.88L10 22.23L12.41 19.82L8.56 15.82Z" fill="#333333"/>
</svg>
