<svg width="40" height="40" viewBox="0 0 40 40" fill="none" xmlns="http://www.w3.org/2000/svg">
<path fill-rule="evenodd" clip-rule="evenodd" d="M36 20C36 28.8 28.8 36 20 36C11.2 36 4 28.8 4 20C4 11.2 11.2 4 20 4C28.8 4 36 11.2 36 20ZM28 26V31.5C31.6 28.9 34 24.7 33.9 20C33.9 17 33 14.3 31.4 12H25.1C24.2 12 23.5 12.6 23.2 13.4L21.2 19.4C21 20 21.1 20.7 21.5 21.2C21.9 21.7 22.5 22 23.1 22H24C26.2 22 28 23.8 28 26ZM29.8 10H25.2C23.5 10 22 11.1 21.4 12.7L19.4 18.7C19 19.9 19.2 21.2 19.9 22.3C20.7 23.4 21.8 24 23.1 24H24C25.1 24 26 24.9 26 26V32.6C24.2 33.5 22.1 34 20 34C14.4 34 9.6 30.7 7.4 26H10C12.2 26 14 24.2 14 22L14.1 14.5C14.1 13.2 13.5 12 12.5 11.3L10.5 9.8C12.9 7.5 16.3 6 20 6C23.8 6 27.3 7.5 29.8 10ZM11.2 12.9L9.1 11.3C7.1 13.7 6 16.7 6 20C6 21.4 6.2 22.7 6.6 24H9.9C11 24 11.9 23.1 11.9 22L12 14.5C12 13.9 11.7 13.3 11.2 12.9Z" fill="#333333"/>
</svg>
