<svg width="40" height="40" viewBox="0 0 40 40" fill="none" xmlns="http://www.w3.org/2000/svg">
<path fill-rule="evenodd" clip-rule="evenodd" d="M16 29.9687H24V27.9687H16V29.9687ZM8 33.9667H32V25.8847C24.139 23.3277 15.861 23.3277 8 25.8847V33.9667ZM6 24.4497L6.675 24.2177C15.382 21.2187 24.618 21.2187 33.325 24.2177L34 24.4497V35.9687H6V24.4497ZM29.192 13.7687C24.124 8.70171 15.876 8.70171 10.808 13.7687L12.222 15.1827C16.511 10.8937 23.489 10.8937 27.778 15.1827L29.192 13.7687ZM15.051 17.9487L16.465 19.3637C18.35 17.4767 21.65 17.4767 23.535 19.3637L24.949 17.9487C22.309 15.3087 17.691 15.3087 15.051 17.9487ZM32.021 10.9687C25.392 4.33971 14.608 4.33971 7.979 10.9687L6.565 9.55471C13.974 2.14871 26.026 2.14871 33.435 9.55471L32.021 10.9687Z" fill="black"/>
</svg>
