<svg width="40" height="40" viewBox="0 0 40 40" fill="none" xmlns="http://www.w3.org/2000/svg">
<path d="M25.98 27.8374C24.6019 26.569 22.5932 25.9266 20 25.9266C17.3401 25.9266 15.3626 26.5529 13.974 27.8384V32.267C14.5725 32.6127 14.9746 33.2596 14.9746 34C14.9746 35.104 14.0806 36 12.9746 36C11.8706 36 10.9746 35.104 10.9746 34C10.9746 33.2605 11.3767 32.6143 11.974 32.2682V28.0737C8.98813 26.6601 6 23.6664 6 20.0006C6 15.1546 9.626 12.8766 12.826 10.8666C15.49 9.19461 18.006 7.61461 18.676 4.77061L18.858 4.00061H21.146L21.326 4.77061C21.996 7.61461 24.512 9.19461 27.174 10.8666C30.374 12.8766 34 15.1546 34 20.0006C34 23.6576 30.9869 26.6556 27.98 28.075V32.2671C28.5784 32.6129 28.9804 33.2597 28.9804 34C28.9804 35.104 28.0864 36 26.9804 36C25.8764 36 24.9804 35.104 24.9804 34C24.9804 33.2604 25.3826 32.6141 25.98 32.2681V27.8374ZM11.422 25.4544C11.8557 25.7533 12.3084 26.0162 12.766 26.2366C14.514 24.7026 16.944 23.9266 20 23.9266C20.2871 23.9266 20.5687 23.9336 20.8447 23.9475L28.1571 13.8887C27.5149 13.4423 26.8244 13.0084 26.112 12.5606C24.895 11.7965 23.661 11.0219 22.5761 10.1091L11.422 25.4544ZM9.89303 24.1559L21.137 8.68691C20.6976 8.16426 20.3122 7.5944 20 6.96261C18.738 9.51661 16.282 11.0586 13.89 12.5606C10.728 14.5466 8 16.2606 8 20.0006C8 21.5311 8.77005 22.9784 9.89303 24.1559ZM23.1024 24.2431C24.7226 24.603 26.09 25.269 27.19 26.2366C29.666 25.0486 32 22.6426 32 20.0006C32 17.85 31.098 16.3694 29.7305 15.1217L23.1024 24.2431Z" fill="#333333"/>
</svg>
