<svg width="40" height="40" viewBox="0 0 40 40" fill="none" xmlns="http://www.w3.org/2000/svg">
<path fill-rule="evenodd" clip-rule="evenodd" d="M30 16.5591C30 23.3951 26.962 29.7321 21.653 33.9961H21V6.05811C24.158 6.22011 27.279 7.10511 30 8.79711V16.5591ZM10 16.5591V8.79711C12.721 7.10511 15.842 6.22011 19 6.05911V33.9961H18.347C13.038 29.7321 10 23.3951 10 16.5591ZM8.449 7.41411L8 7.70911V16.5591C8 24.1331 11.421 31.1411 17.386 35.7881L17.657 36.0001H22.343L22.614 35.7881C28.579 31.1411 32 24.1331 32 16.5591V7.70911L31.551 7.41411C24.672 2.86211 15.328 2.86211 8.449 7.41411Z" fill="#333333"/>
</svg>
