<svg width="40" height="40" viewBox="0 0 40 40" fill="none" xmlns="http://www.w3.org/2000/svg">
<path d="M11 6.0004C8.304 6.0004 6 8.3044 6 11.0004C6 13.6944 8.304 16.0004 11 16.0004C13.696 16.0004 16 13.6944 16 11.0004C16 8.3044 13.696 6.0004 11 6.0004ZM11 18.0004C7.14 18.0004 4 14.8604 4 11.0004C4 7.1404 7.14 4.0004 11 4.0004C14.86 4.0004 18 7.1404 18 11.0004C18 14.8604 14.86 18.0004 11 18.0004ZM29 24.0004C26.304 24.0004 24 26.3044 24 29.0004C24 31.6944 26.304 34.0004 29 34.0004C31.696 34.0004 34 31.6944 34 29.0004C34 26.3044 31.696 24.0004 29 24.0004ZM29 36.0004C25.14 36.0004 22 32.8604 22 29.0004C22 25.1404 25.14 22.0004 29 22.0004C32.86 22.0004 36 25.1404 36 29.0004C36 32.8604 32.86 36.0004 29 36.0004ZM6.8126 34.8128L5.1886 33.1888L33.1886 5.1868L34.8126 6.8128L6.8126 34.8128Z" fill="#333333"/>
</svg>
