<svg width="40" height="40" viewBox="0 0 40 40" fill="none" xmlns="http://www.w3.org/2000/svg">
<path d="M22.028 5.9932V4.0012H32.028V5.9932H22.028ZM22.028 11.9912V10.0012H36.028V11.9912H22.028ZM22.028 17.9912V16.0012H28.03V17.9912H22.028ZM22.028 23.9932V22.0012H34.028V23.9932H22.028ZM22.028 35.9912V34.0012H36.028V35.9912H22.028ZM22.028 29.9912V28.0012H30.03V29.9912H22.028ZM11 6.0432C8.244 6.0432 6 8.2772 6 11.0212C6 13.7672 8.244 16.0012 11 16.0012C13.756 16.0012 16 13.7672 16 11.0212C16 8.2772 13.756 6.0432 11 6.0432ZM11 17.9912C7.14 17.9912 4 14.8652 4 11.0212C4 7.1792 7.14 4.0512 11 4.0512C14.86 4.0512 18 7.1792 18 11.0212C18 14.8652 14.86 17.9912 11 17.9912ZM11 23.9828C8.244 23.9828 6 26.2168 6 28.9608C6 31.7048 8.244 33.9388 11 33.9388C13.756 33.9388 16 31.7048 16 28.9608C16 26.2168 13.756 23.9828 11 23.9828ZM11 35.9308C7.14 35.9308 4 32.8028 4 28.9608C4 25.1188 7.14 21.9908 11 21.9908C14.86 21.9908 18 25.1188 18 28.9608C18 32.8028 14.86 35.9308 11 35.9308Z" fill="#333333"/>
</svg>
