<svg width="40" height="40" viewBox="0 0 40 40" fill="none" xmlns="http://www.w3.org/2000/svg">
<path d="M15.959 6.0004C14.855 6.0004 14.001 6.8984 14.001 8.0004V32.0004C14.001 33.1024 14.855 34.0004 15.959 34.0004H23.959C25.063 34.0004 26.001 33.1024 26.001 32.0004V8.0004C26.001 6.8984 25.063 6.0004 23.959 6.0004H15.959ZM23.959 36.0004H15.959C13.753 36.0004 12.001 34.2064 12.001 32.0004V8.0004C12.001 5.7944 13.753 4.0004 15.959 4.0004H23.959C26.165 4.0004 28.001 5.7944 28.001 8.0004V32.0004C28.001 34.2064 26.165 36.0004 23.959 36.0004ZM16 18V16H24V18H16ZM16 14V12H24V14H16ZM16 22V20H24V22H16ZM22 28.0004C22 29.1044 21.106 30.0004 20 30.0004C18.894 30.0004 18 29.1044 18 28.0004C18 26.8964 18.894 26.0004 20 26.0004C21.106 26.0004 22 26.8964 22 28.0004Z" fill="#333333"/>
</svg>
