<svg width="40" height="40" viewBox="0 0 40 40" fill="none" xmlns="http://www.w3.org/2000/svg">
<path d="M20 16.0004C17.794 16.0004 16 17.7944 16 20.0004C16 22.2064 17.794 24.0004 20 24.0004C22.206 24.0004 24 22.2064 24 20.0004C24 17.7944 22.206 16.0004 20 16.0004ZM20 26.0004C16.692 26.0004 14 23.3084 14 20.0004C14 16.6924 16.692 14.0004 20 14.0004C23.308 14.0004 26 16.6924 26 20.0004C26 23.3084 23.308 26.0004 20 26.0004ZM18.4628 34.0004H21.5368L22.1328 32.8644C23.1648 30.8884 25.4568 29.9384 27.5888 30.6044L28.8128 30.9884L30.9868 28.8124L30.6048 27.5884C29.9408 25.4604 30.8908 23.1664 32.8648 22.1324L34.0008 21.5384V18.4624L32.8648 17.8684C30.8908 16.8344 29.9408 14.5404 30.6048 12.4124L30.9868 11.1884L28.8128 9.0124L27.5888 9.3964C25.4548 10.0624 23.1648 9.1084 22.1328 7.1364L21.5368 6.0004H18.4628L17.8668 7.1364C16.8348 9.1104 14.5428 10.0644 12.4128 9.3964L11.1868 9.0124L9.0128 11.1884L9.3948 12.4124C10.0588 14.5404 9.1088 16.8344 7.1348 17.8684L6.0008 18.4624V21.5384L7.1348 22.1324C9.1088 23.1664 10.0588 25.4604 9.3968 27.5884L9.0128 28.8124L11.1868 30.9884L12.4108 30.6044C14.5368 29.9384 16.8348 30.8884 17.8668 32.8644L18.4628 34.0004ZM22.7488 36.0004H17.2528L16.0948 33.7924C15.5108 32.6744 14.2108 32.1404 13.0088 32.5124L10.6288 33.2564L6.7428 29.3704L7.4868 26.9924C7.8628 25.7884 7.3248 24.4904 6.2088 23.9044L4.0008 22.7484V17.2524L6.2088 16.0964C7.3248 15.5104 7.8628 14.2124 7.4868 13.0084L6.7428 10.6284L10.6288 6.7444L13.0088 7.4884C14.2128 7.8624 15.5108 7.3264 16.0948 6.2084L17.2528 4.0004H22.7488L23.9048 6.2084C24.4908 7.3264 25.7928 7.8624 26.9928 7.4884L29.3708 6.7444L33.2568 10.6284L32.5128 13.0084C32.1368 14.2124 32.6748 15.5104 33.7928 16.0964L36.0008 17.2524V22.7484L33.7928 23.9044C32.6748 24.4904 32.1368 25.7884 32.5128 26.9924L33.2568 29.3704L29.3708 33.2564L26.9908 32.5124C25.7868 32.1404 24.4908 32.6744 23.9048 33.7924L22.7488 36.0004Z" fill="#333333"/>
</svg>
