<svg width="40" height="40" viewBox="0 0 40 40" fill="none" xmlns="http://www.w3.org/2000/svg">
<path d="M20 25.0004C17.244 25.0004 15 22.7584 15 20.0004C15 17.2424 17.244 15.0004 20 15.0004C22.756 15.0004 25 17.2424 25 20.0004C25 22.7584 22.756 25.0004 20 25.0004ZM33.792 16.0964V16.0944C32.674 15.5104 32.138 14.2124 32.512 13.0104L33.256 10.6284L29.372 6.7444L26.992 7.4864C25.792 7.8604 24.49 7.3264 23.904 6.2084L22.748 4.0004H17.252L16.096 6.2084C15.51 7.3264 14.212 7.8644 13.008 7.4864L10.628 6.7444L6.744 10.6284L7.488 13.0104C7.862 14.2124 7.326 15.5104 6.208 16.0964L4 17.2524V22.7484L6.208 23.9024C7.324 24.4884 7.862 25.7884 7.488 26.9904L6.744 29.3724L10.628 33.2564L13.008 32.5144C14.208 32.1404 15.51 32.6764 16.096 33.7924L17.252 36.0004H22.748L23.904 33.7924C24.49 32.6764 25.79 32.1404 26.992 32.5144L29.372 33.2564L33.256 29.3724L32.512 26.9904C32.138 25.7884 32.676 24.4884 33.792 23.9044L36 22.7484V17.2524L33.792 16.0964Z" fill="#333333"/>
</svg>
