<svg width="40" height="40" viewBox="0 0 40 40" fill="none" xmlns="http://www.w3.org/2000/svg">
<path d="M32.9306 16.5238L33.8606 11.8838H10.8266L13.3526 22.4718L28.9366 20.3458C30.9606 20.0678 32.5646 18.5338 32.9306 16.5238ZM35.2246 9.9998L35.9766 10.9058L34.7786 16.8778C34.2706 19.6738 32.0226 21.8238 29.1906 22.2098L13.7926 24.3098L13.8266 24.4558C14.0306 25.3458 14.8186 26.0098 15.6646 26.0098H31.9766V27.8938H15.6646C13.9346 27.8938 12.3906 26.6278 11.9946 24.8838L8.2906 9.3598C8.0906 8.4858 7.3366 7.8838 6.4526 7.8838H4.0006V5.9998H6.4526C8.2206 5.9998 9.7306 7.2058 10.1226 8.9318L10.3786 9.9998H35.2246ZM29.9834 29.9886C31.0914 29.9886 31.9894 30.8866 31.9894 31.9946C31.9894 33.1026 31.0914 34.0006 29.9834 34.0006C28.8754 34.0006 27.9774 33.1026 27.9774 31.9946C27.9774 30.8866 28.8754 29.9886 29.9834 29.9886ZM15.9716 29.9886C17.0796 29.9886 17.9776 30.8866 17.9776 31.9946C17.9776 33.1026 17.0796 34.0006 15.9716 34.0006C14.8636 34.0006 13.9656 33.1026 13.9656 31.9946C13.9656 30.8866 14.8636 29.9886 15.9716 29.9886Z" fill="#333333"/>
</svg>
