<svg width="40" height="40" viewBox="0 0 40 40" fill="none" xmlns="http://www.w3.org/2000/svg">
<path fill-rule="evenodd" clip-rule="evenodd" d="M4.5 12.4L6.9 15.7C5.9 16.4 4.8 17.5 4 18.5L5.5 19.8C9.1 15.6 14.6 13 20 13C25.4 13 30.9 15.5 34.5 19.7L36 18.4C35.36 17.68 34.464 16.896 33.6704 16.2016C33.472 16.028 33.28 15.86 33.1 15.7L35.5 12.4L33.9 11.2L31.5 14.5C30.2 13.6 28.8 12.9 27.4 12.4L28.7 8.5L26.8 7.9L25.5 11.8C24.1 11.4 22.5 11.2 21 11.1V7H19V11.1C17.5 11.2 16 11.4 14.5 11.8L13.2 7.9L11.3 8.5L12.6 12.4C11.1 13 9.8 13.7 8.5 14.5L6.1 11.2L4.5 12.4ZM25 21C25 18.2 22.8 16 20 16C17.2 16 15 18.2 15 21C15 23.8 17.2 26 20 26C22.8 26 25 23.8 25 21ZM17 21C17 19.3 18.3 18 20 18C21.7 18 23 19.3 23 21C23 22.7 21.7 24 20 24C18.3 24 17 22.7 17 21Z" fill="#333333"/>
</svg>
