<svg width="40" height="40" viewBox="0 0 40 40" fill="none" xmlns="http://www.w3.org/2000/svg">
<path d="M10 15.3832V32.0092C10 33.1052 10.894 34.0012 11.992 34.0012H28.008C29.106 34.0012 30 33.1052 30 32.0092V7.99319C30 6.89519 29.106 6.00119 28.008 6.00119H18.446L10 15.3832ZM28.008 36.0012H11.992C9.792 36.0012 8 34.2092 8 32.0092V14.6172L17.554 4.00119H28.008C30.208 4.00119 32 5.79119 32 7.99319V32.0092C32 34.2092 30.208 36.0012 28.008 36.0012ZM16 28H24V20H16V28ZM14 30V18H26V30H14Z" fill="#333333"/>
</svg>
