<svg width="40" height="40" viewBox="0 0 40 40" fill="none" xmlns="http://www.w3.org/2000/svg">
<path d="M35.6302 14.8765L21.3357 4.00001C20.0596 4.00002 20.1078 3.99998 19.0485 4.00001L4.75394 14.8765C4.28184 15.2357 4 15.806 4 16.402V34.0882C4 35.1424 4.85122 36 5.89751 36C5.89751 36 32.5892 36 34.4867 36C36.3842 36 36.3842 36 36.3842 34.0882C36.3842 32.1764 36.3842 16.402 36.3842 16.402C36.3842 15.806 36.1023 15.2357 35.6302 14.8765ZM34.4867 34.0882H5.89751V16.402L20.1921 5.52563L34.4867 16.402V34.0882Z" fill="#333333"/>
<path d="M36.3842 34.0882C36.3842 36 36.3842 36 34.4867 36H36.3842V34.0882Z" fill="#333333"/>
<path d="M5.89751 36C4.85122 36 4 35.1424 4 34.0882V36H5.89751Z" fill="#333333"/>
<path d="M27.8187 20.6387C25.7705 18.586 23.062 17.4555 20.1921 17.4555C17.3222 17.4555 14.6137 18.586 12.5655 20.6387C13.253 21.35 13.2525 21.35 13.9036 21.9941C15.5939 20.3001 17.8271 19.3673 20.1921 19.3673C22.5571 19.3673 24.7903 20.3002 26.4806 21.9941C27.1316 21.35 27.1316 21.35 27.8187 20.6387Z" fill="#333333"/>
<path d="M20.1921 21.5223C22.0731 21.5223 23.8317 22.2812 25.1439 23.6593L23.7747 24.9828C22.8236 23.9841 21.5514 23.4341 20.1921 23.4341C18.8329 23.4341 17.5606 23.9841 16.6096 24.9828L15.2403 23.6593C16.5526 22.2812 18.3112 21.5223 20.1921 21.5223Z" fill="#333333"/>
<path fill-rule="evenodd" clip-rule="evenodd" d="M22.5157 26.7531C21.9551 26.0133 21.108 25.589 20.1916 25.589C19.2752 25.589 18.4281 26.0133 17.8673 26.7531L19.3754 27.9133C19.5741 27.6512 19.8716 27.5008 20.1915 27.5008C20.5115 27.5008 20.809 27.6512 21.0077 27.9133L22.5157 26.7531Z" fill="#333333"/>
</svg>
