<svg width="80" height="40" viewBox="0 0 80 40" fill="none" xmlns="http://www.w3.org/2000/svg">
<path fill-rule="evenodd" clip-rule="evenodd" d="M7 14C3.7 14 1 16.7 1 20C1 23.3 3.7 26 7 26C8.8 26 10.4 25.2 11.5 24L17.5 27.7C17.2 28.4 17 29.2 17 30C17 33.3 19.7 36 23 36C26.3 36 29 33.3 29 30C29 26.7 26.3 24 23 24C21.2 24 19.6 24.8 18.5 26L12.5 22.3C12.8 21.6 13 20.8 13 20C13 19.2 12.8 18.4 12.5 17.7L18.5 14C19.6 15.2 21.2 16 23 16C26.3 16 29 13.3 29 10C29 6.7 26.3 4 23 4C19.7 4 17 6.7 17 10C17 10.8 17.2 11.6 17.5 12.3L11.5 16C10.4 14.8 8.8 14 7 14ZM38 16H36V19H33V21H36V24H38V21H41V19H38V16ZM27 30C27 27.8 25.2 26 23 26C20.8 26 19 27.8 19 30C19 32.2 20.8 34 23 34C25.2 34 27 32.2 27 30ZM23 6C25.2 6 27 7.8 27 10C27 12.2 25.2 14 23 14C20.8 14 19 12.2 19 10C19 7.8 20.8 6 23 6ZM3 20C3 22.2 4.8 24 7 24C9.2 24 11 22.2 11 20C11 17.8 9.2 16 7 16C4.8 16 3 17.8 3 20ZM65 24H57V22H65V24ZM57 16H69V18H57V16ZM79 20C79 28.8 71.8 36 63 36C60.3 36 57.7 35.3 55.4 34L48.4 36L45 32.2L48.2 26C47.4 24.1 47 22 47 20C47 11.2 54.2 4 63 4C71.8 4 79 11.2 79 20ZM63 6C70.7 6 77 12.3 77 20C77 27.7 70.7 34 63 33.9C60.6 33.9 58.1 33.2 56 32L55.6 31.8L49.1 33.7L47.4 31.9L50.4 26.1L50.2 25.7C49.4 23.9 49 22 49 20C49 12.3 55.3 6 63 6Z" fill="#333333"/>
</svg>
