<svg width="41" height="40" viewBox="0 0 41 40" fill="none" xmlns="http://www.w3.org/2000/svg">
<path fill-rule="evenodd" clip-rule="evenodd" d="M6.27944 10.5607L5.26968 10.8313L9.92842 28.218L31.1788 22.524C33.3127 21.9522 34.579 19.7588 34.0072 17.625L31.419 7.96572C30.8473 5.83185 28.6539 4.56552 26.52 5.13729L8.21179 10.043L8.20601 10.0192L6.26285 10.4926L6.27944 10.5607ZM7.71917 12.2455L11.3426 25.7685L30.6612 20.5921C31.7281 20.3062 32.3612 19.2095 32.0754 18.1426L29.4872 8.48335C29.2013 7.41642 28.1046 6.78326 27.0377 7.06914L7.71917 12.2455Z" fill="#333333"/>
<path d="M4.49331 7.93351C4.35036 7.40005 4.66695 6.85171 5.20041 6.70877C5.73388 6.56583 6.28222 6.88241 6.42516 7.41587L14.1897 36.3936C14.3327 36.9271 14.0161 37.4755 13.4826 37.6184C12.9492 37.7613 12.4008 37.4448 12.2579 36.9113L4.49331 7.93351Z" fill="#333333"/>
<path d="M16.4248 14.0307L18.0328 20.0321L23.8353 15.3397L23.796 15.1933L16.4248 14.0307ZM14.6394 13.2227L15.3226 12.318L24.9813 13.7618L25.5539 15.8989L17.9108 21.9772L16.8668 21.5353L14.6394 13.2227Z" fill="#333333"/>
</svg>
