<svg width="40" height="40" viewBox="0 0 40 40" fill="none" xmlns="http://www.w3.org/2000/svg">
<path fill-rule="evenodd" clip-rule="evenodd" d="M36 17C36 9.8 30.2 4 23 4H22V18H36V17ZM24 16V6C29.3 6.5 33.5 10.7 34 16H24ZM9.8 11.8C12.3 9.4 15.5 8 19 8H20V20.1H32V21.1C32 24.2 30.9 27.1 28.9 29.5L28.2 30.2C25.7 32.6 22.5 34 19 34C11.8 34 6 28.2 6 21C6 17.5 7.4 14.3 9.8 11.8ZM19 32C12.9 32 8 27.1 8 21C8 18.1 9.1 15.3 11.2 13.2C13 11.4 15.4 10.3 18 10V21.3L26 29.4C24.1 31.1 21.6 32 19 32ZM21.4 22L27.4 28C28.9 26.3 29.8 24.2 30 22H21.4Z" fill="#333333"/>
</svg>
