<svg width="40" height="40" viewBox="0 0 40 40" fill="none" xmlns="http://www.w3.org/2000/svg">
<path d="M4.00098 19.9999C4.00098 28.8223 11.1785 35.9998 20.0009 35.9998C28.8231 35.9998 36.0006 28.8223 36.0006 19.9999C36.0006 11.1775 28.8231 4 20.0009 4C11.1785 4 4.00098 11.1775 4.00098 19.9999ZM20.0009 8.39258C26.4012 8.39258 31.6084 13.5997 31.6084 20.0001C31.6084 22.4082 30.8708 24.6471 29.6104 26.5035L13.4973 10.3906C15.3538 9.13016 17.5928 8.39258 20.0009 8.39258ZM26.5043 29.6094C24.6478 30.8698 22.409 31.6074 20.0009 31.6074C13.6005 31.6074 8.39355 26.4003 8.39355 19.9999C8.39355 17.5918 9.13113 15.353 10.3914 13.4965L26.5043 29.6094Z" fill="#333333"/>
</svg>
