<svg width="40" height="40" viewBox="0 0 40 40" fill="none" xmlns="http://www.w3.org/2000/svg">
<path d="M6.56637 12C6.23237 12 5.95837 12.272 5.95837 12.608V29.316C5.95837 29.65 6.23237 30 6.56637 30H26.9224C27.2564 30 27.5284 29.65 27.5284 29.316V24.782L29.0324 23.796L34.0004 25.938V15.984L29.0324 18.126L27.5284 17.142V12.608C27.5284 12.272 27.2564 12 26.9224 12H6.56637ZM26.9224 31.922H6.56637C5.12837 31.922 4.00037 30.754 4.00037 29.316V12.608C4.00037 11.17 5.12837 10 6.56637 10H26.9224C28.3584 10 29.5284 11.17 29.5284 12.608V15.73L34.4544 13.586L35.9584 14.57V27.354L34.4544 28.336L29.5284 26.194V29.316C29.5284 30.754 28.3584 31.922 26.9224 31.922ZM13.9882 18.3838V23.5398L20.0002 20.9618L13.9882 18.3838ZM13.0802 25.9998L12.0002 25.2618V16.6598L13.0942 15.9998L22.0002 19.6838V22.2398L13.0802 25.9998Z" fill="#333333"/>
</svg>
