<svg width="40" height="40" viewBox="0 0 40 40" fill="none" xmlns="http://www.w3.org/2000/svg">
<path fill-rule="evenodd" clip-rule="evenodd" d="M20 4C11.2 4 4 11.2 4 20C4 22.1 4.4 24.1 5.2 26L2 32.2L5.4 36L12.4 34C14.7 35.3 17.4 36 20 36C28.8 36 36 28.8 36 20C36 11.2 28.8 4 20 4ZM20 34C17.5 34 15.1 33.3 13 32.1L12.6 31.9L6.1 33.8L4.4 32L7.4 26.2L7.2 25.8C6.4 23.9 6 22 6 20C6 12.3 12.3 6 20 6C27.7 6 34 12.3 34 20C34 27.7 27.7 34 20 34ZM14 22C15.1 22 16 21.1 16 20C16 18.9 15.1 18 14 18C12.9 18 12 18.9 12 20C12 21.1 12.9 22 14 22ZM22 20C22 21.1 21.1 22 20 22C18.9 22 18 21.1 18 20C18 18.9 18.9 18 20 18C21.1 18 22 18.9 22 20ZM26 22C27.1 22 28 21.1 28 20C28 18.9 27.1 18 26 18C24.9 18 24 18.9 24 20C24 21.1 24.9 22 26 22Z" fill="#333333"/>
</svg>
