<svg width="40" height="40" viewBox="0 0 40 40" fill="none" xmlns="http://www.w3.org/2000/svg">
<path fill-rule="evenodd" clip-rule="evenodd" d="M31.95 14H34C36.2091 14 38 15.7909 38 18V22C38 24.2091 36.2091 26 34 26H32V27C32 30.3137 29.3137 33 26 33H25.86C25.4052 34.7614 23.8192 35.9941 22 36H18C15.7909 36 14 34.2091 14 32C14 29.7909 15.7909 28 18 28H22C23.8192 28.0059 25.4052 29.2386 25.86 31H26C28.2091 31 30 29.2091 30 27V16H23.88C19.1979 15.9981 14.6104 14.6815 10.64 12.2L10.49 12.11C10.1698 13.0401 10.0043 14.0164 10 15V26H6C3.79086 26 2 24.2091 2 22V18C2 15.7909 3.79086 14 6 14H8C8.5186 8.31846 13.2949 3.97638 19 4H21C26.6859 4.00231 31.4331 8.3376 31.95 14ZM15 22C16.1046 22 17 21.1046 17 20C17 18.8954 16.1046 18 15 18C13.8954 18 13 18.8954 13 20C13 21.1046 13.8954 22 15 22ZM25 22C26.1046 22 27 21.1046 27 20C27 18.8954 26.1046 18 25 18C23.8954 18 23 18.8954 23 20C23 21.1046 23.8954 22 25 22ZM8 24H6C4.89543 24 4 23.1046 4 22V18C4 16.8954 4.89543 16 6 16H8V24ZM18 34H22C23.1046 34 24 33.1046 24 32C24 30.8954 23.1046 30 22 30H18C16.8954 30 16 30.8954 16 32C16 33.1046 16.8954 34 18 34ZM11.69 10.5L11.34 10.28C12.9778 7.62097 15.877 6.00105 19 6H21C25.582 6.00218 29.4309 9.44641 29.94 14H23.88C19.569 13.9988 15.345 12.786 11.69 10.5ZM34 24C35.1046 24 36 23.1046 36 22V18C36 16.8954 35.1046 16 34 16H32V24H34Z" fill="#333333"/>
</svg>
