<svg width="40" height="40" viewBox="0 0 40 40" fill="none" xmlns="http://www.w3.org/2000/svg">
<path fill-rule="evenodd" clip-rule="evenodd" d="M4 20C4 11.2 11.2 4 20 4C28.8 4 36 11.2 36 20C36 28.8 28.8 36 20 36C17.4 36 14.7 35.3 12.4 34L5.4 36L2 32.2L5.2 26C4.4 24.1 4 22.1 4 20ZM9.5 20C9.5 21.4 10.6 22.5 12 22.5C13.4 22.5 14.5 21.4 14.5 20C14.5 18.6 13.4 17.5 12 17.5C10.6 17.5 9.5 18.6 9.5 20ZM20 22.5C18.6 22.5 17.5 21.4 17.5 20C17.5 18.6 18.6 17.5 20 17.5C21.4 17.5 22.5 18.6 22.5 20C22.5 21.4 21.4 22.5 20 22.5ZM25.5 20C25.5 21.4 26.6 22.5 28 22.5C29.4 22.5 30.5 21.4 30.5 20C30.5 18.6 29.4 17.5 28 17.5C26.6 17.5 25.5 18.6 25.5 20Z" fill="#333333"/>
</svg>
