<svg width="20" height="20" viewBox="0 0 20 20" fill="none" xmlns="http://www.w3.org/2000/svg">
<path fill-rule="evenodd" clip-rule="evenodd" d="M10 2C14.4131 2 18 5.5869 18 10C18 14.4131 14.4131 18 10 18C5.5869 18 2 14.4131 2 10C2 5.5869 5.5869 2 10 2ZM10.0278 15C9.75 15 9.5 14.8919 9.30556 14.7027C9.11111 14.5135 9 14.2703 9 14C9 13.7297 9.11111 13.4865 9.30556 13.2973C9.52778 13.1081 9.75 13 10 13C10.25 13 10.5 13.1081 10.6944 13.2973C10.9167 13.4865 11 13.7297 11 14C11 14.2703 10.8889 14.5135 10.6944 14.7027C10.5556 14.9189 10.3056 15 10.0278 15ZM11 5H9V11H11V5Z" fill="#333333"/>
</svg>
