<svg width="20" height="20" viewBox="0 0 20 20" fill="none" xmlns="http://www.w3.org/2000/svg">
<path fill-rule="evenodd" clip-rule="evenodd" d="M18 10C18 14.4183 14.4183 18 10 18C5.58172 18 2 14.4183 2 10C2 5.58172 5.58172 2 10 2C14.4183 2 18 5.58172 18 10ZM10 16.7368C13.7207 16.7368 16.7368 13.7207 16.7368 10C16.7368 6.27934 13.7207 3.26316 10 3.26316C6.27934 3.26316 3.26316 6.27934 3.26316 10C3.26316 13.7207 6.27934 16.7368 10 16.7368Z" fill="#EB5A40"/>
<path fill-rule="evenodd" clip-rule="evenodd" d="M10 16.7368C13.7207 16.7368 16.7368 13.7207 16.7368 10C16.7368 6.27934 13.7207 3.26316 10 3.26316C6.27934 3.26316 3.26316 6.27934 3.26316 10C3.26316 13.7207 6.27934 16.7368 10 16.7368ZM7.3 6.4L10 9.1L12.7 6.4L13.6 7.3L10.9 10L13.6 12.7L12.7 13.6L10 10.9L7.3 13.6L6.4 12.7L9.1 10L6.4 7.3L7.3 6.4Z" fill="#EB5A40"/>
</svg>
