<svg width="20" height="20" viewBox="0 0 20 20" fill="none" xmlns="http://www.w3.org/2000/svg">
<path fill-rule="evenodd" clip-rule="evenodd" d="M10 18C14.4183 18 18 14.4183 18 10C18 5.58172 14.4183 2 10 2C5.58172 2 2 5.58172 2 10C2 14.4183 5.58172 18 10 18ZM10 16.7368C13.7207 16.7368 16.7368 13.7207 16.7368 10C16.7368 6.27934 13.7207 3.26316 10 3.26316C6.27934 3.26316 3.26316 6.27934 3.26316 10C3.26316 13.7207 6.27934 16.7368 10 16.7368Z" fill="#00B956"/>
<path fill-rule="evenodd" clip-rule="evenodd" d="M16.7368 10C16.7368 13.7207 13.7207 16.7368 10 16.7368C6.27934 16.7368 3.26316 13.7207 3.26316 10C3.26316 6.27934 6.27934 3.26316 10 3.26316C13.7207 3.26316 16.7368 6.27934 16.7368 10ZM7.14963 9.58088L8.94899 11.4186L12.6679 6L14 6.95263L9.17667 14L6 10.7551L7.14963 9.58088Z" fill="#00B956"/>
</svg>
