<svg width="20" height="20" viewBox="0 0 20 20" fill="none" xmlns="http://www.w3.org/2000/svg">
<path fill-rule="evenodd" clip-rule="evenodd" d="M10 8.5L6.25 4.75C5.83579 4.33579 5.16421 4.33579 4.75 4.75C4.33579 5.16421 4.33579 5.83579 4.75 6.25L8.5 10L4.75 13.75C4.33579 14.1642 4.33579 14.8358 4.75 15.25C5.16421 15.6642 5.83579 15.6642 6.25 15.25L10 11.5L13.75 15.25C14.1642 15.6642 14.8358 15.6642 15.25 15.25C15.6642 14.8358 15.6642 14.1642 15.25 13.75L11.5 10L15.25 6.25C15.6642 5.83579 15.6642 5.16421 15.25 4.75C14.8358 4.33579 14.1642 4.33579 13.75 4.75L10 8.5Z" fill="#333333"/>
</svg>
