<svg width="40" height="40" viewBox="0 0 40 40" fill="none" xmlns="http://www.w3.org/2000/svg">
<path d="M5.996 8.0004C4.894 8.0004 4 8.8944 4 9.9964V30.0044C4 31.1064 4.894 32.0004 5.996 32.0004H34.004C35.106 32.0004 36 31.1064 36 30.0044V9.9964C36 8.8944 35.106 8.0004 34.004 8.0004H5.996ZM34.004 34.0004H5.996C3.792 34.0004 2 32.2084 2 30.0044V9.9964C2 7.7924 3.792 6.0004 5.996 6.0004H34.004C36.206 6.0004 38 7.7924 38 9.9964V30.0044C38 32.2084 36.206 34.0004 34.004 34.0004ZM32 24V16H34V24H32ZM10 20.0004C10 21.1044 9.106 22.0004 8 22.0004C6.894 22.0004 6 21.1044 6 20.0004C6 18.8944 6.894 18.0004 8 18.0004C9.106 18.0004 10 18.8944 10 20.0004Z" fill="#333333"/>
</svg>
