<svg width="40" height="40" viewBox="0 0 40 40" fill="none" xmlns="http://www.w3.org/2000/svg">
<path d="M17.5 18.75V16.25H11.25V13.75H17.5V10C17.5 7.23858 19.7386 5 22.5 5C25.2614 5 27.5 7.23858 27.5 10V21.9096C29.0723 23.3156 30 25.3317 30 27.5C30 31.6421 26.6421 35 22.5 35C18.3579 35 15 31.6421 15 27.5C15 25.3317 15.9277 23.3156 17.5 21.9096V21.25H11.25V18.75H17.5ZM21.25 25.3345V13.75H23.75V25.3345C24.4973 25.7667 25 26.5746 25 27.5C25 28.8807 23.8807 30 22.5 30C21.1193 30 20 28.8807 20 27.5C20 26.5746 20.5027 25.7667 21.25 25.3345ZM20 23.124L19.5007 23.499C18.2495 24.4388 17.5 25.906 17.5 27.5C17.5 30.2614 19.7386 32.5 22.5 32.5C25.2614 32.5 27.5 30.2614 27.5 27.5C27.5 25.906 26.7505 24.4388 25.4993 23.499L25 23.124V10C25 8.61929 23.8807 7.5 22.5 7.5C21.1193 7.5 20 8.61929 20 10V23.124Z" fill="#333333"/>
</svg>
