<svg width="40" height="40" viewBox="0 0 40 40" fill="none" xmlns="http://www.w3.org/2000/svg">
<path d="M11.5446 18.317C7.38453 18.317 4 21.7015 4 25.8616C4 30.0217 7.38453 33.4062 11.5446 33.4062C15.7048 33.4062 19.0893 30.0217 19.0893 25.8616C19.0893 21.7015 15.7048 18.317 11.5446 18.317ZM11.5446 31.5201C8.42462 31.5201 5.88616 28.9816 5.88616 25.8616C5.88616 22.7416 8.42462 20.2031 11.5446 20.2031C14.6647 20.2031 17.2031 22.7416 17.2031 25.8616C17.2031 28.9816 14.6647 31.5201 11.5446 31.5201Z" fill="#333333"/>
<path d="M34.3044 23.5341V20.2031C34.3044 18.1229 32.6122 16.4308 30.532 16.4308H28.6459V11.7154C28.6459 11.1955 29.2801 10.7723 29.8 10.7723V8.88616C28.24 8.88616 26.7597 10.1554 26.7597 11.7154V16.4308H22.6202L20.3568 8.88616H21.9186V7H6.82929V8.88616H8.71545V14.9054C7.42403 15.2394 6.1955 15.7991 5.09417 16.5625C4.66613 16.8593 4.61146 17.4573 4.94308 17.8589C5.27474 18.2605 5.86694 18.3128 6.29995 18.0233C7.84363 16.9911 9.67385 16.4308 11.5447 16.4308C16.7449 16.4308 20.9755 20.6614 20.9755 25.8616C20.9755 27.4242 22.2422 28.6908 23.8047 28.6908H24.9526C25.4031 31.3636 27.7333 33.4062 30.532 33.4062C33.6521 33.4062 36.1905 30.8678 36.1905 27.7478C36.1905 26.0758 35.4614 24.571 34.3044 23.5341ZM10.6016 14.5847V8.88616H18.3877L20.6511 16.4308H17.7931C16.0012 15.2397 13.8528 14.5446 11.5447 14.5446C11.2291 14.5446 10.9145 14.5584 10.6016 14.5847ZM19.972 18.317H30.532C31.5721 18.317 32.4182 19.163 32.4182 20.2031V22.413C31.828 22.2037 31.1932 22.0893 30.532 22.0893H22.2143C21.716 20.6842 20.948 19.4059 19.972 18.317ZM22.7035 23.9754H26.3184C25.6197 24.755 25.1339 25.7287 24.9526 26.8047H23.8047C23.2839 26.8047 22.8617 26.3825 22.8617 25.8616C22.8617 25.2191 22.8071 24.5892 22.7035 23.9754ZM30.532 31.5201C28.4519 31.5201 26.7597 29.8279 26.7597 27.7478C26.7597 25.6676 28.4519 23.9754 30.532 23.9754C32.6122 23.9754 34.3044 25.6676 34.3044 27.7478C34.3044 29.8279 32.6122 31.5201 30.532 31.5201Z" fill="#333333"/>
</svg>
