<svg width="59" height="40" fill="none" xmlns="http://www.w3.org/2000/svg"><path fill-rule="evenodd" clip-rule="evenodd" d="M55.414 17.696v5.35A5.678 5.678 0 0159 28.329C59 31.456 56.477 34 53.375 34s-5.625-2.544-5.625-5.67c0-.364.035-.72.1-1.064h-9.453C37.88 31.064 34.64 34 30.734 34 26.47 34 23 30.502 23 26.203a7.812 7.812 0 013.33-6.407H22v3.202a3.001 3.001 0 01-3 3.001H3a3 3 0 01-3-3V18h26.586V9.19c0-1.759 1.42-3.19 3.164-3.19h6.65c1.455 0 2.717.994 3.07 2.416l1.51 6.09h5.223V7.772h2.11v6.734h3.937c1.745 0 3.164 1.431 3.164 3.19zM29.75 8.126a1.06 1.06 0 00-1.055 1.064v5.316h10.11l-1.382-5.574a1.055 1.055 0 00-1.023-.805h-6.65zm-4.64 18.077c0 3.127 2.523 5.67 5.624 5.67 3.102 0 5.625-2.544 5.625-5.67 0-3.127-2.523-5.671-5.625-5.671-3.101 0-5.625 2.544-5.625 5.67zm13.287-1.064h10.33a5.611 5.611 0 014.578-2.479v-4.964a1.06 1.06 0 00-1.055-1.063H28.695v2.048a7.656 7.656 0 012.04-.276c3.906 0 7.145 2.936 7.662 6.734zm11.462 3.19c0 1.954 1.578 3.544 3.516 3.544s3.516-1.59 3.516-3.544-1.578-3.544-3.516-3.544-3.516 1.59-3.516 3.544zm-29.673-6.033v-2.5H1.797v2.5a2 2 0 002 2h14.389a2 2 0 002-2zM7 30.5a1.5 1.5 0 11-3 0 1.5 1.5 0 013 0zm2 0a3.5 3.5 0 11-7 0 3.5 3.5 0 017 0zm7.5 1.5a1.5 1.5 0 100-3 1.5 1.5 0 000 3zm0 2a3.5 3.5 0 100-7 3.5 3.5 0 000 7z" fill="#333"/></svg>