<svg width="40" height="40" viewBox="0 0 40 40" fill="none" xmlns="http://www.w3.org/2000/svg">
<path d="M7 29.1708V15.6583C7 11.9511 9.93 8.9998 13.644 8.9998H14.184C17.9 8.9998 21 11.9511 21 15.6583V27.2771C21 29.8495 23.02 31.9407 25.598 31.9407H26.168C28.744 31.9407 30.936 29.8495 30.936 27.2771V10.8306C29.777 10.4195 29 9.30705 29 8.0004C29 6.3424 30.248 5.0004 31.94 5.0004C33.628 5.0004 35 6.3424 35 8.0004C35 9.29095 34.1667 10.392 33 10.8151V27.2771C33 30.9843 29.882 33.9998 26.168 33.9998H25.598C21.88 33.9998 18.936 30.9843 18.936 27.2771V15.6583C18.936 13.0879 16.762 11.0609 14.184 11.0609H13.644C11.068 11.0609 9.064 13.0879 9.064 15.6583V29.1943C10.1945 29.6247 11 30.7199 11 31.9994C11 33.6554 9.654 34.9994 8 34.9994C6.346 34.9994 5 33.6554 5 31.9994C5 30.6958 5.83604 29.5836 7 29.1708ZM8 31.0414C7.47 31.0414 7.042 31.4714 7.042 31.9994C7.042 32.5294 7.47 32.9574 8 32.9574C8.53 32.9574 8.958 32.5294 8.958 31.9994C8.958 31.4714 8.53 31.0414 8 31.0414Z" fill="#333333"/>
</svg>
