<svg width="40" height="40" viewBox="0 0 40 40" fill="none" xmlns="http://www.w3.org/2000/svg">
<path d="M34.4141 23.0455V17.6962C34.4141 15.9373 32.9947 14.5063 31.25 14.5063H27.3125V7.77215H25.2031V14.5063H19.9797L18.4696 8.41615C18.1167 6.99361 16.8545 6 15.3999 6H8.75C7.00534 6 5.58594 7.43098 5.58594 9.18987V19.6243C3.43163 21.01 2 23.4408 2 26.2025C2 30.5021 5.46964 34 9.73438 34C13.6414 34 16.8805 31.0641 17.3965 27.2658H26.8506C26.7855 27.6105 26.75 27.9656 26.75 28.3291C26.75 31.456 29.2734 34 32.375 34C35.4766 34 38 31.456 38 28.3291C38 25.9271 36.5103 23.8707 34.4141 23.0455ZM7.69531 9.18987C7.69531 8.60357 8.16845 8.12658 8.75 8.12658H15.3999C15.8848 8.12658 16.3056 8.45776 16.4231 8.93192L17.8054 14.5063H7.69531V9.18987ZM9.73438 31.8734C6.63275 31.8734 4.10938 29.3295 4.10938 26.2025C4.10938 23.0756 6.63275 20.5316 9.73438 20.5316C12.836 20.5316 15.3594 23.0756 15.3594 26.2025C15.3594 29.3295 12.836 31.8734 9.73438 31.8734ZM27.7271 25.1392H17.3965C16.8805 21.341 13.6414 18.4051 9.73438 18.4051C9.02879 18.4051 8.34521 18.5013 7.69531 18.6806V16.6329H31.25C31.8316 16.6329 32.3047 17.1099 32.3047 17.6962V22.66C30.4046 22.6837 28.7284 23.661 27.7271 25.1392ZM32.375 31.8734C30.4365 31.8734 28.8594 30.2834 28.8594 28.3291C28.8594 26.3748 30.4365 24.7848 32.375 24.7848C34.3135 24.7848 35.8906 26.3748 35.8906 28.3291C35.8906 30.2834 34.3135 31.8734 32.375 31.8734Z" fill="#333333"/>
</svg>
