<svg width="40" height="40" viewBox="0 0 40 40" fill="none" xmlns="http://www.w3.org/2000/svg">
<path d="M24.08 11.9998V10.0004C24.08 7.7944 22.28 6.0004 20.064 6.0004C17.868 6.0004 16.08 7.7944 16.08 10.0004V11.9998H24.08ZM14.08 13.9998H8.01624L8.00024 34.0598H32.1282L32.1442 13.9998H26.08L14.08 14.0004V13.9998ZM14.08 11.9998V10.0004C14.08 6.6924 16.766 4.0004 20.064 4.0004C23.38 4.0004 26.08 6.6924 26.08 10.0004V11.9998H34.1442L34.1282 36.0578H6.00024L6.01624 11.9998H14.08ZM19.064 20.0706V16.0706H21.064V20.0706H19.064ZM16.1934 21.6156L13.3654 18.7856L14.7794 17.3716L17.6074 20.2016L16.1934 21.6156ZM12.064 25.0706V23.0686H16.064V25.0706H12.064ZM14.7792 30.6156L13.3652 29.2016L16.1932 26.3716L17.6072 27.7856L14.7792 30.6156ZM19.064 32.0706V28.0706H21.064V32.0706H19.064ZM25.1934 30.6156L22.3654 27.7856L23.7794 26.3716L26.6074 29.2016L25.1934 30.6156ZM24.064 25.0706V23.0686H28.064V25.0706H24.064ZM23.7792 21.6156L22.3652 20.2016L25.1932 17.3716L26.6072 18.7856L23.7792 21.6156Z" fill="#333333"/>
</svg>
