<svg width="40" height="40" viewBox="0 0 40 40" fill="none" xmlns="http://www.w3.org/2000/svg">
<path fill-rule="evenodd" clip-rule="evenodd" d="M29 36C32.9 36 36 32.9 36 29C36 25.5 33.4 22.6 30 22.1V4H6V36H29ZM12 12H22V10H12V12ZM12 16H24V18H12V16ZM12 24H18V22H12V24ZM24.1 34C22.8 32.7 22 31 22 29C22 25.5 24.6 22.6 28 22.1V6H8V34H24.1ZM33.5 26.9C33.8 27.5 34 28.2 34 29C34 31.8 31.8 34.1 29 34.1C26.2 34.1 24 31.9 24 29.1C24 26.3 26.2 24.1 29 24.1C30.3 24.1 31.4 24.5 32.3 25.3L29 28.8L27.7 27.4L26.2 28.7L28.3 31H29.6L33.5 26.9Z" fill="#333333"/>
</svg>
