<svg width="40" height="40" viewBox="0 0 40 40" fill="none" xmlns="http://www.w3.org/2000/svg">
<path d="M16 18V26.2L25 22.2V22L16 18ZM14 16.36L15.18 15.44L27 20.58V23.5L15.18 28.638L14 27.718V16.36ZM34 30V13.988C34 12.884 33.096 12 31.996 12H8.004C6.904 12 6 12.884 6 13.988V30C6 31.102 6.904 32 8.004 32H31.996C33.096 32 34 31.102 34 30ZM31.996 10C34.204 10 36 11.782 36 13.988V30C36 32.206 34.204 34 31.996 34H8.004C5.796 34 4 32.206 4 30V13.988C4 11.782 5.796 10 8.004 10H15.254L13.554 6.976L15.31 6L17.558 10H22.402L24.65 6L26.406 6.976L24.708 10H31.996Z" fill="#333333"/>
</svg>
