<svg width="24" height="24" viewBox="0 0 24 24" fill="none" xmlns="http://www.w3.org/2000/svg">
<path d="M22.2 12.6815L22.9056 11.0579L24 11.7407L22.0584 14.3999H21.1416L19.2 11.7407L20.2932 11.0579L21 12.6815V11.9999C21 9.75586 20.1252 7.64626 18.5388 6.05986C16.9536 4.47346 14.844 3.59986 12.6 3.59986C10.356 3.59986 8.24641 4.47346 6.66001 6.05986L5.81161 5.21146C7.62481 3.39826 10.0344 2.39986 12.6 2.39986C15.1644 2.39986 17.5752 3.39826 19.3872 5.21146C21.2016 7.02466 22.2 9.43546 22.2 11.9999V12.6815ZM12.6 20.4C14.844 20.4 16.9536 19.5264 18.5388 17.94L19.3872 18.7884C17.5752 20.6016 15.1644 21.6 12.6 21.6C10.0344 21.6 7.62481 20.6016 5.81161 18.7884C3.99841 16.9752 3.00001 14.5644 3.00001 12V11.3172L2.29321 12.9408L1.20001 12.258L3.14161 9.59998H4.05841L6.00001 12.258L4.90561 12.9408L4.20001 11.3172V12C4.20001 14.244 5.07361 16.3536 6.66001 17.94C8.24641 19.5264 10.356 20.4 12.6 20.4Z" fill="black"/>
</svg>
