<svg width="40" height="40" viewBox="0 0 40 40" fill="none" xmlns="http://www.w3.org/2000/svg">
<path d="M23.75 18.75H16.25H15V22.5H8.75V28.75H15V30.5104C15.778 31.7431 17.138 32.5 18.6093 32.5H21.3907C22.862 32.5 24.222 31.7431 25 30.5104V28.75H31.25V22.5H25V18.75H23.75ZM16.25 16.25V13.75H11.25V6.25H28.75V13.75H23.75V16.25H27.5V20H33.75V31.25H27.4527L27.3507 31.4394C26.1704 33.6324 23.8811 35 21.3907 35H18.6093C16.1189 35 13.8296 33.6324 12.6493 31.4394L12.5473 31.25H6.25V20H12.5V16.25H16.25ZM18.75 16.25H21.25V11.25H26.25V8.75H13.75V11.25H18.75V16.25Z" fill="#333333"/>
</svg>
