<svg width="40" height="40" viewBox="0 0 40 40" fill="none" xmlns="http://www.w3.org/2000/svg">
<path d="M6.56974 12.0071C6.2353 12.0071 5.96094 12.2801 5.96094 12.6173V29.3847C5.96094 29.7199 6.2353 30.0712 6.56974 30.0712H26.9525C27.2869 30.0712 27.5593 29.7199 27.5593 29.3847V24.8346L29.0653 23.8451L34.0398 25.9947V16.0053L29.0653 18.1549L27.5593 17.1674V12.6173C27.5593 12.2801 27.2869 12.0071 26.9525 12.0071H6.56974ZM26.9525 32H6.56974C5.12985 32 4.00037 30.8278 4.00037 29.3847V12.6173C4.00037 11.1742 5.12985 10 6.56974 10H26.9525C28.3904 10 29.5619 11.1742 29.5619 12.6173V15.7504L34.4944 13.5988L36.0004 14.5863V27.4157L34.4944 28.4012L29.5619 26.2516V29.3847C29.5619 30.8278 28.3904 32 26.9525 32ZM16.9387 18.0724C15.2826 18.0724 13.9348 19.4232 13.9348 21.0831C13.9348 22.743 15.2826 24.0938 16.9387 24.0938C18.5949 24.0938 19.9427 22.743 19.9427 21.0831C19.9427 19.4232 18.5949 18.0724 16.9387 18.0724ZM16.9387 26.1009C14.1771 26.1009 11.9322 23.8489 11.9322 21.0831C11.9322 18.3173 14.1771 16.0653 16.9387 16.0653C19.7004 16.0653 21.9453 18.3173 21.9453 21.0831C21.9453 23.8489 19.7004 26.1009 16.9387 26.1009Z" fill="#333333"/>
</svg>
