<svg width="40" height="40" viewBox="0 0 40 40" fill="none" xmlns="http://www.w3.org/2000/svg">
<path d="M8.002 10C6.904 10 6.014 10.896 6.014 11.998V28.002C6.014 29.104 6.904 29.998 8.002 29.998H31.998C33.096 29.998 33.986 29.104 33.986 28.002V11.998C33.986 10.896 33.096 10 31.998 10H8.002ZM31.998 32H8.002C5.796 32 4 30.208 4 28.002V11.998C4 9.792 5.796 8 8.002 8H31.998C34.204 8 36 9.792 36 11.998V28.002C36 30.208 34.204 32 31.998 32ZM15.1796 13.4394L26.9996 18.5794V21.4994L15.1796 26.6414L13.9996 25.7194V14.3594L15.1796 13.4394ZM24.9996 20.1994V19.9994L15.9996 15.9994V24.1994L24.9996 20.1994Z" fill="#333333"/>
</svg>
