<svg width="40" height="40" viewBox="0 0 40 40" fill="none" xmlns="http://www.w3.org/2000/svg">
<path d="M14 12.0051V4.00037H26V12.0051C28.4274 13.8313 30 16.7357 30 20.0004C30 23.2651 28.4274 26.1694 26 27.9956V36.0004H14V27.9956C11.5726 26.1694 10 23.2651 10 20.0004C10 16.7357 11.5726 13.8313 14 12.0051ZM16 10.8354C17.2255 10.2985 18.5786 10.0004 20 10.0004C21.4214 10.0004 22.7745 10.2985 24 10.8354V6.00037H16V10.8354ZM16 29.1653V34.0004H24V29.1653C22.7745 29.7023 21.4214 30.0004 20 30.0004C18.5786 30.0004 17.2255 29.7023 16 29.1653ZM20 12.0004C15.588 12.0004 12 15.5884 12 20.0004C12 24.4124 15.588 28.0004 20 28.0004C24.412 28.0004 28 24.4124 28 20.0004C28 15.5884 24.412 12.0004 20 12.0004ZM17.3926 23.972L15.9786 22.558L18.9586 19.578V14.062H20.9586V20.406L17.3926 23.972Z" fill="#333333"/>
</svg>
