<svg width="40" height="40" viewBox="0 0 40 40" fill="none" xmlns="http://www.w3.org/2000/svg">
<path d="M20.625 35C17.5221 35 15 32.289 15 29.1004C15 27.0731 16.5488 24.1351 19.6266 20.0491H21.6234C24.7012 24.1351 26.25 27.0731 26.25 29.1004C26.25 32.289 23.7279 35 20.625 35ZM17.5 29.1004C17.5 30.9471 18.9447 32.5 20.625 32.5C22.3053 32.5 23.75 30.9471 23.75 29.1004C23.75 27.9735 22.7127 25.8602 20.625 22.9172C18.5373 25.8602 17.5 27.9735 17.5 29.1004ZM26.875 20C23.7721 20 21.25 17.2891 21.25 14.1004C21.25 12.0731 22.7988 9.13507 25.8766 5.04913H27.8734C30.9512 9.13507 32.5 12.0731 32.5 14.1004C32.5 17.2891 29.9779 20 26.875 20ZM23.75 14.1004C23.75 15.9471 25.1947 17.5 26.875 17.5C28.5553 17.5 30 15.9471 30 14.1004C30 12.9735 28.9627 10.8602 26.875 7.91721C24.7873 10.8602 23.75 12.9735 23.75 14.1004ZM11.875 23.75C8.77209 23.75 6.25 21.0391 6.25 17.8504C6.25 15.8231 7.79882 12.8851 10.8766 8.79913H12.8734C15.9512 12.8851 17.5 15.8231 17.5 17.8504C17.5 21.0391 14.9779 23.75 11.875 23.75ZM8.75 17.8504C8.75 19.6971 10.1947 21.25 11.875 21.25C13.5553 21.25 15 19.6971 15 17.8504C15 16.7235 13.9627 14.6102 11.875 11.6672C9.78729 14.6102 8.75 16.7235 8.75 17.8504Z" fill="#333333"/>
</svg>
