<svg width="40" height="40" viewBox="0 0 40 40" fill="none" xmlns="http://www.w3.org/2000/svg">
<path d="M16 10.0004V6H12V4H22V6H17.996V10.0004H21.936C27.44 10.0004 32 14.4764 32 19.9904V23.9904H24V19.9904C24 18.8884 23.038 17.9904 21.936 17.9904H8V10.0004H16ZM26 22.0004H30V19.9904C30 15.5804 26.34 11.9904 21.936 11.9904H10V16.0004H21.936C24.136 16.0004 26 17.7844 26 19.9904V22.0004ZM27.9668 28.8792L26.5308 30.3692C26.1488 30.7672 26.0008 31.2952 26.0008 31.8592C26.0008 32.4212 26.1488 32.9492 26.5308 33.3472C27.3708 34.2172 28.5648 34.2172 29.4048 33.3472C30.1988 32.5192 30.1988 31.1952 29.4048 30.3692L27.9668 28.8792ZM27.9668 36.0012C26.9008 36.0012 25.8968 35.5692 25.1448 34.7872C24.3888 34.0052 24.0008 32.9632 24.0008 31.8592C24.0008 30.7532 24.3888 29.7112 25.1448 28.9292L27.9668 26.0012C27.9668 26.0012 30.0868 28.1972 30.7908 28.9292C32.4028 30.6012 32.4028 33.1152 30.7908 34.7872C30.0368 35.5692 29.0328 36.0012 27.9668 36.0012Z" fill="#333333"/>
</svg>
