<svg width="40" height="40" viewBox="0 0 40 40" fill="none" xmlns="http://www.w3.org/2000/svg">
<path d="M20 32.5025C14.5808 32.5025 10 27.7355 10 22.3863C10 18.988 12.9944 13.2995 18.9879 5.03036H21.0121C27.0056 13.2995 30 18.988 30 22.3863C30 27.7355 25.4192 32.5025 20 32.5025ZM12.5 22.3863C12.5 26.3766 15.9843 30.0025 20 30.0025C24.0157 30.0025 27.5 26.3766 27.5 22.3863C27.5 19.8816 24.9987 14.9762 20 7.91052C15.0013 14.9762 12.5 19.8816 12.5 22.3863ZM25 22.4999C25 25.2614 22.7614 27.4999 20 27.4999V24.9999C21.3807 24.9999 22.5 23.8807 22.5 22.4999H25Z" fill="#333333"/>
</svg>
