<svg width="40" height="40" viewBox="0 0 40 40" fill="none" xmlns="http://www.w3.org/2000/svg">
<path d="M21.9949 30C21.9949 31.104 21.0989 32 19.9949 32C18.8889 32 17.9949 31.104 17.9949 30C17.9949 28.894 18.8889 28 19.9949 28C21.0989 28 21.9949 28.894 21.9949 30ZM34.5819 15.9302C26.5388 7.99526 13.4579 7.99922 5.4188 15.9302L4.00037 14.5301C12.8239 5.82489 27.1768 5.82291 36.0004 14.5301L34.5819 15.9302ZM15.6125 25.9919L14.194 24.5919C17.396 21.4314 22.6043 21.4314 25.8063 24.5919L24.3879 25.9919C21.9703 23.6057 18.034 23.6057 15.6125 25.9919ZM29.4838 20.9621C26.9499 18.461 23.5834 17.0847 20.0002 17.0847C16.417 17.0847 13.0504 18.461 10.5165 20.9621L9.0981 19.562C12.0092 16.6867 15.8813 15.1044 20.0002 15.1044C24.119 15.1044 27.9911 16.6867 30.9022 19.562L29.4838 20.9621Z" fill="#333333"/>
</svg>
