<svg width="40" height="40" viewBox="0 0 40 40" fill="none" xmlns="http://www.w3.org/2000/svg">
<path fill-rule="evenodd" clip-rule="evenodd" d="M19.999 36C15.826 36 11.876 34.402 8.87601 31.501L10.267 30.063C12.892 32.602 16.348 34 19.999 34C27.719 34 33.999 27.72 33.999 20C33.999 12.28 27.719 6 19.999 6C15.117 6 10.665 8.48 8.09001 12.636L6.39001 11.583C9.33201 6.834 14.42 4 19.999 4C28.821 4 35.999 11.177 35.999 20C35.999 28.822 28.821 36 19.999 36ZM20.608 13.5L21.103 13.006C21.301 12.808 21.564 12.699 21.846 12.698H21.85C22.126 12.698 22.385 12.803 22.576 12.995L23.53 13.949C23.934 14.353 23.929 15.013 23.52 15.422L23.024 15.917L20.608 13.5ZM14.28 24.653L10.84 25.687L11.88 22.237L19.194 14.915L21.609 17.33L14.28 24.653ZM24.944 12.535L23.99 11.581C23.421 11.011 22.661 10.698 21.85 10.698C21.846 10.698 21.842 10.698 21.838 10.698C21.025 10.701 20.262 11.019 19.689 11.592L19.194 12.087L19.193 12.085L10.11 21.179L8.44201 26.712L9.81701 28.084L15.338 26.423L24.934 16.836C26.122 15.647 26.127 13.718 24.944 12.535Z" fill="#333333"/>
</svg>
