<svg width="40" height="40" viewBox="0 0 40 40" fill="none" xmlns="http://www.w3.org/2000/svg">
<path fill-rule="evenodd" clip-rule="evenodd" d="M27.4 30.8C25.3 32.2 22.7 33 20 33C12.3 33 6 26.7 6 19C6 11.3 12.2 4.90002 19.9 4.90002C27.6 4.90002 33.9 11.2 33.9 18.9C33.9 23.2 32 27 29 29.6L33.9 35.7L32.4 37L27.4 30.8ZM32 19C32 12.4 26.6 7.00002 20 7.00002C13.4 7.00002 8 12.4 8 19C8 25.6 13.4 31 20 31C26.6 31 32 25.6 32 19Z" fill="#333333"/>
<path fill-rule="evenodd" clip-rule="evenodd" d="M19 18H14C13.4477 18 13 18.4477 13 19C13 19.5523 13.4477 20 14 20H19V25C19 25.5523 19.4477 26 20 26C20.5523 26 21 25.5523 21 25V20H26C26.5523 20 27 19.5523 27 19C27 18.4477 26.5523 18 26 18H21V13C21 12.4477 20.5523 12 20 12C19.4477 12 19 12.4477 19 13V18Z" fill="#333333"/>
</svg>
