<svg width="41" height="40" viewBox="0 0 41 40" fill="none" xmlns="http://www.w3.org/2000/svg">
<path fill-rule="evenodd" clip-rule="evenodd" d="M27.941 30.8C25.841 32.2 23.241 33 20.541 33C12.841 33 6.54102 26.7 6.54102 19C6.54102 11.3 12.741 4.90002 20.441 4.90002C28.141 4.90002 34.441 11.2 34.441 18.9C34.441 23.2 32.541 27 29.541 29.6L34.441 35.7L32.941 37L27.941 30.8ZM32.541 19C32.541 12.4 27.141 7.00002 20.541 7.00002C13.941 7.00002 8.54102 12.4 8.54102 19C8.54102 25.6 13.941 31 20.541 31C27.141 31 32.541 25.6 32.541 19Z" fill="#333333"/>
<path fill-rule="evenodd" clip-rule="evenodd" d="M19.541 18H14.541C13.9887 18 13.541 18.4477 13.541 19C13.541 19.5523 13.9887 20 14.541 20H19.541H20.0452H20.627C21.1792 20 21.1224 20 21.1224 20H21.541H26.541C27.0933 20 27.541 19.5523 27.541 19C27.541 18.4477 27.0933 18 26.541 18H21.541C21.541 18 20.9594 18 20.4071 18C20.4071 18 19.7234 18 19.7234 18L19.541 18Z" fill="#333333"/>
</svg>
